<svg width="23" height="27" viewBox="0 0 23 27" fill="none" xmlns="http://www.w3.org/2000/svg">
<path d="M18.4368 14.2706C18.4368 12.0456 19.6527 10.1046 21.4567 9.07661C20.5147 7.92061 19.0977 6.88461 17.5357 6.58061C15.4057 6.16561 14.1907 6.85661 13.4047 7.13361C12.6187 7.41061 11.5747 7.65961 11.5747 7.65961C11.5747 7.65961 10.5318 7.41061 9.74475 7.13361C8.95975 6.85661 7.74475 6.16461 5.61475 6.57961C3.48475 6.99461 1.62475 8.77161 0.86875 10.3556C-0.58925 13.4126 0.0107498 17.2586 1.04075 20.0246C2.06975 22.7916 4.79075 26.6576 6.90075 26.9686C8.40175 27.1896 9.33075 26.1526 11.5747 25.8896C13.8187 26.1526 14.7477 27.1896 16.2487 26.9686C18.3587 26.6576 21.0797 22.7916 22.1087 20.0246C22.1337 19.9566 22.1597 19.8866 22.1847 19.8166C19.9877 18.9346 18.4368 16.7836 18.4368 14.2706ZM11.0417 6.07461C11.0417 6.07461 13.1287 6.35161 15.0237 4.19961C16.9187 2.04761 16.3797 0.0116103 16.3797 0.0116103C16.3797 0.0116103 14.2927 -0.26539 12.3977 1.88661C10.5027 4.03861 11.0417 6.07461 11.0417 6.07461Z" fill="black"/>
</svg>
