<svg width="200" height="64" viewBox="0 0 200 64" fill="none" xmlns="http://www.w3.org/2000/svg">
<path d="M62.092 13.76H70.156V16.88H62.092V13.76ZM62.38 23H58.492V6.2H71.188V9.32H62.38V23ZM94.792 23.192C93.576 23.192 92.48 22.92 91.504 22.376C90.528 21.816 89.752 21.04 89.176 20.048C88.616 19.056 88.336 17.888 88.336 16.544C88.336 15.184 88.616 14.008 89.176 13.016C89.752 12.024 90.528 11.256 91.504 10.712C92.48 10.168 93.576 9.896 94.792 9.896C95.88 9.896 96.832 10.136 97.648 10.616C98.464 11.096 99.096 11.824 99.544 12.8C99.992 13.776 100.216 15.024 100.216 16.544C100.216 18.048 100 19.296 99.568 20.288C99.136 21.264 98.512 21.992 97.696 22.472C96.896 22.952 95.928 23.192 94.792 23.192ZM95.44 20.12C96.048 20.12 96.6 19.976 97.096 19.688C97.592 19.4 97.984 18.992 98.272 18.464C98.576 17.92 98.728 17.28 98.728 16.544C98.728 15.792 98.576 15.152 98.272 14.624C97.984 14.096 97.592 13.688 97.096 13.4C96.6 13.112 96.048 12.968 95.44 12.968C94.816 12.968 94.256 13.112 93.76 13.4C93.264 13.688 92.864 14.096 92.56 14.624C92.272 15.152 92.128 15.792 92.128 16.544C92.128 17.28 92.272 17.92 92.56 18.464C92.864 18.992 93.264 19.4 93.76 19.688C94.256 19.976 94.816 20.12 95.44 20.12ZM98.824 23V20.36L98.896 16.52L98.656 12.704V5.192H102.4V23H98.824ZM105.889 23V6.2H113.161C114.665 6.2 115.961 6.448 117.049 6.944C118.137 7.424 118.977 8.12 119.569 9.032C120.161 9.944 120.457 11.032 120.457 12.296C120.457 13.544 120.161 14.624 119.569 15.536C118.977 16.448 118.137 17.152 117.049 17.648C115.961 18.128 114.665 18.368 113.161 18.368H108.049L109.777 16.616V23H105.889ZM109.777 17.048L108.049 15.2H112.945C114.145 15.2 115.041 14.944 115.633 14.432C116.225 13.92 116.521 13.208 116.521 12.296C116.521 11.368 116.225 10.648 115.633 10.136C115.041 9.624 114.145 9.368 112.945 9.368H108.049L109.777 7.52V17.048ZM130.532 23V20.48L130.292 19.928V15.416C130.292 14.616 130.044 13.992 129.548 13.544C129.068 13.096 128.324 12.872 127.316 12.872C126.628 12.872 125.948 12.984 125.276 13.208C124.62 13.416 124.06 13.704 123.596 14.072L122.252 11.456C122.956 10.96 123.804 10.576 124.796 10.304C125.788 10.032 126.796 9.896 127.82 9.896C129.788 9.896 131.316 10.36 132.404 11.288C133.492 12.216 134.036 13.664 134.036 15.632V23H130.532ZM126.596 23.192C125.588 23.192 124.724 23.024 124.004 22.688C123.284 22.336 122.732 21.864 122.348 21.272C121.964 20.68 121.772 20.016 121.772 19.28C121.772 18.512 121.956 17.84 122.324 17.264C122.708 16.688 123.308 16.24 124.124 15.92C124.94 15.584 126.004 15.416 127.316 15.416H130.748V17.6H127.724C126.844 17.6 126.236 17.744 125.9 18.032C125.58 18.32 125.42 18.68 125.42 19.112C125.42 19.592 125.604 19.976 125.972 20.264C126.356 20.536 126.876 20.672 127.532 20.672C128.156 20.672 128.716 20.528 129.212 20.24C129.708 19.936 130.068 19.496 130.292 18.92L130.868 20.648C130.596 21.48 130.1 22.112 129.38 22.544C128.66 22.976 127.732 23.192 126.596 23.192ZM137.184 23V5.192H140.928V23H137.184Z" fill="black"/>
<ellipse cx="81" cy="10" rx="6.5" ry="7" fill="#040404"/>
<circle cx="81" cy="22" r="4" fill="#696969"/>
<path d="M5.19813 60H1.60722V48.3636H5.35722C6.48601 48.3636 7.45192 48.5966 8.25495 49.0625C9.05798 49.5246 9.67351 50.1894 10.1015 51.0568C10.5296 51.9205 10.7436 52.9545 10.7436 54.1591C10.7436 55.3712 10.5277 56.4148 10.0959 57.2898C9.66404 58.161 9.03525 58.8314 8.20949 59.3011C7.38373 59.767 6.37995 60 5.19813 60ZM3.01631 58.75H5.10722C6.06934 58.75 6.86669 58.5644 7.49926 58.1932C8.13184 57.822 8.60343 57.2936 8.91404 56.608C9.22464 55.9223 9.37995 55.1061 9.37995 54.1591C9.37995 53.2197 9.22654 52.411 8.91972 51.733C8.6129 51.0511 8.15457 50.5284 7.54472 50.1648C6.93487 49.7973 6.1754 49.6136 5.26631 49.6136H3.01631V58.75ZM16.3445 60.1818C15.5036 60.1818 14.7782 59.9962 14.1684 59.625C13.5623 59.25 13.0945 58.7273 12.7649 58.0568C12.4392 57.3826 12.2763 56.5985 12.2763 55.7045C12.2763 54.8106 12.4392 54.0227 12.7649 53.3409C13.0945 52.6553 13.5528 52.1212 14.1399 51.7386C14.7309 51.3523 15.4202 51.1591 16.2081 51.1591C16.6627 51.1591 17.1115 51.2348 17.5547 51.3864C17.9979 51.5379 18.4013 51.7841 18.7649 52.125C19.1286 52.4621 19.4184 52.9091 19.6343 53.4659C19.8502 54.0227 19.9581 54.7083 19.9581 55.5227V56.0909H13.2309V54.9318H18.5945C18.5945 54.4394 18.496 54 18.299 53.6136C18.1059 53.2273 17.8293 52.9223 17.4695 52.6989C17.1134 52.4754 16.693 52.3636 16.2081 52.3636C15.674 52.3636 15.2119 52.4962 14.8218 52.7614C14.4354 53.0227 14.1381 53.3636 13.9297 53.7841C13.7214 54.2045 13.6172 54.6553 13.6172 55.1364V55.9091C13.6172 56.5682 13.7309 57.1269 13.9581 57.5852C14.1892 58.0398 14.5093 58.3864 14.9184 58.625C15.3274 58.8598 15.8028 58.9773 16.3445 58.9773C16.6968 58.9773 17.0149 58.928 17.299 58.8295C17.5869 58.7273 17.835 58.5758 18.0434 58.375C18.2517 58.1705 18.4127 57.9167 18.5263 57.6136L19.8218 57.9773C19.6854 58.4167 19.4562 58.803 19.1343 59.1364C18.8123 59.4659 18.4146 59.7235 17.9411 59.9091C17.4676 60.0909 16.9354 60.1818 16.3445 60.1818ZM23.0988 48.3636V60H21.7579V48.3636H23.0988ZM25.3148 60V51.2727H26.6557V60H25.3148ZM25.9966 49.8182C25.7352 49.8182 25.5099 49.7292 25.3205 49.5511C25.1349 49.3731 25.042 49.1591 25.042 48.9091C25.042 48.6591 25.1349 48.4451 25.3205 48.267C25.5099 48.089 25.7352 48 25.9966 48C26.258 48 26.4814 48.089 26.667 48.267C26.8564 48.4451 26.9511 48.6591 26.9511 48.9091C26.9511 49.1591 26.8564 49.3731 26.667 49.5511C26.4814 49.7292 26.258 49.8182 25.9966 49.8182ZM32.4171 60.1818C31.5989 60.1818 30.8944 59.9886 30.3035 59.6023C29.7126 59.2159 29.258 58.6837 28.9398 58.0057C28.6217 57.3277 28.4626 56.553 28.4626 55.6818C28.4626 54.7955 28.6254 54.0133 28.9512 53.3352C29.2807 52.6534 29.7391 52.1212 30.3262 51.7386C30.9171 51.3523 31.6065 51.1591 32.3944 51.1591C33.008 51.1591 33.561 51.2727 34.0535 51.5C34.5459 51.7273 34.9493 52.0455 35.2637 52.4545C35.5781 52.8636 35.7732 53.3409 35.8489 53.8864H34.508C34.4057 53.4886 34.1785 53.1364 33.8262 52.8295C33.4777 52.5189 33.008 52.3636 32.4171 52.3636C31.8944 52.3636 31.436 52.5 31.0421 52.7727C30.652 53.0417 30.347 53.4223 30.1273 53.9148C29.9114 54.4034 29.8035 54.9773 29.8035 55.6364C29.8035 56.3106 29.9095 56.8977 30.1217 57.3977C30.3376 57.8977 30.6406 58.286 31.0307 58.5625C31.4247 58.839 31.8868 58.9773 32.4171 58.9773C32.7656 58.9773 33.0819 58.9167 33.366 58.7955C33.6501 58.6742 33.8906 58.5 34.0876 58.2727C34.2845 58.0455 34.4247 57.7727 34.508 57.4545H35.8489C35.7732 57.9697 35.5857 58.4337 35.2864 58.8466C34.991 59.2557 34.5989 59.5814 34.1103 59.8239C33.6254 60.0625 33.061 60.1818 32.4171 60.1818ZM37.5691 60V51.2727H38.9101V60H37.5691ZM38.251 49.8182C37.9896 49.8182 37.7642 49.7292 37.5748 49.5511C37.3892 49.3731 37.2964 49.1591 37.2964 48.9091C37.2964 48.6591 37.3892 48.4451 37.5748 48.267C37.7642 48.089 37.9896 48 38.251 48C38.5123 48 38.7358 48.089 38.9214 48.267C39.1108 48.4451 39.2055 48.6591 39.2055 48.9091C39.2055 49.1591 39.1108 49.3731 38.9214 49.5511C38.7358 49.7292 38.5123 49.8182 38.251 49.8182ZM44.6715 60.1818C43.8836 60.1818 43.1923 59.9943 42.5976 59.6193C42.0067 59.2443 41.5446 58.7197 41.2113 58.0455C40.8817 57.3712 40.7169 56.5833 40.7169 55.6818C40.7169 54.7727 40.8817 53.9792 41.2113 53.3011C41.5446 52.6231 42.0067 52.0966 42.5976 51.7216C43.1923 51.3466 43.8836 51.1591 44.6715 51.1591C45.4594 51.1591 46.1488 51.3466 46.7397 51.7216C47.3344 52.0966 47.7965 52.6231 48.126 53.3011C48.4594 53.9792 48.626 54.7727 48.626 55.6818C48.626 56.5833 48.4594 57.3712 48.126 58.0455C47.7965 58.7197 47.3344 59.2443 46.7397 59.6193C46.1488 59.9943 45.4594 60.1818 44.6715 60.1818ZM44.6715 58.9773C45.27 58.9773 45.7624 58.8239 46.1488 58.517C46.5351 58.2102 46.8211 57.8068 47.0067 57.3068C47.1923 56.8068 47.2851 56.2652 47.2851 55.6818C47.2851 55.0985 47.1923 54.5549 47.0067 54.0511C46.8211 53.5473 46.5351 53.1402 46.1488 52.8295C45.7624 52.5189 45.27 52.3636 44.6715 52.3636C44.073 52.3636 43.5806 52.5189 43.1942 52.8295C42.8078 53.1402 42.5219 53.5473 42.3363 54.0511C42.1506 54.5549 42.0578 55.0985 42.0578 55.6818C42.0578 56.2652 42.1506 56.8068 42.3363 57.3068C42.5219 57.8068 42.8078 58.2102 43.1942 58.517C43.5806 58.8239 44.073 58.9773 44.6715 58.9773ZM55.9329 56.4318V51.2727H57.2738V60H55.9329V58.5227H55.842C55.6374 58.9659 55.3193 59.3428 54.8874 59.6534C54.4556 59.9602 53.9102 60.1136 53.2511 60.1136C52.7056 60.1136 52.2208 59.9943 51.7965 59.7557C51.3723 59.5133 51.039 59.1496 50.7965 58.6648C50.5541 58.1761 50.4329 57.5606 50.4329 56.8182V51.2727H51.7738V56.7273C51.7738 57.3636 51.9518 57.8712 52.3079 58.25C52.6677 58.6288 53.1261 58.8182 53.6829 58.8182C54.0162 58.8182 54.3552 58.733 54.6999 58.5625C55.0484 58.392 55.3401 58.1307 55.5749 57.7784C55.8136 57.4261 55.9329 56.9773 55.9329 56.4318ZM65.6716 53.2273L64.4671 53.5682C64.3913 53.3674 64.2796 53.1723 64.1318 52.983C63.9879 52.7898 63.7909 52.6307 63.5409 52.5057C63.2909 52.3807 62.9708 52.3182 62.5807 52.3182C62.0466 52.3182 61.6015 52.4413 61.2455 52.6875C60.8932 52.9299 60.7171 53.2386 60.7171 53.6136C60.7171 53.947 60.8383 54.2102 61.0807 54.4034C61.3231 54.5966 61.7019 54.7576 62.2171 54.8864L63.5125 55.2045C64.2928 55.3939 64.8742 55.6837 65.2568 56.0739C65.6394 56.4602 65.8307 56.9583 65.8307 57.5682C65.8307 58.0682 65.6867 58.5152 65.3989 58.9091C65.1148 59.303 64.7171 59.6136 64.2057 59.8409C63.6943 60.0682 63.0996 60.1818 62.4216 60.1818C61.5314 60.1818 60.7947 59.9886 60.2114 59.6023C59.628 59.2159 59.2587 58.6515 59.1034 57.9091L60.3761 57.5909C60.4974 58.0606 60.7265 58.4129 61.0636 58.6477C61.4046 58.8826 61.8496 59 62.3989 59C63.0239 59 63.5201 58.8674 63.8875 58.6023C64.2587 58.3333 64.4443 58.0114 64.4443 57.6364C64.4443 57.3333 64.3383 57.0795 64.1261 56.875C63.914 56.6667 63.5883 56.5114 63.1489 56.4091L61.6943 56.0682C60.8951 55.8788 60.308 55.5852 59.933 55.1875C59.5617 54.786 59.3761 54.2841 59.3761 53.6818C59.3761 53.1894 59.5144 52.7538 59.7909 52.375C60.0712 51.9962 60.4519 51.6989 60.933 51.483C61.4178 51.267 61.9671 51.1591 62.5807 51.1591C63.4443 51.1591 64.1224 51.3485 64.6148 51.7273C65.111 52.1061 65.4633 52.6061 65.6716 53.2273ZM75.6419 60H72.051V48.3636H75.801C76.9298 48.3636 77.8957 48.5966 78.6987 49.0625C79.5017 49.5246 80.1173 50.1894 80.5453 51.0568C80.9733 51.9205 81.1873 52.9545 81.1873 54.1591C81.1873 55.3712 80.9714 56.4148 80.5396 57.2898C80.1078 58.161 79.479 58.8314 78.6532 59.3011C77.8275 59.767 76.8237 60 75.6419 60ZM73.4601 58.75H75.551C76.5131 58.75 77.3104 58.5644 77.943 58.1932C78.5756 57.822 79.0472 57.2936 79.3578 56.608C79.6684 55.9223 79.8237 55.1061 79.8237 54.1591C79.8237 53.2197 79.6703 52.411 79.3635 51.733C79.0566 51.0511 78.5983 50.5284 77.9885 50.1648C77.3786 49.7973 76.6191 49.6136 75.7101 49.6136H73.4601V58.75ZM83.1292 60V51.2727H84.4701V60H83.1292ZM83.811 49.8182C83.5496 49.8182 83.3242 49.7292 83.1348 49.5511C82.9492 49.3731 82.8564 49.1591 82.8564 48.9091C82.8564 48.6591 82.9492 48.4451 83.1348 48.267C83.3242 48.089 83.5496 48 83.811 48C84.0723 48 84.2958 48.089 84.4814 48.267C84.6708 48.4451 84.7655 48.6591 84.7655 48.9091C84.7655 49.1591 84.6708 49.3731 84.4814 49.5511C84.2958 49.7292 84.0723 49.8182 83.811 49.8182ZM92.8678 53.2273L91.6633 53.5682C91.5875 53.3674 91.4758 53.1723 91.3281 52.983C91.1841 52.7898 90.9872 52.6307 90.7372 52.5057C90.4872 52.3807 90.1671 52.3182 89.7769 52.3182C89.2428 52.3182 88.7978 52.4413 88.4417 52.6875C88.0894 52.9299 87.9133 53.2386 87.9133 53.6136C87.9133 53.947 88.0345 54.2102 88.2769 54.4034C88.5194 54.5966 88.8981 54.7576 89.4133 54.8864L90.7088 55.2045C91.4891 55.3939 92.0705 55.6837 92.4531 56.0739C92.8356 56.4602 93.0269 56.9583 93.0269 57.5682C93.0269 58.0682 92.883 58.5152 92.5951 58.9091C92.311 59.303 91.9133 59.6136 91.4019 59.8409C90.8906 60.0682 90.2959 60.1818 89.6178 60.1818C88.7277 60.1818 87.991 59.9886 87.4076 59.6023C86.8243 59.2159 86.455 58.6515 86.2997 57.9091L87.5724 57.5909C87.6936 58.0606 87.9228 58.4129 88.2599 58.6477C88.6008 58.8826 89.0459 59 89.5951 59C90.2201 59 90.7163 58.8674 91.0838 58.6023C91.455 58.3333 91.6406 58.0114 91.6406 57.6364C91.6406 57.3333 91.5345 57.0795 91.3224 56.875C91.1103 56.6667 90.7845 56.5114 90.3451 56.4091L88.8906 56.0682C88.0913 55.8788 87.5042 55.5852 87.1292 55.1875C86.758 54.786 86.5724 54.2841 86.5724 53.6818C86.5724 53.1894 86.7106 52.7538 86.9872 52.375C87.2675 51.9962 87.6481 51.6989 88.1292 51.483C88.6141 51.267 89.1633 51.1591 89.7769 51.1591C90.6406 51.1591 91.3186 51.3485 91.811 51.7273C92.3072 52.1061 92.6595 52.6061 92.8678 53.2273ZM98.3509 60.1818C97.5327 60.1818 96.8281 59.9886 96.2372 59.6023C95.6463 59.2159 95.1918 58.6837 94.8736 58.0057C94.5554 57.3277 94.3963 56.553 94.3963 55.6818C94.3963 54.7955 94.5592 54.0133 94.8849 53.3352C95.2145 52.6534 95.6728 52.1212 96.2599 51.7386C96.8509 51.3523 97.5402 51.1591 98.3281 51.1591C98.9418 51.1591 99.4948 51.2727 99.9872 51.5C100.48 51.7273 100.883 52.0455 101.197 52.4545C101.512 52.8636 101.707 53.3409 101.783 53.8864H100.442C100.339 53.4886 100.112 53.1364 99.7599 52.8295C99.4115 52.5189 98.9418 52.3636 98.3509 52.3636C97.8281 52.3636 97.3698 52.5 96.9759 52.7727C96.5857 53.0417 96.2808 53.4223 96.0611 53.9148C95.8452 54.4034 95.7372 54.9773 95.7372 55.6364C95.7372 56.3106 95.8433 56.8977 96.0554 57.3977C96.2713 57.8977 96.5743 58.286 96.9645 58.5625C97.3584 58.839 97.8205 58.9773 98.3509 58.9773C98.6993 58.9773 99.0156 58.9167 99.2997 58.7955C99.5838 58.6742 99.8243 58.5 100.021 58.2727C100.218 58.0455 100.358 57.7727 100.442 57.4545H101.783C101.707 57.9697 101.519 58.4337 101.22 58.8466C100.925 59.2557 100.533 59.5814 100.044 59.8239C99.5592 60.0625 98.9948 60.1818 98.3509 60.1818ZM107.048 60.1818C106.26 60.1818 105.569 59.9943 104.974 59.6193C104.384 59.2443 103.921 58.7197 103.588 58.0455C103.259 57.3712 103.094 56.5833 103.094 55.6818C103.094 54.7727 103.259 53.9792 103.588 53.3011C103.921 52.6231 104.384 52.0966 104.974 51.7216C105.569 51.3466 106.26 51.1591 107.048 51.1591C107.836 51.1591 108.526 51.3466 109.117 51.7216C109.711 52.0966 110.173 52.6231 110.503 53.3011C110.836 53.9792 111.003 54.7727 111.003 55.6818C111.003 56.5833 110.836 57.3712 110.503 58.0455C110.173 58.7197 109.711 59.2443 109.117 59.6193C108.526 59.9943 107.836 60.1818 107.048 60.1818ZM107.048 58.9773C107.647 58.9773 108.139 58.8239 108.526 58.517C108.912 58.2102 109.198 57.8068 109.384 57.3068C109.569 56.8068 109.662 56.2652 109.662 55.6818C109.662 55.0985 109.569 54.5549 109.384 54.0511C109.198 53.5473 108.912 53.1402 108.526 52.8295C108.139 52.5189 107.647 52.3636 107.048 52.3636C106.45 52.3636 105.957 52.5189 105.571 52.8295C105.185 53.1402 104.899 53.5473 104.713 54.0511C104.528 54.5549 104.435 55.0985 104.435 55.6818C104.435 56.2652 104.528 56.8068 104.713 57.3068C104.899 57.8068 105.185 58.2102 105.571 58.517C105.957 58.8239 106.45 58.9773 107.048 58.9773ZM119.634 51.2727L116.406 60H115.043L111.815 51.2727H113.27L115.679 58.2273H115.77L118.179 51.2727H119.634ZM124.51 60.1818C123.669 60.1818 122.944 59.9962 122.334 59.625C121.728 59.25 121.26 58.7273 120.931 58.0568C120.605 57.3826 120.442 56.5985 120.442 55.7045C120.442 54.8106 120.605 54.0227 120.931 53.3409C121.26 52.6553 121.718 52.1212 122.306 51.7386C122.896 51.3523 123.586 51.1591 124.374 51.1591C124.828 51.1591 125.277 51.2348 125.72 51.3864C126.164 51.5379 126.567 51.7841 126.931 52.125C127.294 52.4621 127.584 52.9091 127.8 53.4659C128.016 54.0227 128.124 54.7083 128.124 55.5227V56.0909H121.396V54.9318H126.76C126.76 54.4394 126.662 54 126.465 53.6136C126.271 53.2273 125.995 52.9223 125.635 52.6989C125.279 52.4754 124.859 52.3636 124.374 52.3636C123.84 52.3636 123.378 52.4962 122.987 52.7614C122.601 53.0227 122.304 53.3636 122.095 53.7841C121.887 54.2045 121.783 54.6553 121.783 55.1364V55.9091C121.783 56.5682 121.896 57.1269 122.124 57.5852C122.355 58.0398 122.675 58.3864 123.084 58.625C123.493 58.8598 123.968 58.9773 124.51 58.9773C124.862 58.9773 125.181 58.928 125.465 58.8295C125.753 58.7273 126.001 58.5758 126.209 58.375C126.417 58.1705 126.578 57.9167 126.692 57.6136L127.987 57.9773C127.851 58.4167 127.622 58.803 127.3 59.1364C126.978 59.4659 126.58 59.7235 126.107 59.9091C125.633 60.0909 125.101 60.1818 124.51 60.1818ZM129.924 60V51.2727H131.219V52.5909H131.31C131.469 52.1591 131.757 51.8087 132.174 51.5398C132.59 51.2708 133.06 51.1364 133.583 51.1364C133.681 51.1364 133.804 51.1383 133.952 51.142C134.1 51.1458 134.211 51.1515 134.287 51.1591V52.5227C134.242 52.5114 134.138 52.4943 133.975 52.4716C133.816 52.4451 133.647 52.4318 133.469 52.4318C133.045 52.4318 132.666 52.5208 132.333 52.6989C132.003 52.8731 131.742 53.1155 131.549 53.4261C131.359 53.733 131.264 54.0833 131.264 54.4773V60H129.924ZM135.637 60V51.2727H136.978V60H135.637ZM136.318 49.8182C136.057 49.8182 135.832 49.7292 135.642 49.5511C135.457 49.3731 135.364 49.1591 135.364 48.9091C135.364 48.6591 135.457 48.4451 135.642 48.267C135.832 48.089 136.057 48 136.318 48C136.58 48 136.803 48.089 136.989 48.267C137.178 48.4451 137.273 48.6591 137.273 48.9091C137.273 49.1591 137.178 49.3731 136.989 49.5511C136.803 49.7292 136.58 49.8182 136.318 49.8182ZM142.853 60.1818C142.012 60.1818 141.286 59.9962 140.676 59.625C140.07 59.25 139.603 58.7273 139.273 58.0568C138.947 57.3826 138.784 56.5985 138.784 55.7045C138.784 54.8106 138.947 54.0227 139.273 53.3409C139.603 52.6553 140.061 52.1212 140.648 51.7386C141.239 51.3523 141.928 51.1591 142.716 51.1591C143.171 51.1591 143.62 51.2348 144.063 51.3864C144.506 51.5379 144.909 51.7841 145.273 52.125C145.637 52.4621 145.926 52.9091 146.142 53.4659C146.358 54.0227 146.466 54.7083 146.466 55.5227V56.0909H139.739V54.9318H145.103C145.103 54.4394 145.004 54 144.807 53.6136C144.614 53.2273 144.337 52.9223 143.978 52.6989C143.622 52.4754 143.201 52.3636 142.716 52.3636C142.182 52.3636 141.72 52.4962 141.33 52.7614C140.944 53.0227 140.646 53.3636 140.438 53.7841C140.23 54.2045 140.125 54.6553 140.125 55.1364V55.9091C140.125 56.5682 140.239 57.1269 140.466 57.5852C140.697 58.0398 141.017 58.3864 141.426 58.625C141.836 58.8598 142.311 58.9773 142.853 58.9773C143.205 58.9773 143.523 58.928 143.807 58.8295C144.095 58.7273 144.343 58.5758 144.551 58.375C144.76 58.1705 144.921 57.9167 145.034 57.6136L146.33 57.9773C146.194 58.4167 145.964 58.803 145.642 59.1364C145.32 59.4659 144.923 59.7235 144.449 59.9091C143.976 60.0909 143.444 60.1818 142.853 60.1818ZM154.448 53.2273L153.243 53.5682C153.168 53.3674 153.056 53.1723 152.908 52.983C152.764 52.7898 152.567 52.6307 152.317 52.5057C152.067 52.3807 151.747 52.3182 151.357 52.3182C150.823 52.3182 150.378 52.4413 150.022 52.6875C149.669 52.9299 149.493 53.2386 149.493 53.6136C149.493 53.947 149.615 54.2102 149.857 54.4034C150.099 54.5966 150.478 54.7576 150.993 54.8864L152.289 55.2045C153.069 55.3939 153.65 55.6837 154.033 56.0739C154.416 56.4602 154.607 56.9583 154.607 57.5682C154.607 58.0682 154.463 58.5152 154.175 58.9091C153.891 59.303 153.493 59.6136 152.982 59.8409C152.471 60.0682 151.876 60.1818 151.198 60.1818C150.308 60.1818 149.571 59.9886 148.988 59.6023C148.404 59.2159 148.035 58.6515 147.88 57.9091L149.152 57.5909C149.274 58.0606 149.503 58.4129 149.84 58.6477C150.181 58.8826 150.626 59 151.175 59C151.8 59 152.296 58.8674 152.664 58.6023C153.035 58.3333 153.221 58.0114 153.221 57.6364C153.221 57.3333 153.115 57.0795 152.902 56.875C152.69 56.6667 152.365 56.5114 151.925 56.4091L150.471 56.0682C149.671 55.8788 149.084 55.5852 148.709 55.1875C148.338 54.786 148.152 54.2841 148.152 53.6818C148.152 53.1894 148.291 52.7538 148.567 52.375C148.847 51.9962 149.228 51.6989 149.709 51.483C150.194 51.267 150.743 51.1591 151.357 51.1591C152.221 51.1591 152.899 51.3485 153.391 51.7273C153.887 52.1061 154.24 52.6061 154.448 53.2273ZM161.304 60H159.827L164.1 48.3636H165.554L169.827 60H168.35L164.873 50.2045H164.782L161.304 60ZM161.85 55.4545H167.804V56.7045H161.85V55.4545ZM172.101 60L169.442 51.2727H170.851L172.738 57.9545H172.829L174.692 51.2727H176.124L177.965 57.9318H178.056L179.942 51.2727H181.351L178.692 60H177.374L175.465 53.2955H175.329L173.42 60H172.101ZM185.452 60.2045C184.899 60.2045 184.397 60.1004 183.947 59.892C183.496 59.6799 183.138 59.375 182.873 58.9773C182.608 58.5758 182.475 58.0909 182.475 57.5227C182.475 57.0227 182.574 56.6174 182.771 56.3068C182.967 55.9924 183.231 55.7462 183.56 55.5682C183.89 55.3902 184.253 55.2576 184.651 55.1705C185.053 55.0795 185.456 55.0076 185.861 54.9545C186.392 54.8864 186.822 54.8352 187.151 54.8011C187.485 54.7633 187.727 54.7008 187.878 54.6136C188.034 54.5265 188.111 54.375 188.111 54.1591V54.1136C188.111 53.553 187.958 53.1174 187.651 52.8068C187.348 52.4962 186.888 52.3409 186.271 52.3409C185.63 52.3409 185.128 52.4811 184.765 52.7614C184.401 53.0417 184.146 53.3409 183.998 53.6591L182.725 53.2045C182.952 52.6742 183.255 52.2614 183.634 51.9659C184.017 51.6667 184.433 51.4583 184.884 51.3409C185.339 51.2197 185.786 51.1591 186.225 51.1591C186.505 51.1591 186.827 51.1932 187.191 51.2614C187.558 51.3258 187.913 51.4602 188.253 51.6648C188.598 51.8693 188.884 52.178 189.111 52.5909C189.339 53.0038 189.452 53.5568 189.452 54.25V60H188.111V58.8182H188.043C187.952 59.0076 187.801 59.2102 187.589 59.4261C187.377 59.642 187.094 59.8258 186.742 59.9773C186.39 60.1288 185.96 60.2045 185.452 60.2045ZM185.657 59C186.187 59 186.634 58.8958 186.998 58.6875C187.365 58.4792 187.642 58.2102 187.827 57.8807C188.017 57.5511 188.111 57.2045 188.111 56.8409V55.6136C188.055 55.6818 187.93 55.7443 187.736 55.8011C187.547 55.8542 187.327 55.9015 187.077 55.9432C186.831 55.9811 186.591 56.0152 186.356 56.0455C186.125 56.072 185.937 56.0947 185.793 56.1136C185.445 56.1591 185.119 56.233 184.816 56.3352C184.517 56.4337 184.274 56.5833 184.089 56.7841C183.907 56.9811 183.816 57.25 183.816 57.5909C183.816 58.0568 183.988 58.4091 184.333 58.6477C184.682 58.8826 185.123 59 185.657 59ZM191.66 60V51.2727H193.001V60H191.66ZM192.342 49.8182C192.08 49.8182 191.855 49.7292 191.665 49.5511C191.48 49.3731 191.387 49.1591 191.387 48.9091C191.387 48.6591 191.48 48.4451 191.665 48.267C191.855 48.089 192.08 48 192.342 48C192.603 48 192.826 48.089 193.012 48.267C193.201 48.4451 193.296 48.6591 193.296 48.9091C193.296 49.1591 193.201 49.3731 193.012 49.5511C192.826 49.7292 192.603 49.8182 192.342 49.8182ZM199.012 51.2727V52.4091H194.489V51.2727H199.012ZM195.808 49.1818H197.148V57.5C197.148 57.8788 197.203 58.1629 197.313 58.3523C197.427 58.5379 197.571 58.6629 197.745 58.7273C197.923 58.7879 198.111 58.8182 198.308 58.8182C198.455 58.8182 198.577 58.8106 198.671 58.7955C198.766 58.7765 198.842 58.7614 198.898 58.75L199.171 59.9545C199.08 59.9886 198.953 60.0227 198.791 60.0568C198.628 60.0947 198.421 60.1136 198.171 60.1136C197.792 60.1136 197.421 60.0322 197.058 59.8693C196.698 59.7064 196.398 59.4583 196.16 59.125C195.925 58.7917 195.808 58.3712 195.808 57.8636V49.1818Z" fill="#696969"/>
</svg>
