<svg width="26" height="22" viewBox="0 0 26 22" fill="none" xmlns="http://www.w3.org/2000/svg">
<path d="M26.0077 11.1749C26.0077 10.3002 25.9174 9.66193 25.7219 9H13.0077V12.9479H20.4706C20.3202 13.9291 19.5077 15.4066 17.7021 16.3995L17.6768 16.5316L21.6968 18.9782L21.9753 19C24.5331 17.1442 26.0077 14.4137 26.0077 11.1749Z" fill="#4285F4"/>
<path d="M13.0678 22C16.7127 22 19.7727 21.0027 22.0077 19.2826L17.7477 16.5401C16.6077 17.2008 15.0777 17.662 13.0678 17.662C9.49778 17.662 6.46781 15.705 5.38771 13L5.22939 13.0112L1.06223 15.6912L1.00774 15.8171C3.22771 19.4819 7.78772 22 13.0678 22Z" fill="#34A853"/>
<path d="M6.00774 13.2181C5.71392 12.5288 5.54389 11.7901 5.54389 11.027C5.54389 10.2637 5.71392 9.5252 5.99228 8.83588L5.9845 8.68907L1.63457 6L1.49225 6.05389C0.548985 7.55567 0.00773621 9.24211 0.00773621 11.027C0.00773621 12.8119 0.548985 14.4982 1.49225 16L6.00774 13.2181Z" fill="#FBBC05"/>
<path d="M13.0163 4.33793C15.5405 4.33793 17.2431 5.24789 18.214 6.00834L22.0077 2.9169C19.6778 1.10942 16.6457 0 13.0163 0C7.7588 0 3.21824 2.51799 1.00774 6.18278L5.35409 9C6.44452 6.29502 9.46157 4.33793 13.0163 4.33793Z" fill="#EB4335"/>
</svg>
