<svg width="204" height="200" viewBox="0 0 204 200" fill="none" xmlns="http://www.w3.org/2000/svg">
<g clip-path="url(#clip0_172_8269)">
<path d="M145.748 182.525H150.448L145.683 162.973H137.584L145.748 182.525Z" fill="#4D718C"/>
<path d="M150.448 182.776H145.748C145.65 182.776 145.552 182.71 145.519 182.623L137.355 163.071C137.322 162.994 137.333 162.907 137.377 162.83C137.421 162.754 137.508 162.721 137.585 162.721H145.694C145.814 162.721 145.912 162.798 145.945 162.918L150.699 182.47C150.721 182.546 150.699 182.623 150.656 182.688C150.59 182.743 150.524 182.776 150.448 182.776ZM145.912 182.273H150.12L145.486 163.224H137.956L145.912 182.273Z" fill="black"/>
<path d="M168.306 182.525H173.005L168.24 162.973H160.142L168.306 182.525Z" fill="#4D718C"/>
<path d="M173.005 182.776H168.306C168.207 182.776 168.109 182.71 168.076 182.623L159.912 163.071C159.879 162.994 159.89 162.907 159.934 162.83C159.978 162.765 160.065 162.721 160.142 162.721H168.251C168.371 162.721 168.47 162.798 168.502 162.918L173.256 182.47C173.278 182.546 173.256 182.623 173.213 182.688C173.158 182.743 173.082 182.776 173.005 182.776ZM168.47 182.273H172.677L168.043 163.224H160.513L168.47 182.273Z" fill="black"/>
<path d="M37.8469 182.525H33.1475L37.9016 162.973H46.0108L37.8469 182.525Z" fill="#4D718C"/>
<path d="M37.8469 182.776H33.1474C33.0709 182.776 32.9944 182.743 32.9507 182.678C32.907 182.612 32.8852 182.536 32.907 182.459L37.6611 162.907C37.6939 162.798 37.7923 162.71 37.9125 162.71H46.0108C46.0983 162.71 46.1748 162.754 46.2185 162.82C46.2622 162.885 46.2731 162.984 46.2403 163.06L38.0764 182.623C38.0436 182.721 37.9453 182.776 37.8469 182.776ZM33.4753 182.273H37.683L45.6393 163.224H38.1092L33.4753 182.273Z" fill="black"/>
<path d="M15.0596 182.525H10.3711L15.1252 162.973H23.2345L15.0596 182.525Z" fill="#4D718C"/>
<path d="M15.0598 182.776H10.3603C10.2838 182.776 10.2073 182.743 10.1636 182.678C10.1199 182.612 10.098 182.536 10.1199 182.459L14.874 162.907C14.9068 162.798 15.0051 162.71 15.1254 162.71H23.2347C23.3221 162.71 23.3986 162.754 23.4423 162.82C23.486 162.885 23.497 162.984 23.4642 163.06L15.3002 182.623C15.2565 182.721 15.1691 182.776 15.0598 182.776ZM10.6882 182.273H14.8959L22.8521 163.224H15.3221L10.6882 182.273Z" fill="black"/>
<path d="M31.5189 164.415H166.623C171.311 164.415 175.399 161.268 176.612 156.743L187.158 117.29C188.896 110.732 184.186 104.306 177.399 104.306H42.0653C37.3768 104.306 33.2893 107.454 32.0762 111.978L21.5298 151.432C19.7921 157.978 24.7429 164.415 31.5189 164.415Z" fill="#99D4FF"/>
<path d="M166.623 164.667H31.5187C28.2073 164.667 25.1472 163.159 23.1253 160.536C21.1034 157.913 20.4368 154.569 21.2892 151.366L31.8357 111.913C33.0707 107.279 37.2674 104.044 42.0652 104.044H177.388C180.633 104.044 183.617 105.508 185.573 108.055C187.595 110.689 188.262 114.077 187.388 117.344L176.841 156.798C175.617 161.432 171.409 164.667 166.623 164.667ZM42.0652 104.558C37.5078 104.558 33.4969 107.64 32.3275 112.044L21.781 151.497C20.9723 154.547 21.6062 157.727 23.5297 160.23C25.4532 162.732 28.3603 164.164 31.5187 164.164H166.623C171.18 164.164 175.191 161.082 176.36 156.678L186.907 117.224C187.737 114.11 187.103 110.875 185.18 108.372C183.322 105.946 180.48 104.558 177.399 104.558H42.0652Z" fill="black"/>
<path d="M46.8416 164.667H31.5192C28.2078 164.667 25.1476 163.158 23.1258 160.535C21.1039 157.913 20.4373 154.568 21.2897 151.366L31.8362 111.913C33.0711 107.257 35.4537 103.443 52.022 104.011C52.164 104.011 52.2733 104.131 52.2624 104.273C52.2624 104.415 52.1422 104.525 52.0001 104.514C35.7925 103.956 33.4974 107.596 32.317 112.044L21.7706 151.497C20.9619 154.546 21.5957 157.727 23.5192 160.229C25.4427 162.732 28.3498 164.164 31.5083 164.164H46.8307C46.9728 164.164 47.0821 164.273 47.0821 164.415C47.093 164.546 46.9837 164.667 46.8416 164.667Z" fill="black"/>
<path d="M50.2841 164.634H13.8251C10.8087 164.634 8.17479 162.601 7.39884 159.694L0.611953 134.153C-0.51373 129.935 2.67753 125.792 7.03818 125.792H43.4972C46.5136 125.792 49.1475 127.825 49.9234 130.732L56.7103 156.273C57.8251 160.503 54.6447 164.634 50.2841 164.634Z" fill="#4D718C"/>
<path d="M50.2843 164.896H13.8252C10.6996 164.896 7.9564 162.787 7.14765 159.76L0.360768 134.219C-0.196609 132.131 0.240549 129.945 1.56295 128.24C2.88536 126.525 4.87443 125.541 7.03836 125.541H43.4974C46.6231 125.541 49.3662 127.65 50.175 130.678L56.9619 156.219C57.5192 158.306 57.0821 160.492 55.7597 162.197C54.4373 163.913 52.4373 164.896 50.2843 164.896ZM7.03836 126.044C5.03836 126.044 3.19137 126.951 1.96732 128.546C0.743281 130.131 0.33891 132.153 0.852571 134.087L7.63946 159.628C8.38263 162.426 10.9291 164.383 13.8252 164.383H50.2843C52.2843 164.383 54.1313 163.475 55.3553 161.88C56.5793 160.295 56.9837 158.273 56.4701 156.339L49.6832 130.798C48.94 128 46.3936 126.044 43.4974 126.044H7.03836Z" fill="black"/>
<path d="M131.705 156.689L138.896 130.689C139.672 127.771 142.306 125.672 145.322 125.672H162.065C164.371 125.672 166.382 124.12 166.973 121.902L170.361 109.148C171.082 106.426 173.432 104.47 176.186 104.219H177.617C184.754 104.098 188.743 109.945 187.836 116.077L183.158 133.749C183.136 133.88 183.104 134.011 183.06 134.142L176.732 157.88C175.628 161.814 171.3 165.071 167.705 165.071H138.12C133.77 165.082 130.579 160.918 131.705 156.689Z" fill="#4D718C"/>
<path d="M167.716 165.334H138.131C135.978 165.334 133.989 164.35 132.666 162.634C131.344 160.907 130.907 158.722 131.464 156.634L138.656 130.634C139.464 127.574 142.207 125.432 145.333 125.432H162.076C164.262 125.432 166.175 123.957 166.743 121.847L170.131 109.093C170.874 106.284 173.311 104.23 176.175 103.978H177.628C180.874 103.924 183.738 105.115 185.683 107.334C187.705 109.64 188.59 112.842 188.109 116.12C188.109 116.131 188.109 116.142 188.098 116.153L183.421 133.825C183.399 133.946 183.366 134.088 183.322 134.219L176.994 157.957C175.88 161.88 171.552 165.334 167.716 165.334ZM131.945 156.754C131.431 158.7 131.836 160.722 133.06 162.317C134.284 163.902 136.131 164.82 138.12 164.82H167.705C171.278 164.82 175.453 161.487 176.481 157.814L182.809 134.077C182.841 133.946 182.874 133.825 182.896 133.694L187.574 116.022C188.033 112.896 187.191 109.847 185.268 107.65C183.421 105.552 180.699 104.416 177.595 104.47H176.164C173.53 104.7 171.278 106.612 170.59 109.202L167.202 121.957C166.579 124.284 164.459 125.913 162.054 125.913H145.311C142.426 125.913 139.88 127.891 139.125 130.732L131.945 156.754Z" fill="black"/>
<path d="M6.90688 125.869H12.4588C15.4752 125.869 18.1091 127.967 18.885 130.885L25.9014 157.41H131.53L138.579 130.885C139.355 127.967 141.989 125.869 145.005 125.869H150.557C154.929 125.869 158.109 129.978 156.983 134.197L150.197 159.738C149.421 162.656 146.787 164.677 143.77 164.677H13.6938C10.4369 164.448 8.04349 162.645 7.26754 159.727L0.480651 134.207C-0.645032 129.978 2.5353 125.869 6.90688 125.869Z" fill="#99D4FF"/>
<path d="M143.77 164.929H13.694C10.306 164.689 7.81418 162.776 7.01637 159.792L0.240415 134.273C-0.316962 132.186 0.120196 130.022 1.43167 128.317C2.74315 126.601 4.74315 125.628 6.91801 125.628H12.459C15.5737 125.628 18.3169 127.77 19.1366 130.831L26.0983 157.169H131.333L138.328 130.831C139.148 127.77 141.891 125.628 145.005 125.628H150.557C152.721 125.628 154.721 126.612 156.044 128.317C157.355 130.022 157.792 132.197 157.235 134.273L150.448 159.814C149.639 162.82 146.896 164.929 143.77 164.929ZM6.90708 126.12C4.89615 126.12 3.04916 127.027 1.82511 128.612C0.612 130.186 0.207628 132.208 0.721289 134.131L7.50817 159.65C8.25134 162.448 10.5136 164.186 13.7049 164.415H143.76C146.656 164.415 149.202 162.459 149.945 159.672L156.732 134.131C157.246 132.208 156.841 130.186 155.628 128.612C154.404 127.027 152.557 126.12 150.546 126.12H144.994C142.109 126.12 139.563 128.109 138.809 130.951L131.76 157.475C131.727 157.585 131.628 157.661 131.519 157.661H25.9016C25.7814 157.661 25.683 157.585 25.6612 157.475L18.6448 130.951C17.8907 128.109 15.3442 126.12 12.459 126.12H6.90708Z" fill="black"/>
<path d="M50.2075 165.038H13.6938C10.3059 164.798 7.82498 162.863 7.01624 159.847L0.240285 134.35C-0.306163 132.273 0.120067 130.109 1.42061 128.415C2.73209 126.71 4.73209 125.727 6.90695 125.727H12.4589C15.5736 125.727 18.3168 127.869 19.1365 130.929L23.3004 145.672C23.3332 145.803 23.2567 145.945 23.1255 145.989C22.9944 146.022 22.8523 145.945 22.8086 145.814L18.6447 131.071C17.8906 128.218 15.3441 126.24 12.4589 126.24H6.90695C4.89602 126.24 3.0381 127.147 1.81406 128.732C0.61187 130.306 0.207498 132.306 0.72116 134.229L7.50804 159.727C8.25121 162.524 10.5682 164.328 13.7048 164.546H50.1966C50.3386 164.546 50.4479 164.656 50.4479 164.798C50.4479 164.94 50.3496 165.038 50.2075 165.038Z" fill="black"/>
<path d="M25.8905 157.41H131.246C133.781 157.41 135.836 155.355 135.836 152.82V149.672C135.836 147.137 133.781 145.082 131.246 145.082H25.8905C23.3549 145.082 21.3003 147.137 21.3003 149.672V152.82C21.3003 155.355 23.3549 157.41 25.8905 157.41Z" fill="#99D4FF"/>
<path d="M131.246 157.672H25.8905C23.2129 157.672 21.0381 155.497 21.0381 152.82V149.672C21.0381 146.995 23.2129 144.82 25.8905 144.82H131.246C133.923 144.82 136.098 146.995 136.098 149.672V152.82C136.098 155.497 133.923 157.672 131.246 157.672ZM25.8905 145.333C23.4971 145.333 21.5517 147.279 21.5517 149.672V152.82C21.5517 155.213 23.4971 157.159 25.8905 157.159H131.246C133.639 157.159 135.585 155.213 135.585 152.82V149.672C135.585 147.279 133.639 145.333 131.246 145.333H25.8905Z" fill="black"/>
<path d="M126.885 118.47L100.623 117.191C99.4424 117.136 98.4042 117.967 98.2074 119.136L94.3277 142.557C94.0872 143.989 95.202 145.278 96.6555 145.268L123.803 144.983C124.962 144.972 125.934 144.12 126.087 142.972L129.082 121.115C129.268 119.759 128.251 118.535 126.885 118.47Z" fill="#4D718C"/>
<path d="M96.6227 145.519C95.8686 145.519 95.1582 145.191 94.6664 144.612C94.1637 144.033 93.956 143.268 94.0762 142.514L97.956 119.093C98.1746 117.803 99.3112 116.874 100.634 116.94L126.896 118.218C127.617 118.251 128.295 118.59 128.754 119.147C129.213 119.705 129.421 120.437 129.322 121.147L126.328 143.005C126.153 144.262 125.071 145.224 123.792 145.235L96.6445 145.519C96.6445 145.519 96.6336 145.519 96.6227 145.519ZM100.502 117.443C99.497 117.443 98.6227 118.175 98.4588 119.18L94.579 142.601C94.4806 143.213 94.6555 143.825 95.0489 144.295C95.4533 144.765 96.0216 145.027 96.6445 145.016L123.792 144.732C124.808 144.721 125.683 143.945 125.825 142.94L128.819 121.082C128.896 120.503 128.732 119.923 128.36 119.475C127.989 119.027 127.453 118.754 126.863 118.732L100.601 117.453C100.568 117.443 100.535 117.443 100.502 117.443Z" fill="black"/>
<path d="M122.71 141.814C122.699 141.814 122.688 141.814 122.677 141.814C122.535 141.803 122.437 141.672 122.459 141.53L124.808 121.464C124.819 121.322 124.95 121.224 125.092 121.246C125.235 121.257 125.333 121.388 125.311 121.53L122.961 141.595C122.939 141.727 122.83 141.814 122.71 141.814Z" fill="black"/>
<path d="M142.12 165.038H48.6117C48.4696 165.038 48.3604 164.929 48.3604 164.787C48.3604 164.644 48.4696 164.535 48.6117 164.535H142.12C142.262 164.535 142.371 164.644 142.371 164.787C142.371 164.929 142.251 165.038 142.12 165.038Z" fill="black"/>
<path d="M197.595 174.83L197.223 182.207L192.622 183.037L192.207 174.338L197.595 174.83Z" fill="#FFDBC5"/>
<path d="M192.623 183.289C192.568 183.289 192.513 183.267 192.47 183.234C192.415 183.191 192.382 183.125 192.371 183.048L191.967 174.349C191.967 174.273 191.989 174.207 192.043 174.152C192.098 174.098 192.174 174.076 192.24 174.087L197.628 174.579C197.759 174.589 197.868 174.71 197.858 174.841L197.486 182.218C197.475 182.338 197.398 182.436 197.278 182.458L192.677 183.289C192.644 183.289 192.633 183.289 192.623 183.289ZM192.48 174.622L192.863 182.742L196.983 181.999L197.333 175.07L192.48 174.622Z" fill="black"/>
<path d="M192.491 195.847C194.437 196.032 197.606 196.12 201.3 195.366C202.513 195.114 203.257 193.814 202.907 192.546C201.923 189.027 200.196 182.349 197.628 179.344L197.104 181.071L196.196 179.519C196.076 179.311 195.858 179.169 195.628 179.147L194.382 178.994C194 178.961 193.661 179.256 193.595 179.661L193.377 181.147L192.065 179.246L190.612 193.442C190.524 194.666 191.366 195.737 192.491 195.847Z" fill="white"/>
<path d="M195.235 196.229C194.164 196.229 193.235 196.174 192.459 196.098C191.202 195.978 190.262 194.786 190.361 193.442L191.814 179.246C191.825 179.136 191.902 179.049 192 179.027C192.098 179.005 192.208 179.038 192.273 179.125L193.213 180.491L193.333 179.639C193.41 179.103 193.88 178.721 194.382 178.765L195.639 178.918C195.945 178.939 196.229 179.125 196.393 179.409L197.005 180.459L197.355 179.289C197.377 179.202 197.453 179.136 197.541 179.114C197.628 179.093 197.727 179.125 197.781 179.202C200.208 182.043 201.891 188.109 202.896 191.737L203.104 192.491C203.3 193.191 203.202 193.934 202.831 194.546C202.481 195.114 201.945 195.497 201.311 195.628C199.06 196.076 196.973 196.229 195.235 196.229ZM192.251 179.978L190.874 193.486C190.798 194.546 191.53 195.497 192.514 195.595C194.492 195.781 197.617 195.858 201.246 195.114C201.738 195.016 202.153 194.71 202.426 194.262C202.721 193.77 202.809 193.169 202.645 192.612L202.437 191.847C201.486 188.415 199.923 182.765 197.716 179.879L197.333 181.147C197.3 181.246 197.224 181.311 197.115 181.322C197.016 181.333 196.918 181.289 196.863 181.202L195.956 179.65C195.88 179.508 195.738 179.42 195.585 179.409L194.328 179.256C194.087 179.235 193.869 179.431 193.825 179.705L193.606 181.191C193.596 181.289 193.519 181.377 193.41 181.399C193.311 181.42 193.202 181.377 193.147 181.3L192.251 179.978Z" fill="black"/>
<path d="M196.678 193.803C194.109 193.803 192.164 193.333 192.044 193.3C191.913 193.267 191.825 193.125 191.858 192.994C191.891 192.863 192.033 192.775 192.164 192.808C192.208 192.819 197.027 193.989 201.508 192.633C201.639 192.59 201.781 192.666 201.825 192.808C201.869 192.939 201.792 193.081 201.65 193.125C199.934 193.639 198.197 193.803 196.678 193.803Z" fill="black"/>
<path d="M194.262 188.338C194.12 188.338 194.011 188.229 194.011 188.087C194.011 187.945 194.12 187.835 194.262 187.825L198.612 187.748C198.743 187.748 198.863 187.857 198.874 187.999C198.874 188.141 198.765 188.251 198.623 188.262L194.262 188.338Z" fill="black"/>
<path d="M175.727 173.87L175.541 187.618L169.978 187.924L169.213 174.219L175.727 173.87Z" fill="#FFDBC5"/>
<path d="M169.978 188.176C169.847 188.176 169.738 188.066 169.727 187.935L168.962 174.241C168.962 174.176 168.984 174.11 169.027 174.055C169.071 174.001 169.137 173.979 169.202 173.968L175.727 173.618C175.793 173.618 175.869 173.64 175.913 173.684C175.967 173.727 175.989 173.804 175.989 173.87L175.803 187.618C175.803 187.749 175.694 187.859 175.563 187.87L169.989 188.176C169.978 188.176 169.978 188.176 169.978 188.176ZM169.476 174.46L170.208 187.651L175.29 187.378L175.476 174.132L169.476 174.46Z" fill="black"/>
<path d="M177.781 194.197C177.847 195.213 177.279 196.372 176.328 196.415C170.24 196.689 157.235 197.465 156.033 194.645C155.169 192.634 156.874 191.333 161.049 188.787C164.36 186.765 167.311 184.284 168.601 184.022C169.891 183.76 172.503 187.661 172.503 187.661L176.382 185.661C176.382 185.661 177.464 189.06 177.781 194.197Z" fill="white"/>
<path d="M166.623 196.973C161.06 196.973 156.546 196.492 155.803 194.754C154.82 192.448 156.994 190.973 160.918 188.579C162.24 187.771 163.508 186.885 164.634 186.109C166.372 184.907 167.738 183.945 168.557 183.782C169.836 183.519 171.934 186.383 172.59 187.344L176.262 185.454C176.328 185.421 176.404 185.421 176.481 185.443C176.546 185.476 176.601 185.53 176.623 185.596C176.634 185.629 177.716 189.082 178.033 194.186C178.076 194.907 177.836 195.661 177.41 196.142C177.115 196.47 176.743 196.656 176.339 196.678L175.3 196.721C172.372 196.853 169.366 196.973 166.623 196.973ZM168.743 184.262C168.71 184.262 168.678 184.262 168.656 184.273C167.934 184.415 166.535 185.388 164.918 186.525C163.792 187.312 162.514 188.197 161.18 189.017C156.841 191.661 155.53 192.831 156.262 194.558C157.333 197.06 169.443 196.492 175.268 196.219L176.306 196.175C176.568 196.164 176.809 196.044 177.016 195.814C177.355 195.443 177.552 194.82 177.519 194.23C177.268 190.033 176.481 186.973 176.219 186.044L172.612 187.902C172.503 187.956 172.361 187.924 172.284 187.814C171.355 186.405 169.607 184.262 168.743 184.262Z" fill="black"/>
<path d="M166.361 194.809C162.83 194.809 159.366 194.557 158.055 193.65C157.934 193.574 157.912 193.41 157.989 193.301C158.065 193.18 158.229 193.159 158.339 193.235C161.158 195.18 175.563 193.869 175.705 193.858C175.847 193.847 175.967 193.945 175.978 194.088C175.989 194.23 175.891 194.35 175.749 194.361C175.421 194.394 170.841 194.809 166.361 194.809Z" fill="black"/>
<path d="M167.912 191.301C167.858 191.301 167.792 191.279 167.748 191.235L164.787 188.645C164.677 188.557 164.666 188.393 164.765 188.284C164.852 188.175 165.016 188.164 165.125 188.262L168.087 190.852C168.196 190.94 168.207 191.104 168.109 191.213C168.054 191.268 167.989 191.301 167.912 191.301Z" fill="black"/>
<path d="M180.983 106.83C180.983 106.83 202.207 107.464 200.021 100.273C198.622 95.7047 183.267 100.043 178.786 101.508C178.021 101.759 159.912 100.011 159.912 100.011L164.819 109.934L180.983 106.83Z" fill="#FFF597"/>
<path d="M164.819 110.197C164.721 110.197 164.634 110.142 164.59 110.055L159.683 100.131C159.639 100.044 159.65 99.9452 159.705 99.8797C159.759 99.8031 159.847 99.7594 159.934 99.7704C167.114 100.459 178.032 101.442 178.71 101.279C179.333 101.071 194.218 96.2512 198.907 98.6884C199.606 99.049 200.065 99.5627 200.262 100.208C200.601 101.311 200.437 102.306 199.77 103.169C196.502 107.442 181.956 107.115 181.005 107.082L164.863 110.186C164.841 110.197 164.83 110.197 164.819 110.197ZM160.328 100.317L164.951 109.661L180.929 106.59C180.95 106.59 180.961 106.59 180.983 106.59C181.136 106.59 196.218 106.994 199.366 102.874C199.923 102.142 200.065 101.311 199.77 100.361C199.617 99.8469 199.257 99.4425 198.666 99.1365C195.071 97.2676 184.524 99.9124 178.852 101.759C178.109 102 164.185 100.688 160.328 100.317Z" fill="black"/>
<path d="M195.53 99.5083C195.53 99.5083 199.006 134.426 200.448 145.935C201.891 157.443 199.749 176.175 199.749 176.175L191.126 176.153C191.126 176.153 189.814 158.241 188.863 149.935C188.689 148.361 188.262 146.831 187.628 145.388C186.35 142.47 184.077 136.82 183.071 131.552C181.639 124.033 177.41 112.251 177.41 112.251C177.41 112.251 177.246 174.328 177.18 179.038C177.18 179.038 170.459 179.727 167.956 178.23C167.956 178.23 162.645 154.525 162.71 142.634C162.765 130.743 160.71 101.323 160.71 101.323L195.53 99.5083Z" fill="black"/>
<path d="M153.038 56.6338C153.038 56.6338 146.557 60.6775 143.475 68.9179C140.393 77.1584 139.836 76.6666 136.502 78.2513C133.169 79.8469 130.677 80.3278 130.677 80.3278L131.158 86.7321C131.158 86.7321 146.907 87.5737 154.382 77.4535C161.858 67.3332 153.038 56.6338 153.038 56.6338Z" fill="#FFDBC5"/>
<path d="M131.934 87.0054C131.442 87.0054 131.147 86.9945 131.136 86.9945C131.005 86.9835 130.907 86.8852 130.896 86.765L130.415 80.3606C130.404 80.2294 130.491 80.1201 130.623 80.0874C130.644 80.0874 133.136 79.5846 136.393 78.0327C136.721 77.8797 137.027 77.7376 137.3 77.6065C139.814 76.4699 140.491 76.1639 143.235 68.8305C146.306 60.6119 152.841 56.4589 152.907 56.4262C153.016 56.3606 153.158 56.3824 153.235 56.4808C153.322 56.5901 155.475 59.2349 156.743 63.1803C157.912 66.8305 158.491 72.295 154.568 77.6174C148.076 86.4043 135.257 87.0054 131.934 87.0054ZM131.377 86.4917C133.311 86.5354 147.333 86.5573 154.153 77.3114C160.896 68.1748 154.054 58.4152 152.972 56.9835C151.879 57.7267 146.415 61.7376 143.705 69.0163C140.896 76.5464 140.109 76.8961 137.508 78.0764C137.235 78.1967 136.929 78.3387 136.612 78.4917C133.814 79.8251 131.628 80.3824 130.94 80.5464L131.377 86.4917Z" fill="black"/>
<path d="M160.24 50.6449C169.661 50.4154 176.295 50.0001 177.639 49.9127V49.8799C177.694 49.8799 177.76 49.8908 177.814 49.9017C177.869 49.9017 177.891 49.9017 177.891 49.9017C177.891 49.9017 177.902 49.9127 177.923 49.9127C178.994 50.022 180.055 50.1859 181.115 50.4263C192.951 53.0602 200.437 64.787 198.197 76.6996L196.393 85.8471L192.295 84.4482C195.005 92.9619 199.749 99.7269 199.749 99.7269C199.749 99.7269 198.437 97.9782 193.891 101.432C189.65 104.645 185.727 107.06 176.896 107.148C168.918 107.224 164.12 106.404 161.399 105.629C159.596 105.115 158.448 103.355 158.732 101.497C159.137 98.8198 159.628 94.634 159.541 90.6558C159.41 85.0821 155.563 74.6668 155.563 74.6668C155.563 74.6668 143.235 69.399 142.404 62.5465C142.393 62.5356 148.885 50.9181 160.24 50.6449Z" fill="#FFF597"/>
<path d="M175.924 107.377C168.361 107.377 163.825 106.557 161.333 105.847C159.41 105.3 158.186 103.41 158.481 101.432C158.896 98.6666 159.377 94.5463 159.29 90.6338C159.169 85.4534 155.76 75.9234 155.366 74.8305C154.098 74.2731 142.962 69.2239 142.153 62.5463C142.142 62.4917 142.153 62.4371 142.186 62.3933C142.251 62.2731 148.874 50.6447 160.251 50.3715C169.432 50.1529 176.022 49.7485 177.519 49.6502C177.563 49.6174 177.618 49.6065 177.672 49.6174L177.836 49.6392H177.891C177.934 49.6392 177.978 49.6392 178.011 49.6611C179.082 49.7704 180.142 49.9452 181.18 50.1748C186.951 51.4644 191.913 54.9289 195.158 59.9452C198.383 64.9289 199.552 70.8961 198.459 76.7431L196.656 85.8906C196.645 85.9671 196.601 86.0218 196.536 86.0655C196.47 86.0983 196.393 86.1092 196.328 86.0873L192.71 84.8524C195.399 93.0163 199.924 99.5081 199.967 99.5737C200.044 99.683 200.022 99.8469 199.913 99.9234C199.803 99.9999 199.639 99.978 199.563 99.8687C199.552 99.8578 198.306 98.4043 194.066 101.617C189.825 104.83 185.869 107.3 176.918 107.377C176.568 107.377 176.24 107.377 175.924 107.377ZM142.656 62.5791C143.552 69.1693 155.53 74.3606 155.65 74.4152C155.716 74.448 155.76 74.4917 155.792 74.5573C155.945 74.9835 159.65 85.0709 159.781 90.6228C159.88 94.5682 159.399 98.7212 158.973 101.508C158.71 103.224 159.781 104.885 161.465 105.355C164.033 106.087 168.798 106.94 176.896 106.863C185.683 106.787 189.574 104.361 193.738 101.202C196.404 99.1802 198.011 98.907 198.896 99.0272C198.94 99.0381 198.973 99.0381 199.016 99.0491C197.694 97.0054 194.219 91.2786 192.066 84.5026C192.033 84.4152 192.066 84.3059 192.131 84.2403C192.197 84.1748 192.295 84.1529 192.393 84.1857L196.219 85.4972L197.967 76.6338C200.208 64.6775 192.798 53.2677 181.082 50.6666C180.055 50.4371 178.995 50.2731 177.924 50.1638C177.902 50.1638 177.891 50.1638 177.869 50.1529H177.858C177.847 50.1529 177.825 50.1529 177.814 50.1529L177.76 50.142C177.738 50.1529 177.705 50.1638 177.683 50.1638C176.437 50.2513 169.727 50.6666 160.273 50.8961C149.628 51.1474 143.224 61.6174 142.656 62.5791Z" fill="black"/>
<path d="M176.798 79.0385C176.743 79.0385 176.689 79.0167 176.634 78.9839C176.525 78.8964 176.514 78.7325 176.601 78.6232C179.716 74.7981 178.044 64.3391 178.022 64.2298C178 64.0877 178.088 63.9565 178.23 63.9347C178.372 63.9128 178.503 64.0112 178.525 64.1423C178.601 64.5795 180.252 74.9402 176.995 78.9402C176.951 79.0057 176.874 79.0385 176.798 79.0385Z" fill="black"/>
<path d="M172.306 50.0875L168.667 38.2515L161.093 42.2733L163.279 49.7487C163.585 50.8307 163.126 51.9892 162.153 52.5684L161.279 53.0821C160.831 53.3444 160.951 54.0329 161.476 54.1203L165.476 54.7651C169.301 55.3881 173.235 54.7323 176.656 52.8963C177.148 52.634 177.06 51.9017 176.525 51.7597C174.875 51.3225 172.47 50.6012 172.306 50.0875Z" fill="#FFDBC5"/>
<path d="M168.273 55.246C167.322 55.246 166.372 55.1695 165.432 55.0165L161.432 54.3717C161.093 54.317 160.831 54.0547 160.765 53.7159C160.699 53.3771 160.852 53.0383 161.148 52.8635L162.022 52.3498C162.896 51.8361 163.311 50.7979 163.038 49.8143L160.852 42.3389C160.82 42.2187 160.874 42.0984 160.973 42.0438L168.546 38.0219C168.612 37.9892 168.689 37.9782 168.765 38.011C168.831 38.0438 168.885 38.0984 168.907 38.1749L172.546 50.011C172.568 50.0657 172.907 50.5356 176.579 51.5192C176.929 51.6176 177.169 51.9017 177.213 52.2624C177.257 52.623 177.071 52.9618 176.765 53.1258C174.153 54.5247 171.213 55.246 168.273 55.246ZM161.399 42.4045L163.519 49.6831C163.858 50.8853 163.344 52.164 162.273 52.787L161.399 53.3006C161.224 53.399 161.246 53.5739 161.257 53.6176C161.268 53.6722 161.311 53.8361 161.508 53.8689L165.508 54.5137C169.257 55.1258 173.169 54.47 176.525 52.6777C176.721 52.5684 176.721 52.3717 176.71 52.317C176.699 52.2624 176.667 52.0657 176.448 52.011C172.295 50.8963 172.131 50.3826 172.066 50.164L168.514 38.623L161.399 42.4045Z" fill="black"/>
<path d="M154.743 28.1749C156.896 27.6721 154.536 30.3716 162.175 26.6448C165.213 25.1585 164.219 29.1694 165.016 28.7869C167.934 27.3771 168.153 26.9946 169.716 27.1257C170.754 27.2131 172.273 29.0055 172.164 30.3935C171.825 34.9399 171.18 33.9454 170.492 37.9782C170.011 40.8088 169.399 41.7486 168.393 42.3279C167.377 42.9071 166.328 41.5956 165.169 42.1421C163.672 42.8525 164.437 45.5191 163.093 46.918C162.251 47.7924 160.055 48.5137 156.164 47.388C155.53 47.2022 155.126 46.5902 155.191 45.9344C155.279 45.0929 155.388 44.0328 155.585 43.0273C156.514 38.2295 157.945 36.929 157.169 35.8689C155.978 34.2295 152.754 35.847 151.945 34.47C151.126 33.0383 151.803 28.8634 154.743 28.1749Z" fill="black"/>
<path d="M163.628 34.6339L163.202 35.9017C163.005 36.5028 162.842 37.1039 162.721 37.7268C162.503 38.8853 162.044 40.8634 161.803 41.9782C161.016 45.5519 156.284 42.5902 156.284 42.5902L155.847 41.7159L155.257 41.5847C155.148 41.5629 155.027 41.5082 154.951 41.4317C154.732 41.235 154.678 40.929 154.798 40.6776C155.421 39.3115 156.688 36.2732 156.896 33.7049C156.874 33.694 160.262 32.1749 163.628 34.6339Z" fill="#FFDBC5"/>
<path d="M159.694 43.9889C158.066 43.9889 156.23 42.8523 156.142 42.7976C156.098 42.7758 156.077 42.743 156.055 42.6993L155.672 41.9342L155.202 41.8249C155.038 41.7922 154.885 41.7157 154.776 41.6064C154.481 41.3441 154.404 40.9178 154.557 40.5681C155.115 39.355 156.426 36.2512 156.634 33.6829C156.645 33.5954 156.699 33.508 156.787 33.4752C156.929 33.4096 160.35 31.9233 163.781 34.437C163.869 34.5025 163.913 34.6228 163.869 34.7211L163.443 35.9889C163.246 36.5681 163.093 37.1692 162.973 37.7812C162.809 38.6228 162.525 39.9233 162.295 40.9616C162.208 41.355 162.12 41.7266 162.055 42.0326C161.858 42.9288 161.41 43.5189 160.732 43.814C160.404 43.9342 160.055 43.9889 159.694 43.9889ZM156.47 42.4042C156.863 42.6337 159.137 43.9233 160.525 43.3331C161.049 43.1146 161.388 42.6446 161.541 41.9124C161.607 41.6064 161.694 41.2348 161.781 40.8413C162.011 39.8031 162.306 38.5135 162.459 37.6719C162.579 37.049 162.743 36.426 162.951 35.814L163.322 34.732C160.536 32.7976 157.749 33.6501 157.115 33.8796C156.874 36.4042 155.694 39.2785 155.005 40.7867C154.929 40.9397 154.973 41.1255 155.104 41.2457C155.148 41.2894 155.213 41.3222 155.301 41.3331L155.891 41.4643C155.967 41.4752 156.033 41.5299 156.066 41.5954L156.47 42.4042Z" fill="black"/>
<path d="M163.421 38.8307C163.421 38.8307 164.448 35.7925 165.727 36.5466C167.006 37.2897 165.792 40.6121 163.421 38.8307Z" fill="#FFDBC5"/>
<path d="M126.175 81.7597C126.175 81.7597 125.672 74.645 129.825 74.2953C133.978 73.9455 134.852 76.798 134.852 76.798C134.852 76.798 134.984 71.9455 138.415 70.9729C142.995 69.6723 145.519 74.2953 145.519 74.2953C145.519 74.2953 147.071 72.5248 148.929 72.9838C150.787 73.4428 153.104 76.2078 154.328 81.7597H126.175Z" fill="#FBBE21"/>
<path d="M154.328 82.0109H126.164C126.033 82.0109 125.923 81.9126 125.912 81.7705C125.891 81.4645 125.442 74.4044 129.803 74.0328C132.688 73.7923 134.076 75.0492 134.677 75.9235C134.885 74.4371 135.65 71.4754 138.339 70.7104C142.371 69.5628 144.896 72.8634 145.563 73.8688C146.087 73.377 147.421 72.3279 148.994 72.7213C150.841 73.1803 153.279 75.7814 154.579 81.683C154.601 81.7595 154.579 81.8361 154.524 81.9016C154.481 81.9781 154.404 82.0109 154.328 82.0109ZM126.415 81.5082H154.011C152.743 76.0328 150.459 73.6284 148.874 73.235C147.18 72.8197 145.727 74.4481 145.716 74.459C145.661 74.5246 145.585 74.5574 145.497 74.5464C145.41 74.5355 145.344 74.4918 145.3 74.4153C145.202 74.2295 142.809 69.9781 138.481 71.2131C135.268 72.1311 135.104 76.765 135.104 76.8087C135.104 76.9289 135.005 77.0382 134.885 77.0492C134.765 77.0601 134.645 76.9945 134.612 76.8743C134.579 76.765 133.738 74.2186 129.847 74.5464C126.393 74.8415 126.371 80.2951 126.415 81.5082Z" fill="black"/>
<path d="M154.142 87.5301H125.224L122 79.3662H157.377L154.142 87.5301Z" fill="black"/>
<path d="M123.629 83.8908L124.645 86.4482L131.071 85.2679C132.109 85.1039 133.115 85.8143 133.224 86.8526C133.312 87.6285 133.104 88.5247 132.109 89.2569C130.951 90.1203 127.366 91.4099 124.481 91.9345C121.257 92.5247 121.017 87.858 121.814 85.5301C122.426 83.7159 123.629 83.8908 123.629 83.8908Z" fill="#FFDBC5"/>
<path d="M123.935 92.2404C123.213 92.2404 122.59 91.9672 122.131 91.4317C120.853 89.9453 121.038 86.9836 121.563 85.4535C122.241 83.4535 123.596 83.6393 123.661 83.6393C123.749 83.6503 123.825 83.7158 123.858 83.7923L124.798 86.153L131.016 85.0054C131.607 84.9071 132.208 85.0601 132.667 85.4207C133.115 85.7705 133.399 86.2623 133.465 86.8197C133.574 87.8688 133.159 88.7759 132.251 89.4535C131.027 90.3606 127.344 91.6612 124.514 92.1858C124.317 92.2186 124.12 92.2404 123.935 92.2404ZM123.454 84.1421C123.159 84.1748 122.47 84.3716 122.044 85.6175C121.541 87.1038 121.421 89.8251 122.514 91.1038C122.984 91.6393 123.618 91.847 124.415 91.694C127.18 91.1803 130.765 89.9235 131.935 89.0601C132.7 88.4918 133.038 87.7595 132.94 86.8852C132.896 86.4699 132.678 86.0983 132.339 85.8361C131.978 85.5628 131.519 85.4535 131.082 85.5191L124.656 86.6994C124.536 86.7213 124.415 86.6557 124.372 86.5464L123.454 84.1421Z" fill="black"/>
<path d="M178.754 79.9346C178.175 81.3881 177.377 82.4592 176.809 83.1695C175.027 85.399 171.836 85.869 167.628 86.3389C161.41 87.0275 158.186 86.5247 154.306 86.3827C149.224 86.1969 147.235 81.0165 146.295 80.8635C144.317 80.5466 146 85.7925 146 85.7925C146.24 86.1204 146.087 86.5903 145.705 86.7215C145.705 86.7215 143.453 88.2078 141.497 87.2023L139.453 85.8362C138.82 85.6613 138.12 85.9674 137.88 86.5794C137.781 86.8417 137.803 87.5411 137.891 87.8253C138.208 88.94 138.546 92.8198 143.399 93.41C147.104 93.8581 149.213 91.5958 150.645 91.4974C151.683 91.4209 163.967 97.3007 176.962 94.6449C180.831 93.8581 183.366 92.9728 186.022 91.2242C188.743 89.4209 190.514 86.8635 191.661 84.2187L178.754 79.9346Z" fill="#FFDBC5"/>
<path d="M169.879 95.5959C162.251 95.5959 155.672 93.3773 152.426 92.2844C151.606 92.0112 150.83 91.7489 150.666 91.7598C150.229 91.7926 149.672 92.0768 149.038 92.3937C147.716 93.0604 145.89 93.9784 143.377 93.6724C138.852 93.1259 138.087 89.7598 137.759 88.3281C137.726 88.1642 137.694 88.0221 137.661 87.9019C137.573 87.585 137.53 86.8199 137.661 86.4921C137.934 85.7817 138.754 85.3882 139.53 85.5959C139.552 85.6068 139.584 85.6177 139.606 85.6287L141.639 86.9839C143.431 87.891 145.552 86.5249 145.573 86.503C145.595 86.4921 145.606 86.4811 145.628 86.4702C145.737 86.4374 145.814 86.35 145.847 86.2407C145.879 86.1314 145.858 86.0221 145.792 85.9347C145.781 85.9128 145.759 85.891 145.759 85.8582C145.628 85.4647 144.535 81.9347 145.431 80.8964C145.584 80.7216 145.858 80.5249 146.338 80.6014C146.71 80.656 147.06 81.115 147.628 81.8582C148.819 83.4101 150.819 86.0003 154.317 86.1205C155.202 86.1533 156.065 86.2079 156.907 86.2516C159.814 86.4265 162.819 86.6014 167.595 86.0768C171.803 85.6177 174.907 85.1259 176.612 83.0057C177.213 82.2516 177.978 81.2134 178.524 79.8363C178.579 79.7161 178.71 79.6505 178.841 79.6943L191.759 83.9784C191.825 84.0003 191.879 84.0549 191.912 84.1205C191.945 84.1861 191.945 84.2626 191.912 84.3281C190.568 87.421 188.634 89.8145 186.175 91.4429C183.639 93.1259 181.158 94.0549 177.027 94.9074C174.59 95.3992 172.185 95.5959 169.879 95.5959ZM150.666 91.2462C150.929 91.2462 151.431 91.4101 152.59 91.8035C156.765 93.2134 166.557 96.5139 176.918 94.4046C180.983 93.574 183.41 92.656 185.89 91.0167C188.196 89.4866 190.022 87.2571 191.322 84.3718L178.896 80.2516C178.338 81.574 177.595 82.5904 176.994 83.3227C175.169 85.5959 171.967 86.1096 167.639 86.5795C162.819 87.115 159.792 86.9292 156.863 86.7544C156.022 86.6997 155.158 86.656 154.284 86.6232C150.557 86.4921 148.47 83.7817 147.213 82.1642C146.841 81.6833 146.415 81.1259 146.24 81.1041C145.978 81.0604 145.869 81.1587 145.803 81.2243C145.267 81.8363 145.77 84.2626 146.218 85.6615C146.36 85.88 146.393 86.1423 146.317 86.3937C146.24 86.6451 146.054 86.8418 145.803 86.9292C145.519 87.1041 143.333 88.4265 141.377 87.4101C141.366 87.4101 141.355 87.3992 141.355 87.3992L139.344 86.0549C138.83 85.9347 138.295 86.197 138.12 86.656C138.054 86.8418 138.054 87.4757 138.131 87.7489C138.164 87.8691 138.196 88.0221 138.24 88.197C138.568 89.6396 139.257 92.6451 143.431 93.1478C145.792 93.432 147.464 92.5904 148.808 91.9238C149.497 91.574 150.098 91.2789 150.634 91.2352C150.645 91.2462 150.655 91.2462 150.666 91.2462Z" fill="black"/>
<path d="M37.7811 66.8855C38.1855 66.7216 39.639 66.2735 40.5243 64.9183C41.1581 63.9566 41.6281 62.361 40.9177 61.3883C40.7429 61.1478 40.0871 58.3391 37.3221 58.4593C33.8139 58.6014 30.9177 59.6615 30.9177 59.6615C25.2019 62.35 24.4806 67.9347 19.8248 70.514C13.8576 73.8254 10.9396 71.0058 8.34941 73.8473C4.14176 78.4702 5.74832 91.1478 14.0434 96.3172C19.65 99.8036 28.415 99.9129 32.3931 95.5303C38.8631 88.3828 32.9505 68.8637 37.7811 66.8855Z" fill="black"/>
<path d="M94.7643 180.154C94.7096 180.405 97.6058 193.673 97.6058 193.673L90.9391 192.558L88.9282 181.334L94.7643 180.154Z" fill="#FFDBC5"/>
<path d="M97.6056 193.924C97.5947 193.924 97.5729 193.924 97.5619 193.924L90.8953 192.809C90.786 192.787 90.7095 192.711 90.6876 192.602L88.6767 181.378C88.6548 181.247 88.7423 181.115 88.8734 181.083L94.7095 179.902C94.7969 179.88 94.8843 179.913 94.939 179.979C94.9936 180.033 95.0155 180.099 95.0046 180.175C95.0373 180.689 96.7204 188.481 97.8352 193.618C97.857 193.706 97.8242 193.782 97.7696 193.848C97.7368 193.891 97.6712 193.924 97.6056 193.924ZM91.1576 192.328L97.2778 193.356C95.2231 183.968 94.6876 181.257 94.5565 180.449L89.2231 181.531L91.1576 192.328Z" fill="black"/>
<path d="M93.8789 187.781C93.9555 187.257 94.1522 186.612 94.6877 186.087C95.4855 185.3 96.7095 185.136 97.7369 185.584C100.316 186.71 107.387 189.956 111.955 193.716C113.573 195.038 113.54 197.333 110.841 197.967C106.404 199.005 98.8844 198.94 91.6822 195.311C90.8516 194.896 90.2833 194.087 90.185 193.169C90.1085 192.415 90.0538 191.464 90.1522 190.535C90.2396 189.639 90.9828 188.951 91.8899 188.907L92.6986 188.863C93.3106 188.841 93.8024 188.382 93.8789 187.781Z" fill="#1094DE"/>
<path d="M105.333 198.798C101.212 198.798 96.3163 197.934 91.5622 195.53C90.6442 195.071 90.0431 194.196 89.9338 193.191C89.8245 192.207 89.8245 191.3 89.901 190.502C90.0103 189.486 90.8409 188.699 91.8682 188.655L92.6769 188.612C93.1578 188.59 93.5513 188.218 93.6168 187.737C93.7152 187.005 94.0212 186.371 94.4912 185.901C95.3327 185.071 96.6769 184.841 97.8245 185.344C100.6 186.557 107.551 189.77 112.098 193.508C113.016 194.262 113.442 195.311 113.223 196.251C113.005 197.213 112.163 197.901 110.874 198.196C109.333 198.579 107.431 198.798 105.333 198.798ZM96.5677 185.595C95.9228 185.595 95.3108 185.825 94.8627 186.273C94.4584 186.666 94.2179 187.191 94.1305 187.814C94.0321 188.535 93.431 189.093 92.7097 189.125L91.901 189.169C91.1141 189.213 90.4912 189.792 90.4037 190.568C90.3272 191.333 90.3382 192.207 90.4365 193.158C90.5239 193.989 91.0267 194.71 91.7917 195.093C98.8518 198.645 106.229 198.787 110.775 197.727C111.868 197.475 112.568 196.918 112.743 196.153C112.917 195.399 112.557 194.546 111.792 193.912C107.289 190.218 100.393 187.027 97.6387 185.825C97.289 185.672 96.9283 185.595 96.5677 185.595Z" fill="black"/>
<path d="M105.682 196.776C102.775 196.776 98.5458 196.099 92.5677 193.814C92.4365 193.76 92.3709 193.618 92.4256 193.487C92.4802 193.355 92.6223 193.29 92.7534 193.345C106.917 198.765 111.016 194.995 111.049 194.951C111.147 194.853 111.311 194.853 111.409 194.951C111.508 195.049 111.508 195.213 111.409 195.312C111.3 195.41 109.814 196.776 105.682 196.776Z" fill="black"/>
<path d="M103.059 192.776C103.027 192.776 102.983 192.765 102.95 192.754C102.83 192.688 102.775 192.535 102.83 192.415L104.327 189.366C104.393 189.246 104.546 189.191 104.666 189.246C104.786 189.311 104.841 189.464 104.786 189.585L103.289 192.634C103.245 192.721 103.158 192.776 103.059 192.776Z" fill="black"/>
<path d="M100.622 191.727C100.589 191.727 100.546 191.716 100.513 191.705C100.393 191.639 100.338 191.486 100.404 191.366L102.174 187.803C102.24 187.683 102.393 187.628 102.513 187.694C102.633 187.76 102.688 187.913 102.622 188.033L100.852 191.596C100.797 191.672 100.71 191.727 100.622 191.727Z" fill="black"/>
<path d="M66.3158 180.121C66.2721 180.219 65.9005 181.782 65.6054 184.405C65.1246 188.777 70.0207 192.831 70.0207 192.831L58.436 191.258L58.8841 181.137L66.3158 180.121Z" fill="#FFDBC5"/>
<path d="M70.0319 193.072C70.021 193.072 70.01 193.072 69.9991 193.072L58.4035 191.509C58.2723 191.487 58.174 191.378 58.1849 191.247L58.633 181.127C58.633 181.007 58.7314 180.908 58.8516 180.886L66.2942 179.859C66.3926 179.848 66.48 179.881 66.5346 179.957C66.5893 180.034 66.6002 180.121 66.5674 180.209C66.5237 180.329 66.163 181.804 65.8789 184.416C65.4199 188.602 70.1521 192.58 70.2068 192.613C70.2942 192.69 70.327 192.81 70.2723 192.908C70.2177 193.017 70.1303 193.072 70.0319 193.072ZM58.6986 191.039L69.2559 192.46C67.9335 191.192 64.9718 187.914 65.3652 184.373C65.5729 182.46 65.8352 181.072 65.9882 180.416L59.1248 181.356L58.6986 191.039Z" fill="black"/>
<path d="M61.1141 188.329C61.7917 188.099 61.6387 187.05 62.1961 186.558C63.0376 185.815 64.0868 185.826 65.0813 186.329C67.584 187.586 74.4146 191.214 78.7316 195.214C80.2616 196.624 80.0977 198.919 77.3655 199.411C72.8846 200.219 65.4201 199.771 58.4693 195.76C57.6715 195.301 57.1578 194.471 57.1141 193.542C57.0813 192.788 57.1141 190.274 57.2671 189.345C57.4092 188.449 58.1961 187.804 59.0922 187.804H59.901C60.5021 187.804 60.5349 188.515 61.1141 188.329Z" fill="#1094DE"/>
<path d="M73.3 200.001C68.9284 200.001 63.4858 198.952 58.3382 195.979C57.453 195.465 56.9065 194.558 56.8519 193.553C56.8191 192.777 56.8519 190.263 57.0049 189.301C57.1688 188.285 58.0431 187.553 59.0705 187.553C59.0705 187.553 59.0705 187.553 59.0814 187.553H59.8901C60.2836 187.553 60.5022 187.771 60.6552 187.924C60.8191 188.088 60.8737 188.132 61.0267 188.077C61.2672 188.001 61.3546 187.749 61.4858 187.345C61.5951 187.006 61.7153 186.624 62.0213 186.361C62.8847 185.596 64.0104 185.498 65.1907 186.099C67.8792 187.454 74.6005 191.039 78.8956 195.017C79.759 195.815 80.1196 196.886 79.8573 197.815C79.5841 198.766 78.7098 199.421 77.3983 199.651C76.1961 199.87 74.8082 200.001 73.3 200.001ZM59.0814 188.055C58.2945 188.055 57.6388 188.613 57.5185 189.378C57.3655 190.296 57.3328 192.788 57.3655 193.52C57.3983 194.361 57.8573 195.105 58.5896 195.531C65.3983 199.465 72.7207 199.979 77.3109 199.148C78.4147 198.952 79.147 198.427 79.3655 197.673C79.5841 196.93 79.2672 196.055 78.5459 195.389C74.2945 191.454 67.6278 187.891 64.9612 186.547C64.2617 186.197 63.2453 185.946 62.3601 186.733C62.1634 186.908 62.0759 187.192 61.9776 187.498C61.8464 187.913 61.6934 188.394 61.1907 188.558C60.7317 188.711 60.4803 188.449 60.3054 188.285C60.1524 188.143 60.065 188.055 59.8901 188.055H59.0814Z" fill="black"/>
<path d="M73.1909 197.979C70.2838 197.979 65.8685 197.181 59.4422 194.306C59.3111 194.252 59.2564 194.099 59.3111 193.968C59.3657 193.836 59.5187 193.782 59.6499 193.836C73.3439 199.968 77.7045 196.427 77.7482 196.394C77.8575 196.306 78.0105 196.317 78.1089 196.416C78.1963 196.525 78.1854 196.678 78.087 196.776C77.9777 196.864 76.6335 197.979 73.1909 197.979Z" fill="black"/>
<path d="M69.9556 193.804C69.9119 193.804 69.8682 193.793 69.8354 193.771C69.7151 193.705 69.6714 193.552 69.737 193.421L71.4091 190.449C71.4747 190.328 71.6277 190.285 71.7589 190.35C71.8791 190.416 71.9228 190.569 71.8572 190.7L70.1851 193.673C70.1304 193.76 70.043 193.804 69.9556 193.804Z" fill="black"/>
<path d="M67.5843 192.624C67.5406 192.624 67.4969 192.613 67.4532 192.591C67.3329 192.514 67.3001 192.361 67.3657 192.241L69.2564 189.137C69.3329 189.017 69.4859 188.984 69.6062 189.05C69.7264 189.126 69.7592 189.279 69.6936 189.4L67.8029 192.503C67.7592 192.58 67.6717 192.624 67.5843 192.624Z" fill="black"/>
<path d="M35.5949 126.23C35.5949 126.23 75.4966 127.334 79.9337 131.454C85.9446 137.05 96.2834 183.574 96.2834 183.574L86.3053 186.372C86.3053 186.372 71.2671 148.186 67.5403 148.186C63.8135 148.186 34.8408 140.875 34.8408 140.875L35.5949 126.23Z" fill="black"/>
<path d="M26.9175 127.814C26.9175 127.814 26.7426 140.918 31.0049 143.782C35.2672 146.645 60.7864 149.017 59.7153 148.656C58.6552 148.295 56.9722 174.383 56.9722 184.416L66.6443 184.787C66.6443 184.787 82.0541 144.437 80.3929 139.935C77.4202 131.88 55.0268 129.159 47.7044 128.077C46.1962 127.869 26.9175 127.814 26.9175 127.814Z" fill="black"/>
<path d="M75.289 162.088C75.2671 162.088 75.2343 162.088 75.2125 162.077C75.0813 162.033 75.0048 161.891 75.0485 161.76C75.3983 160.678 75.737 159.607 76.0758 158.558C78.7862 150.186 81.125 142.962 80.1524 140.022C79.3218 137.53 76.3381 135.399 71.2671 133.672C71.136 133.629 71.0595 133.487 71.1032 133.355C71.1469 133.224 71.289 133.148 71.4201 133.192C76.7207 134.984 79.7371 137.17 80.6332 139.858C81.6605 142.951 79.4092 149.902 76.5567 158.711C76.2179 159.76 75.8682 160.82 75.5294 161.913C75.4966 162.022 75.3983 162.088 75.289 162.088Z" fill="white"/>
<path d="M69.5081 113.913C69.3113 105.17 61.4534 93.3556 56.2949 87.3228C51.1365 81.29 42.8086 80.0878 42.8086 80.0878C42.8086 80.0878 42.8086 80.0987 42.8086 80.1097C31.9452 77.1588 25.0272 81.7053 25.0272 81.7053L20.8086 128.219C19.825 141.115 28.1529 145.235 29.0818 144.405C48.6228 127.071 55.2021 130.754 59.2786 126.864L56.1966 115.41C61.3878 120.055 69.672 121.487 69.5081 113.913Z" fill="#FBBE21"/>
<path d="M28.7103 144.744C28.3387 144.744 27.836 144.602 27.2677 144.317C26.4808 143.924 19.6283 140.164 20.5464 128.186L24.7649 81.6726C24.7759 81.5961 24.8087 81.5305 24.8742 81.4868C24.9398 81.443 31.9671 76.9403 42.7649 79.8365C42.7868 79.8365 42.8087 79.8365 42.8305 79.8365C42.9179 79.8474 51.3114 81.1261 56.4808 87.1589C61.3114 92.8092 69.5518 104.798 69.7595 113.913C69.836 117.137 68.4043 118.47 67.1912 119.028C64.5464 120.252 60.2076 119.028 56.6447 116.132L59.519 126.776C59.5409 126.864 59.519 126.962 59.4535 127.028C58.0873 128.339 56.4589 128.809 54.2185 129.465C49.5081 130.842 42.3934 132.918 29.2458 144.58C29.1256 144.689 28.9507 144.744 28.7103 144.744ZM25.2677 81.8474L21.06 128.23C20.3387 137.694 24.7649 142.514 27.4972 143.869C28.3715 144.306 28.8414 144.274 28.9179 144.208C42.142 132.481 49.3223 130.383 54.0764 128.995C56.1857 128.383 57.7376 127.924 58.9944 126.776L55.9453 115.487C55.9125 115.377 55.9562 115.268 56.0546 115.203C56.1529 115.148 56.2731 115.159 56.3606 115.224C59.8251 118.328 64.3934 119.76 66.9835 118.569C68.5245 117.858 69.3114 116.252 69.2567 113.924C69.0491 104.951 60.8961 93.0824 56.0983 87.4868C51.3442 81.9348 43.7595 80.5032 42.8524 80.3502C42.8196 80.3611 42.7759 80.3611 42.7431 80.3502C32.8196 77.6507 26.1638 81.3119 25.2677 81.8474Z" fill="black"/>
<path d="M54.612 108.612C54.4918 108.612 54.3934 108.525 54.3606 108.416L50.7759 91.3117C50.7431 91.1697 50.8306 91.0385 50.9726 91.0166C51.1038 90.9839 51.2459 91.0713 51.2677 91.2134L54.8634 108.306C54.8961 108.448 54.8087 108.579 54.6666 108.601C54.6557 108.612 54.6338 108.612 54.612 108.612Z" fill="black"/>
<path d="M42.7427 69.5301C43.0487 69.3006 43.0924 68.8634 42.8301 68.5793C41.2454 66.8306 39.4749 63.3006 39.464 63.4426C39.3438 64.8962 37.1143 64.4262 34.9503 65.541C33.6607 66.2077 33.5951 67.2241 33.7591 67.9454C33.8137 68.1749 33.5624 68.3607 33.3547 68.2514C32.7755 67.9454 32.0214 67.8361 31.6826 69.0711C31.311 70.4372 33.1799 72.0437 34.3383 72.2514C34.2727 72.5792 33.5186 75.8251 32.5897 79.5738C32.4039 80.317 30.5132 80.9727 30.5132 80.9727C36.7536 83.6721 39.8028 82.5683 40.6662 80.929L40.8629 80.5465C41.0706 80.153 40.8629 79.6612 40.4367 79.5301L39.4421 79.2241C38.6006 78.9071 38.2618 78.0984 38.229 77.2896L38.2727 74.4262C38.7645 74.612 39.3547 74.8088 39.8356 74.8525C40.7755 74.9399 41.5733 74.3935 41.8465 73.4864C42.2181 72.2405 42.2946 71.0383 42.076 70.0437L42.7427 69.5301Z" fill="#FFDBC5"/>
<path d="M36.9724 82.8635C35.3221 82.8635 33.1582 82.3935 30.426 81.2023C30.3276 81.1586 30.2729 81.0602 30.2729 80.9618C30.2729 80.8526 30.3385 80.7651 30.4478 80.7323C31.1801 80.481 32.262 79.9236 32.3604 79.5083C33.1801 76.1859 33.8576 73.3006 34.0544 72.4373C33.2347 72.1859 32.2839 71.4427 31.7811 70.6449C31.4205 70.0766 31.3112 69.4974 31.4533 68.9946C31.6172 68.4154 31.8795 68.0438 32.2511 67.8799C32.6008 67.7269 33.0161 67.7706 33.4861 68.022C33.4861 68.022 33.497 68.0329 33.5189 68.022C33.5298 68.011 33.5298 68.0001 33.5298 68.0001C33.3768 67.3334 33.3549 66.0875 34.8522 65.3116C35.7484 64.8526 36.6773 64.6449 37.4205 64.481C38.579 64.2296 39.1801 64.0657 39.2347 63.4209C39.2456 63.3116 39.3221 63.2132 39.4314 63.1914C39.6281 63.1476 39.6281 63.1476 40.0762 63.9345C40.6664 64.9837 41.9123 67.1695 43.038 68.4154C43.2019 68.6012 43.2893 68.8526 43.2675 69.093C43.2456 69.3444 43.1145 69.5739 42.9178 69.7378L42.3932 70.1422C42.5899 71.1586 42.4915 72.3389 42.1309 73.552C41.8249 74.5793 40.9068 75.2023 39.8467 75.1039C39.5079 75.0711 39.0708 74.9618 38.5571 74.787L38.5134 77.3006C38.5352 77.7815 38.6992 78.6777 39.5626 78.9946L40.5462 79.3006C40.8194 79.3881 41.0489 79.5848 41.1582 79.858C41.2675 80.1203 41.2566 80.4263 41.1254 80.6777L40.9287 81.0602C40.3604 82.0875 39.0926 82.8635 36.9724 82.8635ZM31.2019 80.9837C36.7648 83.2569 39.6609 82.3389 40.4587 80.8088L40.6555 80.4263C40.721 80.3061 40.721 80.164 40.6773 80.0329C40.6227 79.9017 40.5134 79.8143 40.3822 79.7706L39.3877 79.4646C38.5462 79.1476 38.0434 78.3608 37.9888 77.3006L38.0325 74.4154C38.0325 74.328 38.0762 74.2515 38.1418 74.2077C38.2074 74.164 38.2948 74.1531 38.3713 74.1859C38.9943 74.4263 39.497 74.5575 39.8686 74.6012C40.6882 74.6777 41.3768 74.2078 41.6172 73.4099C41.9779 72.2078 42.0544 71.0602 41.8358 70.0985C41.8139 70.0001 41.8467 69.9017 41.9342 69.8471L42.5899 69.3444C42.6773 69.2788 42.732 69.1695 42.7429 69.0602C42.7538 68.9509 42.721 68.8416 42.6445 68.7651C41.4861 67.4755 40.2292 65.2569 39.6172 64.1968C39.5954 64.1531 39.5626 64.0985 39.5407 64.0547C39.191 64.623 38.3932 64.7979 37.5079 64.9946C36.7538 65.1586 35.9123 65.3444 35.0708 65.7815C34.1527 66.2515 33.803 66.9728 34.0107 67.9017C34.0544 68.1094 33.9779 68.317 33.8139 68.4373C33.65 68.5684 33.4314 68.5903 33.2456 68.4919C32.9178 68.317 32.6445 68.2842 32.4478 68.3717C32.2292 68.47 32.0544 68.7323 31.9342 69.1586C31.803 69.6176 32.0107 70.0875 32.2074 70.4045C32.7429 71.2569 33.7593 71.9127 34.3932 72.022C34.4587 72.0329 34.5243 72.0766 34.5571 72.1312C34.5899 72.1859 34.6117 72.2624 34.5899 72.328C34.5243 72.6449 33.7811 75.869 32.8413 79.6613C32.7101 80.2187 31.8249 80.6996 31.2019 80.9837Z" fill="black"/>
<path d="M38.295 74.6668C38.2622 74.6668 38.2185 74.6559 38.1857 74.6449L37.4644 74.3061C37.3333 74.2515 37.2786 74.0985 37.3442 73.9673C37.3988 73.8362 37.5518 73.7815 37.683 73.8471L38.4043 74.1859C38.5354 74.2406 38.5901 74.3936 38.5245 74.5247C38.4808 74.6122 38.3934 74.6668 38.295 74.6668Z" fill="black"/>
<path d="M84.229 141.836L85.1142 144.175C85.3 144.863 85.9995 145.268 86.6224 145.06L87.3438 144.819C87.9339 144.623 88.5022 144.273 88.3055 143.628L87.3 140.153L84.229 141.836Z" fill="#FFDBC5"/>
<path d="M86.2836 145.366C86.0651 145.366 85.8355 145.311 85.6279 145.202C85.2563 145.005 84.9831 144.656 84.8738 144.24L83.9995 141.923C83.9558 141.803 83.9995 141.672 84.1197 141.606L87.1907 139.923C87.2563 139.891 87.3437 139.88 87.4093 139.912C87.4749 139.945 87.5295 140 87.5514 140.076L88.5569 143.552C88.6989 144.011 88.6115 144.656 87.4312 145.049L86.7099 145.289C86.5678 145.344 86.4257 145.366 86.2836 145.366ZM84.5459 141.945L85.3437 144.076C85.4312 144.382 85.617 144.623 85.8574 144.754C86.076 144.863 86.3164 144.896 86.535 144.819L87.2563 144.579C88.229 144.251 88.0978 143.858 88.0541 143.705L87.1361 140.535L84.5459 141.945Z" fill="black"/>
<path d="M85.0596 144.36C85.0596 144.36 84.5678 145.475 84.7427 146.426C84.9285 147.388 85.3875 149.366 86.076 149.3C86.5897 149.257 91.2563 147.06 93.5623 145.956C94.2837 145.606 94.2946 144.568 93.5733 144.229C93.0159 143.967 92.1197 143.847 91.1143 143.836C89.617 143.836 88.8083 143.606 88.382 143.399C88.0869 143.257 87.7372 143.344 87.5514 143.606L86.5241 145.071L85.0596 144.36Z" fill="white"/>
<path d="M86.043 149.563C85.3982 149.563 84.8736 148.525 84.4911 146.481C84.2944 145.454 84.808 144.306 84.8299 144.262C84.8627 144.197 84.9064 144.153 84.972 144.131C85.0375 144.109 85.1031 144.109 85.1687 144.142L86.4364 144.765L87.3326 143.486C87.5949 143.115 88.0758 142.995 88.4802 143.191C88.8627 143.377 89.6277 143.596 91.1031 143.607C92.196 143.607 93.1031 143.76 93.6714 144.022C94.0976 144.219 94.3599 144.634 94.3599 145.104C94.3599 145.585 94.0976 146.011 93.6605 146.208C86.6987 149.519 86.2397 149.563 86.0867 149.574C86.0758 149.563 86.0649 149.563 86.043 149.563ZM85.1905 144.71C85.0703 145.071 84.8736 145.771 84.9829 146.383C85.3545 148.383 85.8244 149.071 86.043 149.06C86.1741 149.049 87.0812 148.765 93.4419 145.738C93.737 145.596 93.8463 145.312 93.8463 145.093C93.8463 144.82 93.6933 144.579 93.4528 144.47C92.961 144.24 92.1086 144.109 91.1031 144.109C89.8463 144.109 88.8845 143.945 88.2616 143.65C88.0758 143.563 87.8681 143.618 87.7479 143.781L86.7206 145.246C86.6441 145.344 86.5129 145.388 86.4037 145.322L85.1905 144.71Z" fill="black"/>
<path d="M88.9392 146.077C88.8955 146.077 88.8518 146.066 88.8081 146.033C88.6879 145.956 88.6551 145.803 88.7316 145.683L89.5403 144.394C89.6168 144.273 89.7698 144.241 89.8901 144.317C90.0103 144.394 90.0431 144.547 89.9666 144.667L89.1578 145.956C89.1032 146.033 89.0157 146.077 88.9392 146.077Z" fill="black"/>
<path d="M69.8357 122.372C69.8357 122.372 81.1035 120.7 83.8248 124.273C86.2838 127.497 88.3821 141.607 88.3821 141.607C88.3821 141.607 85.2892 143.65 83.9122 142.831C83.9122 142.831 80.3821 131.366 76.7537 129.891C75.5953 129.421 72.4696 128.328 69.639 127.716C63.0707 126.295 65.7701 123.17 65.7701 123.17L69.8357 122.372Z" fill="#FFF597"/>
<path d="M84.6992 143.268C84.3604 143.268 84.0326 143.202 83.7703 143.049C83.7156 143.016 83.6719 142.962 83.661 142.907C83.6282 142.798 80.1309 131.541 76.6446 130.131C75.3331 129.607 72.2621 128.547 69.5626 127.967C66.9725 127.41 65.4643 126.514 65.049 125.301C64.6446 124.087 65.5189 123.06 65.5517 123.016C65.5845 122.973 65.6391 122.94 65.6938 122.929L69.7703 122.12H69.7812C70.2511 122.055 81.2238 120.47 84.0107 124.109C86.4916 127.355 88.5244 140.984 88.6118 141.563C88.6227 141.661 88.579 141.76 88.5025 141.814C88.4041 141.88 86.2839 143.268 84.6992 143.268ZM84.12 142.656C85.1145 143.126 87.202 142.044 88.0981 141.486C87.8577 139.913 85.8796 127.388 83.6173 124.426C81.038 121.049 70.1856 122.579 69.8796 122.623L65.9014 123.41C65.7484 123.628 65.2785 124.361 65.5408 125.148C65.8796 126.164 67.3113 126.962 69.6719 127.475C72.3932 128.066 75.508 129.126 76.8304 129.661C80.3932 131.093 83.7375 141.443 84.12 142.656Z" fill="black"/>
<path d="M70.5137 109.115L73.5082 106C76.3388 108.82 77.8361 109.29 77.8361 109.29C78.1967 109.465 78.6339 109.344 78.8525 109.006C79.7596 107.618 82.459 104.416 82.6885 103.388C82.8306 102.743 84.0328 100.547 84.5574 100.973C85.1038 101.421 84.1639 102.656 84.2842 102.601C85.4208 102.164 86.7323 102.011 87.0929 102.601C87.9344 103.956 85.8033 104.131 84.5902 105.148C84 105.64 81.082 114.776 76.8634 114.558C74.2842 114.426 70.5137 109.115 70.5137 109.115Z" fill="#FFDBC5"/>
<path d="M77.0271 114.82C76.9725 114.82 76.9179 114.82 76.8632 114.82C74.1856 114.678 70.4698 109.497 70.3168 109.279C70.2512 109.18 70.2512 109.049 70.3386 108.951L73.3332 105.836C73.3769 105.781 73.4424 105.76 73.508 105.76C73.5845 105.76 73.6392 105.781 73.6938 105.836C76.426 108.557 77.9124 109.06 77.9233 109.06C77.9342 109.06 77.9452 109.071 77.9561 109.071C78.2075 109.191 78.5026 109.115 78.6556 108.885C78.9616 108.415 79.4752 107.738 80.0217 107.016C81.049 105.661 82.3168 103.978 82.4588 103.344C82.59 102.743 83.5189 100.962 84.2293 100.71C84.4151 100.645 84.6009 100.678 84.743 100.787C85.1692 101.137 84.9944 101.738 84.7867 102.186C85.8031 101.891 86.9288 101.836 87.3332 102.481C87.5517 102.831 87.6173 103.137 87.5299 103.421C87.3769 103.956 86.7758 104.24 86.0873 104.579C85.6282 104.809 85.1583 105.038 84.7758 105.355C84.6774 105.454 84.3933 106.087 84.1091 106.699C82.896 109.333 80.3933 114.82 77.0271 114.82ZM70.8523 109.137C71.5189 110.033 74.7102 114.186 76.896 114.306C79.9998 114.459 82.4698 109.071 83.6501 106.47C84.0982 105.497 84.284 105.093 84.4479 104.951C84.8741 104.59 85.3987 104.339 85.8577 104.109C86.4151 103.836 86.9397 103.574 87.0271 103.268C87.0709 103.126 87.0271 102.951 86.8851 102.732C86.6446 102.35 85.5408 102.393 84.3823 102.842C84.284 102.874 84.1638 102.852 84.0873 102.776C83.9561 102.634 84.0326 102.492 84.1419 102.306C84.273 102.077 84.6556 101.366 84.4042 101.169C84.0982 101.148 83.0818 102.787 82.9397 103.443C82.7758 104.186 81.5736 105.771 80.4151 107.311C79.8796 108.022 79.3659 108.689 79.0709 109.148C78.7867 109.585 78.2184 109.749 77.7375 109.53C77.5408 109.465 76.0873 108.907 73.508 106.372L70.8523 109.137Z" fill="black"/>
<path d="M73.7372 105.967C73.8575 106.032 73.923 106.175 73.8902 106.317L72.852 110.47C72.7973 112 72.7864 112.907 72.7318 114.164L72.4804 120.59C72.4804 120.59 72.229 124.175 72.2946 124.481C72.4804 125.388 71.0269 124.994 69.8902 124.732C68.0323 124.295 60.8083 126.896 58.0214 126.961C59.0159 124.076 59.005 119.901 59.2345 115.464C59.1034 113.923 58.7536 112.415 58.2072 110.972L57.2017 108.295C57.1471 108.142 57.1908 107.978 57.3219 107.879C57.8902 107.464 59.4859 106.382 61.1471 105.879C63.9667 104.983 71.0924 104.59 73.7372 105.967Z" fill="#FF8D8D"/>
<path d="M58.0324 127.191C57.9559 127.191 57.8794 127.147 57.8248 127.082C57.7811 127.016 57.7592 126.929 57.792 126.852C58.6007 124.524 58.7428 121.235 58.8849 117.759C58.9177 116.994 58.9505 116.218 58.9942 115.443C58.863 113.934 58.5242 112.448 57.9887 111.027L56.9833 108.35C56.8849 108.087 56.9723 107.803 57.2018 107.639C57.8139 107.202 59.4204 106.12 61.1035 105.596C63.792 104.765 71.0379 104.251 73.8794 105.727C74.1089 105.847 74.2292 106.109 74.1636 106.361L73.1144 110.492C73.0926 111.191 73.0707 111.759 73.0598 112.284C73.0379 112.907 73.027 113.475 72.9942 114.153L72.7428 120.579C72.6226 122.284 72.5243 124.197 72.557 124.415C72.6226 124.754 72.5024 124.951 72.3931 125.06C71.9778 125.453 71.027 125.235 70.0324 124.994L69.8466 124.951C68.9068 124.732 66.2947 125.388 63.7811 126.033C61.5953 126.59 59.3439 127.169 58.0324 127.191ZM67.9341 105.311C65.3986 105.311 62.7538 105.617 61.2346 106.087C59.6281 106.579 58.0762 107.628 57.486 108.055C57.4532 108.076 57.4314 108.131 57.4532 108.175L58.4587 110.852C59.0161 112.317 59.3658 113.858 59.4969 115.421C59.4969 115.432 59.4969 115.443 59.4969 115.453C59.4532 116.24 59.4204 117.027 59.3876 117.792C59.2456 121.137 59.1144 124.306 58.3822 126.667C59.6718 126.557 61.6827 126.044 63.639 125.552C66.3385 124.863 68.8849 124.218 69.945 124.47L70.1308 124.514C70.7647 124.667 71.8139 124.907 72.0215 124.699C72.0543 124.667 72.0543 124.579 72.0434 124.514C71.9778 124.197 72.1636 121.399 72.2292 120.557L72.4805 114.142C72.5133 113.475 72.5242 112.896 72.5461 112.284C72.557 111.749 72.5789 111.169 72.6007 110.459C72.6007 110.437 72.6008 110.426 72.6117 110.404L73.6499 106.251C73.6609 106.229 73.6499 106.208 73.6281 106.197C72.4259 105.574 70.2292 105.311 67.9341 105.311Z" fill="black"/>
<path d="M56.8743 109.443C57.0273 109.169 57.1912 108.929 57.377 108.71L58.2185 110.94C58.5573 111.836 58.8196 112.765 58.9945 113.705C59.1366 114.656 59.5956 115.333 60.6557 115.246C62 115.126 63.9781 114.853 64.9398 113.202C65.3661 112.47 66.1311 111.727 66.5573 112.109C66.8306 112.35 66.3497 112.754 66.1748 113.071C66.0655 113.268 66.1967 113.322 66.4153 113.29C67.9125 113.082 68.8743 111.683 69.2896 112.328C69.4207 112.525 69.3661 113.137 69.1256 113.541C68.3934 114.831 66.6448 115.344 65.5737 115.65C63.5847 116.23 60.9071 119.224 57.9125 118.896C55.6612 118.645 55.5409 111.924 56.8743 109.443Z" fill="#FFDBC5"/>
<path d="M58.4044 119.169C58.2405 119.169 58.0765 119.158 57.9126 119.147C57.3443 119.082 56.8744 118.71 56.5137 118.022C55.4645 116.022 55.541 111.399 56.6448 109.333C56.7979 109.06 56.9727 108.798 57.1804 108.557C57.235 108.492 57.3334 108.459 57.4208 108.47C57.5082 108.481 57.5847 108.546 57.6175 108.634L58.4591 110.863C58.7979 111.77 59.0711 112.71 59.2459 113.672C59.4427 114.962 60.1312 115.049 60.6339 115.005C62.1858 114.874 63.8798 114.535 64.7214 113.082C65.0492 112.524 65.6175 111.858 66.164 111.77C66.3716 111.738 66.5683 111.792 66.7214 111.923C67.0929 112.251 66.7651 112.699 66.5574 112.962C66.5465 112.984 66.5246 113.005 66.5137 113.027C67.1148 112.907 67.6285 112.59 68.0438 112.339C68.5902 112 69.1476 111.65 69.4973 112.208C69.705 112.535 69.5847 113.257 69.3443 113.683C68.5574 115.071 66.6667 115.617 65.6503 115.912C64.9727 116.109 64.164 116.623 63.3224 117.169C61.8689 118.109 60.2186 119.169 58.4044 119.169ZM57.3006 109.224C57.2241 109.333 57.1585 109.443 57.0929 109.563C56.0656 111.475 55.9891 115.923 56.9618 117.77C57.235 118.295 57.5738 118.59 57.9673 118.634C59.7924 118.831 61.5301 117.716 63.0601 116.721C63.9454 116.153 64.776 115.617 65.5301 115.399C66.5465 115.104 68.2405 114.623 68.929 113.41C69.1367 113.049 69.1476 112.546 69.0929 112.448C69.0274 112.35 68.8744 112.404 68.3279 112.743C67.8361 113.049 67.2241 113.421 66.47 113.53C66.164 113.574 66.0219 113.464 65.9563 113.366C65.9126 113.29 65.847 113.147 65.9673 112.929C66.0219 112.831 66.0984 112.732 66.1749 112.634C66.2514 112.524 66.4044 112.339 66.4044 112.262C66.3826 112.251 66.3388 112.229 66.2623 112.24C65.9673 112.284 65.5082 112.743 65.1694 113.311C64.2077 114.962 62.3607 115.333 60.6886 115.486C59.9345 115.552 58.9836 115.3 58.7541 113.738C58.5793 112.82 58.317 111.902 57.9891 111.027L57.3006 109.224Z" fill="black"/>
<path d="M55.6828 115.759L59.4533 114.338C59.4423 112.196 58.4478 110.054 57.1035 107.912C55.8358 109.278 55.3768 111.912 55.6828 115.759Z" fill="#FF8D8D"/>
<path d="M55.6829 116.011C55.6391 116.011 55.5845 116 55.5517 115.967C55.4861 115.923 55.4424 115.858 55.4315 115.77C55.1146 111.792 55.5954 109.158 56.9178 107.727C56.9725 107.672 57.049 107.639 57.1255 107.65C57.202 107.661 57.2785 107.705 57.3113 107.77C58.9288 110.339 59.6829 112.426 59.6938 114.328C59.6938 114.437 59.6282 114.524 59.5299 114.568L55.7594 115.989C55.7484 116.011 55.7156 116.011 55.6829 116.011ZM57.0708 108.339C56.0654 109.661 55.6719 112.033 55.9124 115.399L59.202 114.164C59.1473 112.481 58.4697 110.612 57.0708 108.339Z" fill="black"/>
<path d="M74.2838 113.53L77.0598 108.776C75.5297 107.366 74.3603 106.426 73.4751 105.869L72.7319 112.666L74.2838 113.53Z" fill="#FF8D8D"/>
<path d="M74.284 113.781C74.2403 113.781 74.1965 113.77 74.1637 113.748L72.6228 112.885C72.5353 112.83 72.4807 112.732 72.4916 112.634L73.2348 105.836C73.2457 105.748 73.3004 105.672 73.3769 105.639C73.4534 105.595 73.5517 105.606 73.6173 105.65C74.5353 106.218 75.7594 107.213 77.2348 108.579C77.3222 108.656 77.3441 108.787 77.2785 108.896L74.5026 113.65C74.4588 113.738 74.3714 113.781 74.284 113.781ZM73.0053 112.524L74.1856 113.191L76.743 108.819C75.5299 107.705 74.5025 106.863 73.6938 106.306L73.0053 112.524Z" fill="black"/>
<path d="M78.7324 145.661L79.716 149.366C79.9783 150.033 81.1696 150.175 81.7488 149.924L82.4155 149.628C82.951 149.388 83.1696 148.699 82.9182 148.087L81.9455 144.372L78.7324 145.661Z" fill="#FFDBC5"/>
<path d="M81.0929 150.295C80.7869 150.295 80.47 150.241 80.2077 150.131C79.847 149.978 79.5956 149.749 79.4863 149.454C79.4863 149.443 79.4754 149.432 79.4754 149.432L78.4918 145.727C78.459 145.607 78.5246 145.476 78.6448 145.421L81.8579 144.12C81.9235 144.088 82 144.099 82.0656 144.131C82.1312 144.164 82.1749 144.219 82.1967 144.295L83.1585 148C83.4645 148.743 83.1803 149.563 82.5246 149.858L81.8579 150.153C81.6503 150.252 81.3771 150.295 81.0929 150.295ZM79.9672 149.29C80.0437 149.487 80.2514 149.596 80.4044 149.661C80.8306 149.836 81.3771 149.814 81.6503 149.694L82.3169 149.399C82.7322 149.213 82.8962 148.678 82.6885 148.186C82.6885 148.175 82.6776 148.164 82.6776 148.153L81.7814 144.721L79.0492 145.825L79.9672 149.29Z" fill="black"/>
<path d="M78.8744 151.585C78.8088 152 79.0383 152.404 79.4209 152.557C80.7761 153.093 83.8252 154.306 84.7105 154.568C85.858 154.918 87.3444 154.776 88.0657 154.186C88.787 153.596 87.0274 151.661 86.175 150.918C84.8963 149.825 83.8034 147.869 83.246 147.705C82.6886 147.541 81.3771 149.027 81.3771 149.027L79.7487 148.033C79.7487 148.055 79.2241 149.497 78.8744 151.585Z" fill="white"/>
<path d="M86.0221 155.027C85.5521 155.027 85.0712 154.962 84.6341 154.831C83.7379 154.557 80.6232 153.322 79.3335 152.809C78.8417 152.612 78.5357 152.088 78.6341 151.552C78.9838 149.454 79.4975 148.033 79.5193 147.967C79.5412 147.891 79.6068 147.836 79.6723 147.814C79.7488 147.792 79.8253 147.792 79.8909 147.836L81.3335 148.721C81.7707 148.241 82.7324 147.301 83.3226 147.476C83.6614 147.574 84.033 148.033 84.645 148.82C85.1477 149.465 85.727 150.208 86.339 150.732C86.8964 151.213 88.5029 152.82 88.492 153.814C88.492 154.055 88.3936 154.251 88.2297 154.383C87.7379 154.798 86.8964 155.027 86.0221 155.027ZM79.8909 148.437C79.727 148.962 79.3773 150.131 79.1259 151.629C79.0822 151.924 79.2461 152.219 79.5193 152.328C80.8089 152.842 83.9128 154.066 84.7871 154.339C85.88 154.678 87.2789 154.525 87.9128 154.011C87.9456 153.978 87.9893 153.935 87.9893 153.825C88.0002 153.191 86.8308 151.825 86.0111 151.137C85.3554 150.568 84.7652 149.814 84.2406 149.148C83.8363 148.623 83.3773 148.033 83.1696 147.978C82.9619 147.913 82.1969 148.514 81.563 149.224C81.4865 149.312 81.3445 149.333 81.2352 149.268L79.8909 148.437Z" fill="black"/>
<path d="M83.1148 151.104C83.0383 151.104 82.9618 151.071 82.9071 150.994C82.8306 150.885 82.8525 150.721 82.9618 150.645L84.0656 149.858C84.1749 149.781 84.3388 149.803 84.4153 149.912C84.4918 150.022 84.47 150.186 84.3607 150.262L83.2568 151.049C83.2131 151.082 83.1585 151.104 83.1148 151.104Z" fill="black"/>
<path d="M57.7266 126.197C57.7266 126.197 54.8632 131.978 62.4807 132.066C64.7648 132.088 69.355 131.465 70.1419 132.186C73.1473 134.929 75.9014 143.17 76.9397 146.022C77.1255 146.536 78.7976 146.721 79.3441 146.754C80.1637 146.809 81.3878 146.623 82.426 145.377C82.6993 145.038 82.7976 144.59 82.6993 144.164C81.9561 141.115 79.0818 128.842 77.7812 126.667C75.3659 122.612 66.5244 123.858 64.0982 124.208C59.7594 124.842 57.7266 126.197 57.7266 126.197Z" fill="#FFF597"/>
<path d="M79.6062 147.038C79.5079 147.038 79.4095 147.038 79.3221 147.027C78.6117 146.973 76.9396 146.787 76.6991 146.12C76.6117 145.891 76.5243 145.629 76.415 145.334C75.2018 141.935 72.6882 134.864 69.9669 132.372C69.5079 131.946 66.9833 132.099 65.1363 132.208C64.1417 132.262 63.2018 132.317 62.4696 132.317C59.9122 132.284 58.2073 131.618 57.4204 130.328C56.3057 128.514 57.4423 126.175 57.486 126.077C57.5079 126.033 57.5406 126 57.5734 125.978C57.6609 125.924 59.7155 124.579 64.0434 123.956C71.6281 122.874 76.3166 123.738 77.9887 126.536C79.1691 128.503 81.5844 138.536 82.6226 142.809C82.7538 143.333 82.8521 143.771 82.9396 144.099C83.0598 144.601 82.9396 145.137 82.6226 145.53C81.6281 146.743 80.4805 147.038 79.6062 147.038ZM68.0434 131.596C69.1909 131.596 69.9778 131.705 70.3166 132.011C73.1363 134.579 75.6827 141.738 76.9068 145.17C77.0051 145.465 77.1035 145.716 77.18 145.946C77.2565 146.153 78.1527 146.426 79.3658 146.514C80.1417 146.568 81.2784 146.394 82.2292 145.224C82.4478 144.951 82.5352 144.579 82.4478 144.241C82.3712 143.913 82.262 143.476 82.1308 142.951C81.1035 138.689 78.6991 128.721 77.5625 126.82C76.4915 125.027 73.3002 123.17 64.1308 124.481C60.3057 125.027 58.2838 126.164 57.9341 126.383C57.7702 126.754 56.9942 128.656 57.8685 130.088C58.557 131.213 60.1199 131.803 62.4915 131.825C63.2018 131.836 64.1308 131.782 65.1144 131.716C66.251 131.64 67.2346 131.596 68.0434 131.596Z" fill="black"/>
<path d="M68.0216 99.4316C68.0872 99.5737 68.12 99.7376 68.12 99.9672C68.0981 100.59 68.0216 101.224 67.9779 101.847C67.9014 102.798 67.8358 103.76 67.7593 104.71L69.5189 105.169C70.12 105.322 70.1965 106.164 69.6282 106.415C68.0216 107.115 65.2566 107.836 61.956 106.623C60.5025 106.087 62.7429 104.787 62.9615 104.186C63.5407 102.579 63.4424 100.678 62.5571 99.2021C62.4806 99.071 62.4041 98.918 62.4697 98.7868C62.5134 98.7103 62.6118 98.6666 62.6883 98.6447C63.3112 98.4152 63.956 98.1857 64.6227 98.1967C65.2675 98.2076 65.8795 98.4371 66.4916 98.6557C67.1473 98.8961 67.7812 98.9508 68.0216 99.4316Z" fill="#FFDBC5"/>
<path d="M65.5517 107.519C64.426 107.519 63.191 107.333 61.8686 106.842C61.497 106.711 61.2894 106.503 61.2238 106.241C61.1145 105.727 61.65 105.202 62.1637 104.711C62.3932 104.492 62.6664 104.219 62.7211 104.088C63.2894 102.492 63.1473 100.667 62.3386 99.3225C62.2621 99.2023 62.0981 98.9182 62.2511 98.6559C62.3495 98.492 62.5134 98.4373 62.6118 98.4045C63.2238 98.1859 63.9233 97.9346 64.6336 97.9346C65.3331 97.9455 65.9998 98.1969 66.5899 98.4154C66.7539 98.481 66.9069 98.5247 67.0599 98.5685C67.5626 98.7215 68.0325 98.8635 68.2511 99.3225C68.3386 99.5083 68.3823 99.716 68.3713 99.9674C68.3604 100.394 68.3167 100.82 68.2839 101.235C68.262 101.443 68.2511 101.65 68.2293 101.858L68.0325 104.514L69.5845 104.918C69.967 105.017 70.2402 105.333 70.273 105.738C70.3058 106.131 70.0872 106.481 69.7375 106.645C68.6773 107.104 67.2457 107.519 65.5517 107.519ZM62.6992 98.9073C62.7101 98.9291 62.7211 98.9728 62.7757 99.0603C63.661 100.536 63.8249 102.525 63.2019 104.262C63.1145 104.503 62.8413 104.765 62.5243 105.071C62.1855 105.399 61.6719 105.891 61.7265 106.131C61.7484 106.208 61.8577 106.295 62.0435 106.361C65.2019 107.519 67.8577 106.896 69.5298 106.164C69.7265 106.077 69.7812 105.902 69.7703 105.76C69.7593 105.618 69.6719 105.454 69.4642 105.399L67.7047 104.94C67.5845 104.907 67.508 104.798 67.5189 104.678L67.7375 101.814C67.7484 101.607 67.7702 101.399 67.7921 101.18C67.8249 100.776 67.8686 100.35 67.8795 99.9455C67.8795 99.7706 67.8577 99.6395 67.814 99.5302C67.6937 99.2788 67.3987 99.1805 66.9287 99.0384C66.7648 98.9838 66.6008 98.94 66.426 98.8745C65.8467 98.6559 65.2566 98.4373 64.6446 98.4264C64.0107 98.4264 63.3987 98.645 62.7976 98.8635C62.7648 98.8745 62.7211 98.8963 62.6992 98.9073Z" fill="black"/>
<path d="M66.5898 87.8251C66.7647 87.8689 66.9286 87.9235 67.0925 87.9891C69.5953 88.8852 69.2346 91.9672 71.3002 93.3115C71.4313 93.3989 71.5734 93.4645 71.7046 93.5738C71.9668 93.7814 72.1199 94.0984 72.2619 94.4044C73.2237 96.4699 73.6718 101.104 70.7647 101.934C70.5024 102.011 70.2291 102.044 69.9559 102.066C67.9231 102.23 65.9122 101.705 63.9122 101.399C63.8248 101.388 63.7373 101.377 63.6608 101.41C63.5734 101.454 63.5297 101.541 63.475 101.617C62.8849 102.383 61.2346 101.475 60.6663 101.104C60.404 100.929 60.1526 100.732 60.0106 100.459C59.8685 100.186 59.8794 99.8689 60.0215 99.5956C58.8849 99.0601 58.3712 98.1312 57.7264 97.071C56.2729 94.6667 57.3548 91.2459 59.3767 89.5082C61.322 87.8033 64.1199 87.1475 66.5898 87.8251Z" fill="#FFDBC5"/>
<path d="M69.1801 102.328C67.8686 102.328 66.5681 102.098 65.3003 101.869C64.8304 101.782 64.3495 101.694 63.8686 101.629C63.8468 101.629 63.7812 101.618 63.7703 101.618C63.7703 101.618 63.7484 101.65 63.7375 101.683C63.7156 101.705 63.7047 101.738 63.6828 101.76C62.8741 102.809 60.7648 101.465 60.5353 101.301C60.2839 101.137 59.9779 100.907 59.8031 100.557C59.661 100.284 59.6391 99.9892 59.7156 99.6941C58.7102 99.1476 58.2074 98.3061 57.6282 97.3444L57.5298 97.1804C55.9561 94.5684 57.1801 91.0493 59.2348 89.2897C61.2457 87.5629 64.1637 86.8963 66.6774 87.5848C66.8522 87.6285 67.0271 87.6941 67.202 87.7487C68.6665 88.2733 69.2238 89.4864 69.7484 90.6668C70.1746 91.6285 70.59 92.5247 71.4643 93.093C71.508 93.1258 71.5517 93.1476 71.6063 93.1804C71.7047 93.2351 71.8031 93.2897 71.8905 93.3662C72.2074 93.6176 72.3714 93.9892 72.5134 94.2842C73.1583 95.6722 73.6828 98.5028 72.8085 100.437C72.4042 101.333 71.7484 101.924 70.8632 102.175C70.579 102.262 70.2839 102.284 70.0107 102.306C69.7156 102.317 69.4533 102.328 69.1801 102.328ZM63.7921 101.115C63.8577 101.115 63.9124 101.126 63.9561 101.126C64.4369 101.202 64.9287 101.29 65.3987 101.366C66.885 101.629 68.4369 101.913 69.9451 101.792C70.1965 101.771 70.4588 101.749 70.6992 101.672C71.4315 101.465 71.9779 100.973 72.3277 100.208C73.049 98.6121 72.743 96.0001 72.0435 94.481C71.9233 94.2187 71.7812 93.9236 71.5626 93.7487C71.4971 93.6941 71.4206 93.6504 71.3331 93.5957C71.2785 93.5629 71.2238 93.5301 71.1801 93.4974C70.1856 92.8526 69.7266 91.8362 69.2785 90.8526C68.7648 89.7269 68.2839 88.6558 67.0271 88.2077C66.8632 88.1531 66.6992 88.0985 66.5353 88.0547C64.1856 87.4099 61.4424 88.0329 59.5626 89.6504C57.661 91.2788 56.5681 94.5793 57.967 96.8963L58.0654 97.0602C58.6664 98.0547 59.1364 98.8416 60.1528 99.3225C60.2184 99.3553 60.2621 99.4099 60.2839 99.4755C60.3058 99.5411 60.3058 99.6067 60.273 99.6722C60.1637 99.8799 60.1637 100.109 60.2621 100.306C60.3932 100.547 60.6337 100.732 60.8304 100.863C61.5736 101.355 62.896 101.945 63.3003 101.432C63.3113 101.421 63.3222 101.399 63.3331 101.388C63.3768 101.312 63.4424 101.213 63.5626 101.159C63.6282 101.126 63.7156 101.115 63.7921 101.115Z" fill="black"/>
<path d="M60.4148 99.9891C60.3493 99.9891 60.2837 99.9672 60.229 99.9126C60.1307 99.8142 60.1307 99.6503 60.229 99.5519C60.8629 98.929 61.9558 98.8197 62.699 99.3115C62.8192 99.388 62.852 99.541 62.7755 99.6612C62.699 99.7814 62.546 99.8142 62.4258 99.7377C61.8684 99.377 61.0706 99.4536 60.5897 99.9126C60.546 99.9563 60.4804 99.9891 60.4148 99.9891Z" fill="black"/>
<path d="M70.7756 95.989C70.7209 95.989 70.6663 95.9781 70.6226 95.9344C70.5133 95.847 70.4914 95.6939 70.5679 95.5847C70.6772 95.4317 70.7428 95.224 70.71 95.0491C70.6991 94.9617 70.6554 94.8852 70.5898 94.8415C70.5133 94.7868 70.3931 94.765 70.2619 94.7541L70.2073 94.7431C69.4641 94.6229 68.8302 94.295 68.404 93.8032C68.3166 93.6939 68.3275 93.5409 68.4259 93.4426C68.5352 93.3552 68.6882 93.3661 68.7865 93.4644C69.1253 93.8579 69.6608 94.1311 70.2838 94.2295L70.3384 94.2404C70.5024 94.2623 70.6991 94.295 70.874 94.4153C71.0597 94.5355 71.169 94.7213 71.2128 94.9508C71.2674 95.2568 71.18 95.6065 70.9832 95.8688C70.9286 95.9453 70.8521 95.989 70.7756 95.989Z" fill="black"/>
<path d="M43.7482 118.623C41.9668 117.771 40.2728 116.645 38.8083 115.148C30.9176 107.071 34.9832 87.1478 34.9832 87.1478L26.9941 81.2134C7.05969 84.3391 14.6772 112.743 26.5023 123.06C30.6225 126.656 37.1143 128.164 41.5515 128.634C39.6061 123.53 41.8575 120.295 43.7482 118.623Z" fill="#FBBE21"/>
<path d="M41.5514 128.896C41.5405 128.896 41.5295 128.896 41.5295 128.896C38.5459 128.579 31.0815 127.41 26.3383 123.268C22.3929 119.814 18.8629 114.361 16.6662 108.295C14.3383 101.869 13.8137 95.6832 15.2017 90.8853C16.7973 85.3553 20.8629 81.9345 26.9612 80.9728C27.1033 80.9509 27.2345 81.0493 27.2563 81.1804C27.2782 81.3225 27.1798 81.4536 27.0487 81.4755C21.158 82.3935 17.2345 85.705 15.7044 91.0274C12.7645 101.202 19.0815 116.241 26.688 122.885C31.1252 126.754 38.0323 127.978 41.1907 128.35C39.4968 123.465 41.6607 120.295 43.3219 118.7C41.5186 117.803 39.9558 116.667 38.6443 115.333C35.4968 112.109 33.8356 106.7 33.7044 99.2679C33.7044 99.1258 33.8137 99.0165 33.9558 99.0056C34.0979 99.0056 34.2071 99.1149 34.2181 99.2569C34.3383 106.557 35.9558 111.847 39.0159 114.984C40.3601 116.361 41.9995 117.508 43.8793 118.415C43.9558 118.448 44.0104 118.525 44.0213 118.612C44.0323 118.7 43.9995 118.776 43.9339 118.842C41.9448 120.601 39.9558 123.727 41.8028 128.579C41.8356 128.667 41.8246 128.754 41.77 128.82C41.7044 128.863 41.6279 128.896 41.5514 128.896Z" fill="black"/>
<path d="M70.9503 118.699L71.6826 115.716L64.5132 119.06L67.0268 117.005C67.0268 117.005 65.6826 116.907 64.3164 117.508C62.994 118.098 60.6334 120.601 60.4913 120.754C58.0651 121.06 50.2837 121.727 43.7591 118.612C41.8684 120.284 39.4421 123.049 41.3875 128.153C51.923 129.257 61.6826 124.459 61.6826 124.459C66.841 124.142 70.9503 118.699 70.9503 118.699Z" fill="#FFDBC5"/>
<path d="M44.5786 128.579C43.5185 128.579 42.4365 128.525 41.3546 128.415C41.2562 128.404 41.1797 128.339 41.1469 128.251C39.2125 123.169 41.4311 120.339 43.5841 118.426C43.6606 118.361 43.7699 118.339 43.8573 118.383C50.2726 121.443 57.9994 120.798 60.36 120.503C60.8081 120.022 62.9284 117.836 64.207 117.268C65.6169 116.645 66.983 116.732 67.0376 116.743C67.136 116.754 67.2344 116.82 67.2562 116.918C67.289 117.016 67.2562 117.126 67.1797 117.191L66.2398 117.967L71.5732 115.475C71.6606 115.432 71.7699 115.443 71.8464 115.508C71.9229 115.574 71.9557 115.672 71.9338 115.76L71.2016 118.743C71.1906 118.776 71.1797 118.809 71.1579 118.831C70.983 119.06 66.9393 124.339 61.748 124.699C61.0704 125.038 53.4092 128.579 44.5786 128.579ZM41.5622 127.934C51.8464 128.962 61.4639 124.295 61.5622 124.251C61.595 124.24 61.6278 124.23 61.6606 124.23C66.4147 123.924 70.3382 119.093 70.7207 118.601L71.3109 116.186L64.6223 119.312C64.5021 119.366 64.371 119.322 64.3054 119.213C64.2398 119.104 64.2617 118.962 64.36 118.885L66.2945 117.301C65.8027 117.344 65.1032 117.465 64.4147 117.771C63.1251 118.339 60.7753 120.853 60.677 120.962C60.6333 121.006 60.5786 121.027 60.524 121.038C58.2617 121.322 50.3928 122.022 43.8027 118.951C41.8245 120.71 39.8682 123.333 41.5622 127.934Z" fill="black"/>
<path d="M84.2078 71.3663C89.6763 71.3663 94.1094 66.9332 94.1094 61.4646C94.1094 55.9961 89.6763 51.563 84.2078 51.563C78.7393 51.563 74.3062 55.9961 74.3062 61.4646C74.3062 66.9332 78.7393 71.3663 84.2078 71.3663Z" fill="white"/>
<path d="M84.2077 71.6175C78.6121 71.6175 74.0547 67.0602 74.0547 61.4645C74.0547 55.8689 78.6121 51.3115 84.2077 51.3115C89.8033 51.3115 94.3607 55.8689 94.3607 61.4645C94.3716 67.0602 89.8143 71.6175 84.2077 71.6175ZM84.2077 51.8143C78.8853 51.8143 74.5574 56.1421 74.5574 61.4645C74.5574 66.7869 78.8853 71.1148 84.2077 71.1148C89.5301 71.1148 93.858 66.7869 93.858 61.4645C93.858 56.1421 89.5301 51.8143 84.2077 51.8143Z" fill="black"/>
<path d="M84.2625 66.4482C84.1641 66.5138 84.0439 66.5138 83.9455 66.4591C83.0712 65.9673 79.0275 63.5302 79.1805 60.3389C79.3444 56.9618 83.0056 57.552 83.9127 59.2132C83.9455 59.2788 84.0111 59.3116 84.0876 59.3116C84.1641 59.3116 84.2188 59.2679 84.2515 59.2023C84.6996 58.1313 86.1313 57.3662 87.4756 57.869C89.0821 58.4591 90.7106 62.4482 84.2625 66.4482Z" fill="#FF4D4D"/>
<path d="M67.5193 75.6173C67.2789 75.6173 67.0275 75.5845 66.7871 75.5298C66.0221 75.3331 65.3773 74.8522 64.962 74.1746C64.5576 73.497 64.4374 72.6992 64.6341 71.9342C64.8308 71.1692 65.3117 70.5244 65.9893 70.1091C67.3882 69.2675 69.2133 69.7266 70.0548 71.1364C70.1314 71.2566 70.0876 71.4096 69.9674 71.4861C69.8472 71.5626 69.6942 71.5189 69.6177 71.3987C68.9182 70.2402 67.41 69.8577 66.2516 70.5462C65.6833 70.885 65.2898 71.4205 65.1259 72.0544C64.962 72.6883 65.0603 73.355 65.3991 73.9123C65.7379 74.4807 66.2734 74.8741 66.9073 75.038C67.5412 75.202 68.2079 75.1036 68.7652 74.7648C68.8855 74.6883 69.0385 74.732 69.115 74.8522C69.1915 74.9725 69.1477 75.1255 69.0275 75.202C68.5685 75.4752 68.0439 75.6173 67.5193 75.6173Z" fill="black"/>
<path d="M58.5465 80.0433C57.8689 80.0433 57.235 79.6171 57.0164 78.9286C56.7432 78.0871 57.2022 77.1799 58.0437 76.8958C58.8852 76.6226 59.7924 77.0816 60.0765 77.9231C60.3497 78.7646 59.8907 79.6718 59.0492 79.9559C58.8743 80.0105 58.7104 80.0433 58.5465 80.0433ZM58.5465 77.333C58.4372 77.333 58.3169 77.3548 58.2077 77.3876C57.6284 77.5734 57.3115 78.1963 57.4973 78.7756C57.6831 79.3548 58.306 79.6718 58.8852 79.486C59.4645 79.3002 59.7814 78.6772 59.5956 78.098C59.4426 77.628 59.0055 77.333 58.5465 77.333Z" fill="black"/>
<path d="M93.2127 99.7598C93.1909 99.7598 93.169 99.7598 93.1472 99.7488C93.016 99.716 92.9286 99.574 92.9723 99.4319L93.2674 98.3718C93.3002 98.2406 93.4423 98.1532 93.5843 98.1969C93.7155 98.2297 93.8029 98.3718 93.7592 98.5139L93.4641 99.574C93.4204 99.6833 93.322 99.7598 93.2127 99.7598Z" fill="black"/>
<path d="M92.1747 103.476C92.1528 103.476 92.1309 103.476 92.1091 103.465C91.9779 103.432 91.8905 103.29 91.9342 103.148L92.2293 102.088C92.2621 101.956 92.4042 101.869 92.5462 101.913C92.6774 101.946 92.7648 102.088 92.7211 102.23L92.426 103.29C92.3823 103.399 92.284 103.476 92.1747 103.476Z" fill="black"/>
<path d="M95.224 101.749C95.2022 101.749 95.1803 101.749 95.1585 101.738L94.0983 101.443C93.9672 101.41 93.8798 101.268 93.9235 101.126C93.9563 100.995 94.0983 100.907 94.2404 100.951L95.3005 101.246C95.4317 101.279 95.5191 101.421 95.4754 101.563C95.4426 101.683 95.3442 101.749 95.224 101.749Z" fill="black"/>
<path d="M91.519 100.711C91.4971 100.711 91.4752 100.711 91.4534 100.7L90.3933 100.405C90.2621 100.372 90.1747 100.23 90.2184 100.088C90.2512 99.9565 90.3933 99.869 90.5353 99.9127L91.5954 100.208C91.7266 100.241 91.814 100.383 91.7703 100.525C91.7266 100.645 91.6282 100.711 91.519 100.711Z" fill="black"/>
<path d="M105.792 1.75961C105.727 1.75961 105.661 1.73775 105.607 1.68311L104.404 0.426278C104.306 0.327917 104.306 0.163983 104.415 0.0656224C104.514 -0.0327383 104.678 -0.0327383 104.776 0.0765513L105.978 1.33338C106.077 1.43174 106.077 1.59568 105.967 1.69404C105.924 1.73775 105.858 1.75961 105.792 1.75961Z" fill="black"/>
<path d="M109.989 6.14194C109.924 6.14194 109.858 6.12008 109.803 6.06543L108.601 4.8086C108.503 4.71024 108.503 4.54631 108.612 4.44795C108.711 4.34959 108.874 4.34959 108.973 4.45888L110.175 5.71571C110.273 5.81407 110.273 5.978 110.164 6.07636C110.109 6.12008 110.044 6.14194 109.989 6.14194Z" fill="black"/>
<path d="M108.809 1.82542C108.743 1.82542 108.678 1.80356 108.623 1.74892C108.525 1.65056 108.525 1.48662 108.623 1.38826L109.836 0.186075C109.935 0.0877145 110.098 0.0877145 110.197 0.186075C110.295 0.284436 110.295 0.44837 110.197 0.546731L108.984 1.74892C108.94 1.80356 108.874 1.82542 108.809 1.82542Z" fill="black"/>
<path d="M104.557 6.02171C104.492 6.02171 104.426 5.99985 104.372 5.94521C104.273 5.84685 104.273 5.68291 104.372 5.58455L105.585 4.38236C105.683 4.284 105.847 4.284 105.945 4.38236C106.044 4.48072 106.044 4.64466 105.945 4.74302L104.732 5.94521C104.678 5.99985 104.623 6.02171 104.557 6.02171Z" fill="black"/>
<path d="M51.6285 45.5627C51.5629 45.5627 51.4974 45.5409 51.4537 45.4862C51.3553 45.3878 51.3553 45.2239 51.4537 45.1255C52.175 44.3824 52.8853 43.6829 53.6285 42.9725C53.7269 42.8742 53.8908 42.8742 53.9892 42.9835C54.0875 43.0818 54.0875 43.2458 53.9782 43.3441C53.246 44.0436 52.5356 44.743 51.8252 45.4862C51.7706 45.5409 51.6941 45.5627 51.6285 45.5627ZM56.0329 41.3441C55.9673 41.3441 55.8908 41.3113 55.8471 41.2567C55.7487 41.1474 55.7597 40.9944 55.869 40.896C56.6231 40.2184 57.399 39.5518 58.1859 38.896C58.2952 38.8086 58.4591 38.8195 58.5466 38.9288C58.634 39.0381 58.6231 39.1911 58.5138 39.2895C57.7378 39.9343 56.9619 40.601 56.2187 41.2786C56.1531 41.3223 56.0985 41.3441 56.0329 41.3441ZM60.7105 37.4425C60.634 37.4425 60.5575 37.4097 60.5138 37.3441C60.4263 37.2348 60.4482 37.0709 60.5575 36.9835C61.3553 36.3605 62.175 35.7376 62.9946 35.1474C63.1039 35.06 63.2679 35.0928 63.3444 35.2021C63.4318 35.3113 63.399 35.4753 63.2897 35.5518C62.47 36.1419 61.6613 36.7649 60.8635 37.3769C60.8198 37.4206 60.7651 37.4425 60.7105 37.4425ZM65.6394 33.8578C65.5629 33.8578 65.4755 33.8141 65.4318 33.7485C65.3553 33.6283 65.3881 33.4753 65.4974 33.3988C66.3389 32.8305 67.2023 32.2622 68.0547 31.7266C68.175 31.6501 68.328 31.6829 68.4045 31.8031C68.481 31.9234 68.4482 32.0764 68.328 32.1529C67.4755 32.6884 66.6231 33.2458 65.7815 33.8141C65.7378 33.8359 65.6832 33.8578 65.6394 33.8578ZM70.787 30.601C70.6996 30.601 70.6121 30.5572 70.5684 30.4698C70.5028 30.3496 70.5356 30.1966 70.6558 30.1201C71.5302 29.6064 72.4263 29.1037 73.3225 28.6228C73.4427 28.5572 73.5957 28.601 73.6613 28.7212C73.7269 28.8414 73.6832 28.9944 73.5629 29.06C72.6777 29.5408 71.7815 30.0327 70.9181 30.5463C70.8744 30.59 70.8307 30.601 70.787 30.601ZM76.1531 27.7157C76.0547 27.7157 75.9673 27.6611 75.9236 27.5736C75.858 27.4534 75.9127 27.3004 76.0438 27.2348C76.9509 26.7868 77.8799 26.3496 78.8088 25.9343C78.94 25.8796 79.0821 25.9343 79.1476 26.0654C79.2023 26.1966 79.1476 26.3387 79.0165 26.4042C78.0985 26.8195 77.1695 27.2567 76.2733 27.7048C76.2296 27.7048 76.1859 27.7157 76.1531 27.7157ZM81.705 25.213C81.6067 25.213 81.5083 25.1583 81.4646 25.06C81.4099 24.9288 81.4755 24.7868 81.6067 24.7321C82.5466 24.3496 83.5083 23.978 84.4591 23.6283C84.5903 23.5846 84.7323 23.6501 84.787 23.7813C84.8307 23.9124 84.7651 24.0545 84.634 24.1092C83.6941 24.4589 82.7433 24.8305 81.8034 25.213C81.7706 25.2021 81.7378 25.213 81.705 25.213ZM87.4209 23.1146C87.3116 23.1146 87.2132 23.049 87.1804 22.9398C87.1367 22.8086 87.2132 22.6665 87.3444 22.6228C88.3061 22.3059 89.2897 22.0108 90.2624 21.7266C90.3935 21.6829 90.5356 21.7704 90.5793 21.9015C90.6231 22.0327 90.5356 22.1747 90.4045 22.2184C89.4427 22.4917 88.4591 22.7977 87.4974 23.1037C87.4755 23.1037 87.4427 23.1146 87.4209 23.1146ZM138.372 22.8742C138.35 22.8742 138.317 22.8742 138.295 22.8633C137.333 22.5682 136.35 22.284 135.377 22.0108C135.246 21.978 135.159 21.8359 135.202 21.7048C135.235 21.5736 135.377 21.4862 135.508 21.5299C136.481 21.7922 137.476 22.0764 138.437 22.3824C138.568 22.4261 138.645 22.5682 138.601 22.6993C138.579 22.8086 138.481 22.8742 138.372 22.8742ZM93.2679 21.4316C93.1586 21.4316 93.0493 21.3551 93.0165 21.2348C92.9837 21.1037 93.0711 20.9616 93.2023 20.9288C94.1859 20.6884 95.1914 20.4589 96.175 20.2512C96.317 20.2184 96.4482 20.3059 96.47 20.448C96.5028 20.59 96.4154 20.7212 96.2733 20.743C95.2897 20.9507 94.2952 21.1802 93.3116 21.4206C93.3116 21.4316 93.2897 21.4316 93.2679 21.4316ZM132.492 21.2786C132.47 21.2786 132.448 21.2786 132.437 21.2676C131.454 21.0381 130.448 20.8195 129.465 20.6228C129.323 20.601 129.235 20.4589 129.268 20.3277C129.29 20.1857 129.432 20.0982 129.563 20.131C130.557 20.3277 131.563 20.5463 132.547 20.7758C132.678 20.8086 132.765 20.9398 132.732 21.0818C132.71 21.2021 132.601 21.2786 132.492 21.2786ZM99.2351 20.1966C99.1149 20.1966 99.0056 20.1092 98.9837 19.9889C98.9618 19.8469 99.0493 19.7157 99.1914 19.6939C100.186 19.519 101.202 19.366 102.208 19.2348C102.35 19.213 102.47 19.3113 102.492 19.4534C102.514 19.5955 102.415 19.7157 102.273 19.7376C101.279 19.8687 100.262 20.0217 99.2679 20.1857C99.2569 20.1966 99.246 20.1966 99.2351 20.1966ZM126.514 20.0982C126.503 20.0982 126.492 20.0982 126.47 20.0982C125.476 19.9343 124.459 19.7922 123.465 19.672C123.323 19.6501 123.224 19.5299 123.246 19.3878C123.268 19.2458 123.388 19.1474 123.53 19.1693C124.536 19.2895 125.552 19.4425 126.557 19.5955C126.7 19.6174 126.787 19.7485 126.765 19.8906C126.743 20.0108 126.634 20.0982 126.514 20.0982ZM105.268 19.3988C105.137 19.3988 105.027 19.3004 105.016 19.1693C105.006 19.0272 105.104 18.907 105.246 18.896C106.251 18.7977 107.279 18.7212 108.295 18.6665C108.437 18.6556 108.557 18.7649 108.568 18.907C108.579 19.049 108.47 19.1693 108.328 19.1802C107.323 19.2348 106.306 19.3113 105.301 19.4097C105.29 19.3988 105.279 19.3988 105.268 19.3988ZM120.47 19.3441C120.459 19.3441 120.459 19.3441 120.448 19.3441C119.443 19.2567 118.426 19.1802 117.421 19.1365C117.279 19.1255 117.169 19.0053 117.18 18.8742C117.191 18.7321 117.312 18.6228 117.443 18.6337C118.459 18.6884 119.476 18.754 120.492 18.8523C120.634 18.8633 120.732 18.9835 120.721 19.1255C120.71 19.2458 120.601 19.3441 120.47 19.3441ZM111.344 19.0381C111.202 19.0381 111.093 18.9288 111.093 18.7868C111.093 18.6447 111.202 18.5354 111.344 18.5245C112.361 18.5026 113.399 18.5026 114.394 18.5135C114.536 18.5135 114.645 18.6337 114.645 18.7758C114.645 18.9179 114.525 19.0272 114.394 19.0272C113.388 19.0163 112.372 19.0163 111.344 19.0381Z" fill="black"/>
<path d="M91.519 33.4864C91.4207 33.4864 91.3332 33.4318 91.2895 33.3444C91.2239 33.2132 91.2786 33.0711 91.4097 33.0056C91.4207 33.0056 92.437 32.5028 94.2403 31.8143C94.3715 31.7597 94.5135 31.8252 94.5682 31.9564C94.6228 32.0875 94.5573 32.2296 94.4261 32.2842C92.6447 32.9728 91.6392 33.4536 91.6392 33.4536C91.5846 33.4755 91.5518 33.4864 91.519 33.4864ZM97.2021 31.2788C97.0928 31.2788 96.9944 31.2132 96.9616 31.1039C96.9179 30.9728 96.9944 30.8307 97.1256 30.787C98.0764 30.47 99.06 30.164 100.044 29.8908C100.175 29.858 100.317 29.9345 100.361 30.0657C100.404 30.1968 100.317 30.3389 100.186 30.3826C99.2021 30.6668 98.2294 30.9618 97.2786 31.2788C97.2458 31.2788 97.2239 31.2788 97.2021 31.2788ZM103.06 29.6067C102.951 29.6067 102.841 29.5301 102.809 29.4099C102.776 29.2788 102.863 29.1367 102.994 29.1039C103.978 28.8635 104.983 28.6449 105.978 28.4482C106.12 28.4263 106.251 28.5138 106.273 28.6449C106.306 28.787 106.208 28.9181 106.076 28.94C105.093 29.1367 104.087 29.3553 103.115 29.5957C103.093 29.6066 103.071 29.6067 103.06 29.6067ZM136.24 29.3771C136.218 29.3771 136.197 29.3771 136.175 29.3662C135.202 29.1258 134.208 28.9072 133.213 28.7105C133.071 28.6886 132.983 28.5465 133.016 28.4154C133.038 28.2733 133.169 28.1859 133.311 28.2187C134.306 28.4154 135.311 28.634 136.295 28.8744C136.426 28.9072 136.514 29.0493 136.481 29.1804C136.448 29.3006 136.35 29.3771 136.24 29.3771ZM109.027 28.4154C108.907 28.4154 108.798 28.328 108.776 28.1968C108.754 28.0547 108.852 27.9236 108.983 27.9017C109.989 27.7378 111.005 27.6067 112.011 27.4864C112.153 27.4646 112.273 27.5739 112.295 27.705C112.306 27.8471 112.208 27.9673 112.076 27.9892C111.082 28.1094 110.065 28.2515 109.071 28.4045C109.06 28.4154 109.038 28.4154 109.027 28.4154ZM130.262 28.2077C130.251 28.2077 130.24 28.2077 130.229 28.2077C129.235 28.0657 128.229 27.9345 127.224 27.8362C127.082 27.8252 126.983 27.6941 126.994 27.5629C127.005 27.4209 127.126 27.3225 127.268 27.3334C128.284 27.4318 129.3 27.5629 130.295 27.705C130.437 27.7269 130.524 27.858 130.514 27.9892C130.492 28.1094 130.382 28.2077 130.262 28.2077ZM115.082 27.705C114.951 27.705 114.841 27.6067 114.83 27.4755C114.82 27.3334 114.929 27.2132 115.06 27.2023C116.076 27.1258 117.104 27.0711 118.109 27.0383C118.24 27.0274 118.371 27.1476 118.371 27.2788C118.371 27.4209 118.262 27.5411 118.131 27.5411C117.126 27.5739 116.109 27.6285 115.104 27.705C115.093 27.705 115.082 27.705 115.082 27.705ZM124.208 27.5957H124.197C123.202 27.5411 122.175 27.5083 121.169 27.4974C121.027 27.4974 120.918 27.3771 120.918 27.246C120.918 27.1039 121.027 26.9946 121.169 26.9946C122.186 27.0056 123.213 27.0383 124.229 27.093C124.371 27.1039 124.481 27.2241 124.47 27.3553C124.459 27.4974 124.339 27.5957 124.208 27.5957Z" fill="black"/>
</g>
<defs>
<clipPath id="clip0_172_8269">
<rect width="203.235" height="200" fill="white"/>
</clipPath>
</defs>
</svg>
