<svg width="122" height="216" viewBox="0 0 122 216" fill="none" xmlns="http://www.w3.org/2000/svg">
<path d="M8.09885 192.455C10.7985 193.1 13.5802 192.431 16.3385 192.114L84.1107 185.107C87.5967 184.743 90.2141 181.785 90.132 178.311L86.2938 17.6251L82.6787 16.7331C79.7091 16.0288 76.6339 15.8293 73.5939 16.1462L5.78657 23.3647C2.50008 23.7169 0 26.4634 0 29.7499V186.445C0 188.839 1.64324 190.917 3.99074 191.469L8.09885 192.455Z" fill="#2F4B4E"/>
<path d="M84.6274 186.011L12.1134 193.617C8.65081 193.981 5.63428 191.27 5.63428 187.783V31.1235C5.63428 28.1188 7.89961 25.5952 10.8927 25.29L83.4067 17.6841C86.8693 17.3203 89.8858 20.0316 89.8858 23.5177V180.178C89.8858 183.171 87.6205 185.694 84.6274 186.011Z" fill="#D0D0D0"/>
<path d="M11.503 193.91C10.0006 193.91 8.52164 193.359 7.39484 192.337C6.10372 191.175 5.36426 189.52 5.36426 187.783V31.1234C5.36426 27.9777 7.72349 25.3485 10.8574 25.0199L83.3714 17.414C85.0968 17.2379 86.8223 17.7896 88.1134 18.9516C89.4045 20.1136 90.144 21.7686 90.144 23.5057V180.166C90.144 183.311 87.7847 185.941 84.6508 186.269L12.1368 193.875C11.9372 193.898 11.7142 193.91 11.503 193.91ZM84.017 17.907C83.8175 17.907 83.6297 17.9187 83.4301 17.9422L10.9161 25.5481C8.05214 25.8532 5.89244 28.2477 5.89244 31.1234V187.783C5.89244 189.368 6.57322 190.882 7.74696 191.95C8.92071 193.006 10.5053 193.523 12.0781 193.359L84.5921 185.753C87.4561 185.448 89.6158 183.053 89.6158 180.177V23.5057C89.6158 21.9212 88.935 20.3953 87.7613 19.3389C86.7284 18.4117 85.3903 17.907 84.017 17.907Z" fill="black"/>
<path d="M11.5025 193.91C9.98833 193.91 8.52115 193.359 7.39435 192.337C6.10323 191.175 5.36377 189.52 5.36377 187.783V31.1234C5.36377 27.9777 7.723 25.3485 10.8569 25.0199L83.371 17.414C85.0964 17.2379 86.8218 17.7896 88.1129 18.9516C89.404 20.1136 90.1435 21.7686 90.1435 23.5057V88.0618C90.1435 88.2026 90.0261 88.32 89.8852 88.32C89.7444 88.32 89.627 88.2026 89.627 88.0618V23.5057C89.627 21.9212 88.9463 20.3953 87.7725 19.3389C86.5988 18.2826 85.0142 17.7661 83.4414 17.9304L10.9156 25.5481C8.05165 25.8532 5.89196 28.2477 5.89196 31.1234V187.783C5.89196 189.368 6.57273 190.882 7.74647 191.95C8.92022 193.006 10.5048 193.523 12.0776 193.359L43.4401 189.755C43.581 189.732 43.7101 189.837 43.7335 189.99C43.7453 190.131 43.6514 190.26 43.4988 190.283L12.1363 193.887C11.9367 193.898 11.7255 193.91 11.5025 193.91Z" fill="black"/>
<path d="M84.6268 186.269C84.4977 186.269 84.3803 186.163 84.3686 186.034C84.3568 185.893 84.4625 185.764 84.6033 185.741C87.4673 185.435 89.6269 183.041 89.6269 180.165V88.0732C89.6269 87.9323 89.7443 87.8149 89.8852 87.8149C90.026 87.8149 90.1434 87.9323 90.1434 88.0732V180.177C90.1434 183.323 87.7842 185.952 84.6503 186.281C84.6503 186.269 84.6385 186.269 84.6268 186.269Z" fill="black"/>
<path d="M85.9891 27.4729V176.903C85.9891 179.626 83.935 181.914 81.2237 182.196L15.4234 189.098C12.2778 189.426 9.54297 186.962 9.54297 183.804V34.3863C9.54297 31.6632 11.597 29.3744 14.3201 29.0927L35.917 26.8156V28.6232C35.917 30.6655 37.6894 32.2618 39.72 32.0505L56.5163 30.2899C58.2652 30.1021 59.6033 28.6232 59.6033 26.8626V24.3273L80.1086 22.1793C83.2542 21.8507 85.9891 24.3156 85.9891 27.4729Z" fill="#F2F2F1"/>
<path d="M14.86 189.403C13.4867 189.403 12.1486 188.898 11.1157 187.971C9.942 186.915 9.26123 185.4 9.26123 183.816V34.3863C9.26123 31.5223 11.4092 29.1279 14.2731 28.8345L35.8935 26.5574C35.964 26.5457 36.0461 26.5691 36.0931 26.6278C36.1518 26.6748 36.1752 26.7452 36.1752 26.8274V28.6349C36.1752 29.5387 36.5626 30.3955 37.2316 31.0059C37.9006 31.6045 38.7927 31.8979 39.6965 31.804L56.4928 30.0434C58.1126 29.8674 59.345 28.5058 59.345 26.8743V24.3273C59.345 24.1982 59.4506 24.0808 59.5797 24.0691L80.0851 21.9211C81.6579 21.7568 83.2307 22.2615 84.4045 23.3296C85.5782 24.386 86.259 25.9001 86.259 27.4847V176.914C86.259 179.778 84.111 182.173 81.2588 182.478L15.4586 189.379C15.2473 189.391 15.0595 189.403 14.86 189.403ZM35.6588 27.1091L14.3318 29.3509C11.7496 29.6209 9.80115 31.7806 9.80115 34.3863V183.816C9.80115 185.248 10.4115 186.621 11.4796 187.572C12.5477 188.534 13.968 188.992 15.3999 188.851L81.2001 181.95C83.7824 181.68 85.7308 179.508 85.7308 176.914V27.4729C85.7308 26.0409 85.1205 24.6677 84.0523 23.7052C82.9842 22.7427 81.564 22.285 80.132 22.4375L59.8614 24.5738V26.8743C59.8614 28.7758 58.4295 30.3603 56.5397 30.5599L39.7434 32.3205C38.6988 32.4261 37.6542 32.0857 36.8677 31.3815C36.0931 30.6772 35.6353 29.6796 35.6353 28.6232V27.1091H35.6588Z" fill="black"/>
<path d="M78.6645 177.759L17.5827 184.332C15.5404 184.555 13.7681 182.912 13.7681 180.811V97.0755C13.7681 95.2561 15.1061 93.742 16.8668 93.5542L77.9485 86.9812C79.9908 86.7582 81.7632 88.4015 81.7632 90.5025V174.226C81.7632 176.045 80.4251 177.571 78.6645 177.759Z" fill="white"/>
<path d="M17.2188 184.613C16.315 184.613 15.4465 184.273 14.7657 183.663C13.9558 182.935 13.498 181.902 13.498 180.799V97.0755C13.498 95.127 14.93 93.4955 16.8315 93.2843L77.9132 86.7113C78.9461 86.6056 79.979 86.9343 80.7537 87.6385C81.5636 88.3663 82.0214 89.3992 82.0214 90.5025V174.226C82.0214 176.186 80.5894 177.806 78.6879 178.017L17.6062 184.59C17.477 184.602 17.3479 184.613 17.2188 184.613ZM78.3123 87.2277C78.195 87.2277 78.0893 87.2395 77.9719 87.2512L16.8902 93.8242C15.2587 94.0002 14.0262 95.4087 14.0262 97.0872V180.811C14.0262 181.761 14.4253 182.653 15.1178 183.275C15.7986 183.886 16.6554 184.167 17.5592 184.074L78.641 177.501C80.2725 177.324 81.5049 175.928 81.5049 174.238V90.5025C81.5049 89.5517 81.1058 88.6597 80.4133 88.0376C79.8147 87.5094 79.087 87.2277 78.3123 87.2277Z" fill="black"/>
<path d="M44.6377 181.316L18.2988 157.207L26.6911 147.582L53.03 171.691L44.6377 181.316Z" fill="white"/>
<path d="M44.6377 181.574C44.5673 181.574 44.5086 181.55 44.4617 181.503L18.1228 157.394C18.0172 157.301 18.0054 157.136 18.0993 157.031L26.4916 147.406C26.5386 147.347 26.609 147.324 26.6794 147.312C26.7498 147.312 26.8202 147.335 26.8672 147.382L53.2061 171.491C53.3117 171.585 53.3234 171.749 53.2295 171.855L44.8373 181.48C44.7903 181.538 44.7199 181.562 44.6495 181.574H44.6377ZM18.6627 157.183L44.6142 180.928L52.6544 171.702L26.7029 147.958L18.6627 157.183Z" fill="black"/>
<path d="M74.1106 95.2092L81.8808 102.322V95.8313L77.2562 91.5941L80.6836 87.662C79.9911 87.0399 79.052 86.6995 78.0426 86.8052L74.7796 87.1573L73.7232 88.3663L72.6434 87.3803L66.2934 88.0611L70.5659 91.9697L62.1149 101.677L52.678 93.0378L56.3753 88.8005L49.3915 89.5517L49.0746 89.9273L42.9124 90.5846L46.0228 93.4251L37.5719 103.132L28.0997 94.4697L30.6233 91.5706L23.6395 92.3218L23.3226 92.6857L19.5314 93.0965L21.4446 94.8453L14.0265 103.367V105.491L13.6509 105.151V111.642L22.8413 120.046L14.0265 130.152V137.417L26.3508 123.273L35.7878 131.912L13.6392 157.324V164.589L39.309 135.128L48.7811 143.791L14.4373 183.205C15.1533 184.097 16.2684 184.625 17.4773 184.496L19.8718 184.238L52.3024 147.018L61.7745 155.681L38.6517 182.219L45.6355 181.468L65.2957 158.908L74.7679 167.571L64.4154 179.449L71.3992 178.698L78.2891 170.798L81.8925 174.097V167.606L81.4348 167.183L81.8925 166.655V159.39L77.9135 163.956L68.4414 155.293L76.8924 145.586L81.8925 150.164V143.673L80.038 141.983L81.8925 139.859V132.593L76.5168 138.755L67.0446 130.093L75.4956 120.386L81.8808 126.231V119.752L78.6412 116.794L81.8808 113.074V105.808L75.12 113.567L65.6479 104.904L74.1106 95.2092ZM49.5441 96.6529L58.981 105.292L50.53 114.999L41.0931 106.36L49.5441 96.6529ZM16.5031 107.78L24.9541 98.0731L34.4262 106.735L25.9752 116.442L16.5031 107.78ZM29.4965 119.67L37.9474 109.963L47.3844 118.602L38.9334 128.309L29.4965 119.67ZM42.4546 131.525L50.9056 121.818L60.3777 130.48L51.9268 140.187L42.4546 131.525ZM73.3711 142.382L64.9201 152.089L55.448 143.427L63.899 133.72L73.3711 142.382ZM71.9744 117.182L63.5234 126.889L54.0512 118.226L62.5022 108.519L71.9744 117.182Z" fill="white"/>
<path d="M17.1017 184.79C15.9866 184.79 14.9302 184.285 14.2142 183.381C14.1321 183.287 14.1321 183.135 14.226 183.041L48.4055 143.814L39.3324 135.504L13.8386 164.766C13.7682 164.848 13.6508 164.883 13.5452 164.836C13.4396 164.801 13.3691 164.695 13.3691 164.59V157.324C13.3691 157.265 13.3926 157.195 13.4396 157.148L35.4238 131.924L26.3743 123.638L14.2142 137.593C14.1438 137.676 14.0264 137.711 13.9208 137.664C13.8152 137.629 13.7447 137.523 13.7447 137.417V130.152C13.7447 130.093 13.7682 130.023 13.8152 129.976L22.4539 120.058L13.4513 111.818C13.3926 111.771 13.3691 111.701 13.3691 111.618V105.128C13.3691 105.022 13.4278 104.928 13.5217 104.893C13.5922 104.858 13.6743 104.858 13.7447 104.893V103.344C13.7447 103.285 13.7682 103.214 13.8152 103.168L21.0689 94.8456L19.3435 93.2728C19.2731 93.2024 19.2379 93.0968 19.2731 93.0029C19.3083 92.909 19.3905 92.8385 19.4961 92.8268L23.1817 92.4277L23.4399 92.1343C23.4868 92.0873 23.5455 92.0521 23.6042 92.0404L30.588 91.2892C30.6936 91.2775 30.7993 91.3361 30.8462 91.43C30.8932 91.5239 30.8814 91.6413 30.811 91.7235L28.4635 94.4231L37.5366 102.733L45.6472 93.4254L42.7245 90.761C42.6541 90.6906 42.6189 90.5849 42.6541 90.491C42.6893 90.3971 42.7715 90.3267 42.8771 90.315L48.9337 89.6577L49.1919 89.3642C49.2388 89.3173 49.2975 89.2821 49.3562 89.2703L56.34 88.5192C56.4456 88.5074 56.5513 88.5661 56.5982 88.66C56.6452 88.7539 56.6334 88.8713 56.563 88.9534L53.03 93.0029L62.0796 101.29L70.1902 91.9817L66.1056 88.2374C66.0351 88.167 65.9999 88.0614 66.0351 87.9675C66.0704 87.8736 66.1525 87.8032 66.2582 87.7914L72.6081 87.1107C72.6785 87.0989 72.7607 87.1224 72.8194 87.1811L73.6997 87.9792L74.58 86.9698C74.627 86.9229 74.6856 86.8876 74.7443 86.8759L78.0074 86.5238C79.052 86.4181 80.0497 86.7351 80.8478 87.4393C80.9535 87.5332 80.9652 87.6975 80.8713 87.8032L77.6083 91.5474L82.045 95.6086C82.1037 95.6555 82.1272 95.726 82.1272 95.8081V102.299C82.1272 102.405 82.0685 102.498 81.9746 102.534C81.8807 102.581 81.7633 102.557 81.6929 102.487L74.1223 95.5499L66.0117 104.858L75.0847 113.168L81.6694 105.609C81.7399 105.527 81.8572 105.492 81.9629 105.538C82.0685 105.574 82.1389 105.679 82.1389 105.785V113.05C82.1389 113.109 82.1155 113.18 82.0685 113.227L78.9933 116.748L82.045 119.541C82.1037 119.588 82.1272 119.659 82.1272 119.741V126.232C82.1272 126.337 82.0685 126.431 81.9746 126.466C81.8807 126.513 81.7633 126.49 81.6929 126.419L75.5073 120.762L67.3967 130.07L76.4697 138.38L81.6694 132.417C81.7399 132.335 81.8572 132.3 81.9629 132.347C82.0685 132.382 82.1389 132.488 82.1389 132.593V139.859C82.1389 139.918 82.1155 139.988 82.0685 140.035L80.3901 141.96L82.045 143.474C82.1037 143.521 82.1272 143.591 82.1272 143.673V150.164C82.1272 150.27 82.0685 150.364 81.9746 150.399C81.8807 150.446 81.7633 150.423 81.6929 150.352L76.8923 145.962L68.7817 155.27L77.8548 163.58L81.6577 159.214C81.7281 159.132 81.8455 159.097 81.9511 159.143C82.0568 159.179 82.1272 159.284 82.1272 159.39V166.655C82.1272 166.714 82.1037 166.785 82.0568 166.831L81.7633 167.172L82.0333 167.418C82.092 167.465 82.1155 167.536 82.1155 167.618V174.109C82.1155 174.214 82.0568 174.308 81.9629 174.343C81.869 174.39 81.7516 174.367 81.6812 174.297L78.2773 171.174L71.5752 178.874C71.5283 178.921 71.4696 178.956 71.4109 178.968L64.4271 179.719C64.3215 179.731 64.2158 179.672 64.1689 179.578C64.1219 179.484 64.1337 179.367 64.2041 179.285L74.3805 167.606L65.3074 159.296L45.8232 181.656C45.7763 181.703 45.7176 181.738 45.6589 181.75L38.6751 182.501C38.5695 182.513 38.4638 182.454 38.4169 182.36C38.3699 182.266 38.3817 182.149 38.4521 182.067L61.4106 155.728L52.3375 147.418L20.0595 184.426C20.0125 184.473 19.9539 184.508 19.8952 184.52L17.5007 184.778C17.3716 184.778 17.2308 184.79 17.1017 184.79ZM14.7776 183.217C15.4701 183.968 16.4444 184.344 17.442 184.238L19.7308 183.992L52.1028 146.854C52.1497 146.796 52.2201 146.772 52.2906 146.76C52.361 146.76 52.4314 146.784 52.4784 146.831L61.9505 155.493C62.0561 155.587 62.0679 155.751 61.974 155.857L39.2855 181.891L45.5063 181.222L65.0961 158.744C65.1431 158.686 65.2135 158.662 65.2839 158.65C65.3544 158.65 65.4248 158.674 65.4717 158.721L74.9439 167.383C75.0495 167.477 75.0613 167.641 74.9674 167.747L65.0609 179.121L71.2818 178.452L78.1013 170.634C78.1482 170.576 78.2186 170.552 78.2891 170.541C78.3595 170.541 78.4299 170.564 78.4769 170.611L81.646 173.51V167.735L81.2704 167.395C81.1647 167.301 81.153 167.137 81.2469 167.031L81.646 166.573V160.106L78.1247 164.144C78.0778 164.202 78.0074 164.226 77.9369 164.238C77.8665 164.238 77.7961 164.214 77.7491 164.167L68.277 155.505C68.1714 155.411 68.1596 155.247 68.2535 155.141L76.7045 145.434C76.7514 145.375 76.8219 145.352 76.8923 145.34C76.9627 145.34 77.0331 145.364 77.0801 145.411L81.6342 149.577V143.803L79.8736 142.183C79.768 142.089 79.7562 141.925 79.8501 141.819L81.6342 139.777V133.309L76.728 138.943C76.681 139.002 76.6106 139.025 76.5402 139.037C76.4697 139.037 76.3993 139.014 76.3524 138.967L66.8802 130.305C66.7746 130.211 66.7629 130.046 66.8568 129.941L75.3077 120.234C75.3547 120.175 75.4251 120.152 75.4955 120.14C75.566 120.14 75.6364 120.163 75.6833 120.21L81.6225 125.656V119.87L78.4651 116.983C78.3595 116.889 78.3477 116.724 78.4416 116.619L81.6108 112.98V106.513L75.3077 113.743C75.2608 113.802 75.1904 113.825 75.1199 113.837C75.0495 113.837 74.9791 113.813 74.9321 113.766L65.46 105.104C65.3544 105.01 65.3426 104.846 65.4365 104.74L73.8875 95.0334C73.9345 94.9748 74.0049 94.9513 74.0753 94.9395C74.1457 94.9395 74.2162 94.963 74.2631 95.01L81.599 101.724V95.949L77.0566 91.7939C76.951 91.7 76.9392 91.5357 77.0331 91.43L80.2844 87.6975C79.6389 87.2046 78.8525 86.9933 78.0543 87.0754L74.8969 87.4158L73.911 88.5544C73.864 88.613 73.7936 88.6365 73.7232 88.6483C73.6528 88.6483 73.5823 88.6248 73.5354 88.5778L72.5494 87.6741L66.9037 88.2844L70.7536 91.8056C70.8592 91.8995 70.871 92.0639 70.7771 92.1695L62.3261 101.876C62.2792 101.935 62.2087 101.959 62.1383 101.97C62.0679 101.97 61.9975 101.947 61.9505 101.9L52.5136 93.2611C52.4079 93.1672 52.3962 93.0029 52.4901 92.8972L55.7414 89.1647L49.5205 89.8337L49.2623 90.1272C49.2154 90.1741 49.1567 90.2093 49.098 90.2211L43.511 90.8197L46.1871 93.2728C46.2927 93.3667 46.3045 93.531 46.2106 93.6367L37.7596 103.344C37.7126 103.402 37.6422 103.426 37.5718 103.437C37.5014 103.437 37.4309 103.414 37.384 103.367L27.9119 94.7048C27.8062 94.6109 27.7945 94.4466 27.8884 94.3409L29.9659 91.9582L23.7451 92.6273L23.4868 92.9207C23.4399 92.9677 23.3812 93.0029 23.3225 93.0146L20.1064 93.355L21.5854 94.7165C21.691 94.8104 21.7027 94.9748 21.6088 95.0804L14.2495 103.52V105.55C14.2495 105.656 14.1908 105.75 14.0969 105.785C14.0264 105.82 13.9443 105.82 13.8739 105.785V111.583L22.9704 119.917C23.076 120.011 23.0878 120.175 22.9939 120.281L14.2495 130.316V136.784L26.1278 123.156C26.1747 123.098 26.2451 123.074 26.3156 123.062C26.386 123.062 26.4564 123.086 26.5034 123.133L35.9403 131.772C36.0459 131.866 36.0577 132.03 35.9638 132.136L13.8973 157.43V163.897L39.1094 134.964C39.1564 134.906 39.2268 134.882 39.2972 134.87C39.3676 134.87 39.438 134.894 39.485 134.941L48.9571 143.603C49.0628 143.697 49.0745 143.861 48.9806 143.967L14.7776 183.217ZM64.9083 152.347C64.8379 152.347 64.7792 152.324 64.7323 152.277L55.2602 143.615C55.1545 143.521 55.1428 143.357 55.2367 143.251L63.6876 133.544C63.7346 133.485 63.805 133.462 63.8755 133.45C63.9459 133.45 64.0163 133.474 64.0632 133.521L73.5354 142.183C73.641 142.277 73.6528 142.441 73.5589 142.547L65.1079 152.254C65.0609 152.312 64.9905 152.336 64.9201 152.347C64.9201 152.347 64.9201 152.347 64.9083 152.347ZM55.8118 143.392L64.8849 151.702L72.9955 142.394L63.9224 134.084L55.8118 143.392ZM51.9267 140.457C51.8563 140.457 51.7976 140.434 51.7506 140.387L42.2785 131.725C42.1729 131.631 42.1611 131.467 42.255 131.361L50.706 121.654C50.753 121.595 50.8234 121.572 50.8938 121.56C50.9642 121.56 51.0347 121.584 51.0816 121.631L60.5537 130.293C60.6594 130.387 60.6711 130.551 60.5772 130.657L52.1263 140.364C52.0793 140.422 52.0089 140.446 51.9384 140.457C51.9267 140.457 51.9267 140.457 51.9267 140.457ZM42.8184 131.513L51.8915 139.824L60.0021 130.516L50.929 122.206L42.8184 131.513ZM38.9333 128.567C38.8629 128.567 38.8042 128.544 38.7573 128.497L29.3204 119.858C29.2147 119.764 29.203 119.6 29.2969 119.494L37.7479 109.787C37.7948 109.729 37.8652 109.705 37.9357 109.694C38.0061 109.694 38.0765 109.717 38.1235 109.764L47.5604 118.403C47.666 118.497 47.6777 118.661 47.5839 118.767L39.1329 128.473C39.0859 128.532 39.0155 128.556 38.9451 128.567H38.9333ZM29.8603 119.647L38.9099 127.934L47.0205 118.626L37.9709 110.339L29.8603 119.647ZM63.5233 127.147C63.4529 127.147 63.3942 127.124 63.3473 127.077L53.8751 118.414C53.7695 118.321 53.7578 118.156 53.8517 118.051L62.3026 108.344C62.3496 108.285 62.42 108.262 62.4904 108.25C62.5609 108.25 62.6313 108.273 62.6782 108.32L72.1504 116.983C72.256 117.076 72.2677 117.241 72.1738 117.346L63.7229 127.053C63.6759 127.112 63.6055 127.135 63.5351 127.147H63.5233ZM54.4268 118.191L63.4999 126.502L71.6104 117.194L62.5374 108.884L54.4268 118.191ZM25.9634 116.701C25.893 116.701 25.8343 116.677 25.7874 116.63L16.3152 107.968C16.2096 107.874 16.1979 107.71 16.2918 107.604L24.7427 97.8974C24.7897 97.8387 24.8601 97.8152 24.9305 97.8035C25.001 97.8035 25.0714 97.827 25.1183 97.8739L34.5905 106.536C34.6961 106.63 34.7079 106.794 34.614 106.9L26.163 116.607C26.116 116.666 26.0456 116.689 25.9752 116.701C25.9752 116.701 25.9752 116.701 25.9634 116.701ZM16.8669 107.757L25.94 116.067L34.0506 106.759L24.9775 98.449L16.8669 107.757ZM50.53 115.257C50.4595 115.257 50.4008 115.234 50.3539 115.187L40.917 106.548C40.8113 106.454 40.7996 106.29 40.8935 106.184L49.3445 96.4771C49.3914 96.4185 49.4618 96.395 49.5323 96.3833C49.6027 96.3833 49.6731 96.4067 49.7201 96.4537L59.157 105.092C59.2626 105.186 59.2744 105.351 59.1805 105.456L50.7295 115.163C50.6825 115.222 50.6121 115.245 50.5417 115.257C50.5417 115.257 50.5417 115.257 50.53 115.257ZM41.4569 106.337L50.5065 114.623L58.6171 105.315L49.5675 97.0288L41.4569 106.337Z" fill="black"/>
<path d="M24.6839 76.2887C25.9674 76.2887 27.0079 75.2482 27.0079 73.9646C27.0079 72.6811 25.9674 71.6406 24.6839 71.6406C23.4004 71.6406 22.3599 72.6811 22.3599 73.9646C22.3599 75.2482 23.4004 76.2887 24.6839 76.2887Z" fill="#FBBE21"/>
<path d="M24.6956 39.9731C19.3667 39.9731 15.0474 44.2808 15.0474 49.5979C15.0474 50.9242 15.646 52.7787 16.5498 54.821C18.8268 59.962 23.0288 66.2533 24.3082 68.1431C24.496 68.413 24.8951 68.413 25.0712 68.1431C26.867 65.5139 34.3438 54.2694 34.3438 49.5979C34.3438 44.2808 30.0244 39.9731 24.6956 39.9731Z" fill="#FBBE21"/>
<path d="M24.6841 54.9971C27.5688 54.9971 29.9073 52.6638 29.9073 49.7857C29.9073 46.9075 27.5688 44.5742 24.6841 44.5742C21.7994 44.5742 19.4609 46.9075 19.4609 49.7857C19.4609 52.6638 21.7994 54.9971 24.6841 54.9971Z" fill="white"/>
<path d="M62.4433 35.1722C72.5493 33.752 80.7068 41.4517 80.6834 52.3676C80.6599 63.2482 72.4789 73.2368 62.3729 74.657C52.267 76.0773 44.086 68.3775 44.1094 57.5086C44.1212 46.5927 52.3374 36.5924 62.4433 35.1722Z" fill="white"/>
<path d="M59.9902 75.0798C56.152 75.0798 52.5603 73.7652 49.6964 71.2769C45.9639 68.0256 43.8277 63.002 43.8394 57.4971C43.8629 46.4756 52.1847 36.3462 62.4081 34.9025C67.1383 34.2335 71.6337 35.5246 75.0845 38.5294C78.817 41.7806 80.965 46.8278 80.9533 52.3561C80.9298 63.3541 72.6197 73.4718 62.4198 74.9038C61.5982 75.0329 60.7883 75.0798 59.9902 75.0798ZM62.4902 35.4307C52.5251 36.8274 44.3911 46.7339 44.3793 57.4971C44.3676 62.8494 46.4334 67.7204 50.0603 70.8778C53.4054 73.7887 57.76 75.0329 62.3494 74.3873C72.3028 72.9906 80.4133 63.1076 80.4368 52.3561C80.4486 46.9803 78.371 42.0741 74.7559 38.9284C71.4107 36.0293 67.0561 34.7851 62.4902 35.4307Z" fill="black"/>
<path d="M58.0533 64.1758V67.2745C58.0533 67.5679 57.8303 67.8496 57.5486 67.8848L56.0814 68.0844C55.7997 68.1196 55.5767 67.9083 55.5767 67.6149V64.5162L58.0533 64.1758Z" fill="black"/>
<path d="M69.169 62.6143V65.7129C69.169 66.0064 68.946 66.2881 68.6643 66.3233L67.1971 66.5346C66.9154 66.5698 66.7041 66.3585 66.7041 66.0651V62.9664L69.169 62.6143Z" fill="black"/>
<path d="M69.4859 41.7451C70.155 41.6512 70.6832 42.1559 70.6832 42.8719L70.648 61.6519C70.648 62.0627 70.3428 62.4383 69.9554 62.497L69.169 62.6026L66.7042 62.943L58.0537 64.1637L55.5888 64.5041L54.8024 64.6097C54.4268 64.6684 54.1099 64.375 54.1099 63.9641L54.1451 45.7007C54.1451 44.6912 54.908 43.7757 55.8353 43.6466L69.4859 41.7451Z" fill="#FFF597"/>
<path d="M54.7084 64.9033C54.4971 64.9033 54.3093 64.8329 54.1567 64.692C53.9572 64.516 53.8516 64.2577 53.8516 63.976L53.8868 45.7125C53.8868 44.5857 54.7436 43.5411 55.8 43.4003L69.4507 41.487C69.838 41.4284 70.2019 41.534 70.4835 41.7805C70.7887 42.0387 70.953 42.4378 70.953 42.8721L70.9178 61.652C70.9178 62.1919 70.5188 62.6849 70.0023 62.7553L54.8492 64.8798C54.7906 64.8916 54.7553 64.9033 54.7084 64.9033ZM69.5211 42.0035L55.8704 43.9284C55.0605 44.0458 54.4032 44.844 54.4032 45.7243L54.368 63.9878C54.368 64.1169 54.415 64.2342 54.4971 64.3047C54.5675 64.3634 54.6614 64.3868 54.7553 64.3751L69.9202 62.2389C70.1666 62.2037 70.3897 61.9337 70.3897 61.6637L70.4249 42.8838C70.4249 42.6021 70.3192 42.3556 70.1314 42.1913C69.9671 42.0387 69.7441 41.98 69.5211 42.0035Z" fill="black"/>
<path d="M67.4908 58.4239C68.1833 58.33 68.7349 58.8582 68.7349 59.5976C68.7349 60.3371 68.1715 61.0296 67.479 61.1235C66.7865 61.2174 66.2349 60.6892 66.2349 59.9498C66.2466 59.2103 66.81 58.5178 67.4908 58.4239Z" fill="white"/>
<path d="M67.3263 61.3936C67.0094 61.3936 66.7043 61.2879 66.4695 61.0767C66.1643 60.8067 65.9883 60.3959 65.9883 59.9499C65.9883 59.0813 66.6573 58.2832 67.4672 58.1658C67.8663 58.1071 68.2419 58.2245 68.5236 58.471C68.8287 58.7409 69.0048 59.1517 69.0048 59.5977C69.0048 60.4663 68.3358 61.2645 67.5259 61.3818C67.4555 61.3936 67.3968 61.3936 67.3263 61.3936ZM67.5376 58.6822C66.9742 58.7644 66.5165 59.3278 66.5047 59.9499C66.5047 60.2433 66.6104 60.5133 66.8099 60.6776C66.986 60.8302 67.209 60.8889 67.4555 60.8654C68.0189 60.7832 68.4766 60.2198 68.4766 59.5977C68.4766 59.2926 68.371 59.0343 68.1714 58.87C67.9954 58.7174 67.7724 58.647 67.5376 58.6822Z" fill="black"/>
<path d="M57.2789 59.8677C57.9714 59.7738 58.523 60.302 58.523 61.0415C58.523 61.781 57.9596 62.4735 57.2671 62.5674C56.5746 62.6613 56.0229 62.1331 56.0229 61.3936C56.0229 60.6424 56.5863 59.9616 57.2789 59.8677Z" fill="white"/>
<path d="M57.1027 62.8374C56.7858 62.8374 56.4806 62.7318 56.2459 62.5205C55.9407 62.2506 55.7646 61.8397 55.7646 61.3937C55.7646 60.5251 56.4337 59.727 57.2436 59.6096C57.6426 59.5509 58.0182 59.6683 58.3117 59.9148C58.6169 60.1848 58.7929 60.5956 58.7929 61.0416C58.7929 61.9102 58.1239 62.7083 57.314 62.8257C57.2436 62.8257 57.1731 62.8374 57.1027 62.8374ZM57.4431 60.1143C57.3962 60.1143 57.3609 60.1143 57.314 60.1261C56.7506 60.2082 56.2928 60.7716 56.2928 61.3937C56.2928 61.6989 56.3985 61.9571 56.598 62.1214C56.7741 62.274 56.9971 62.3327 57.2436 62.2975C57.807 62.2153 58.2647 61.6519 58.2765 61.0299C58.2765 60.7247 58.1708 60.4665 57.9713 60.3021C57.8187 60.1848 57.6309 60.1143 57.4431 60.1143Z" fill="black"/>
<path d="M67.5256 47.8724C68.2064 47.7785 68.7581 48.2949 68.7581 49.0226L68.7463 55.0087C68.7463 55.7482 68.1947 56.4172 67.5139 56.5111L57.2671 57.9548C56.5863 58.0487 56.0347 57.5323 56.0347 56.8046L56.0464 50.8185C56.0464 50.079 56.5981 49.41 57.2788 49.3161L67.5256 47.8724Z" fill="white"/>
<path d="M57.1027 58.2363C56.7858 58.2363 56.4924 58.1307 56.2459 57.9194C55.9407 57.6495 55.7646 57.2504 55.7646 56.8044L55.7764 50.8183C55.7764 49.9614 56.4337 49.175 57.2318 49.0576L67.4786 47.6139C67.866 47.5552 68.2416 47.6609 68.5233 47.9191C68.8284 48.1891 69.0045 48.5881 69.0045 49.0342L68.9928 55.0203C68.9928 55.8771 68.3355 56.6635 67.5373 56.7809L57.2905 58.2246C57.2318 58.2246 57.1731 58.2363 57.1027 58.2363ZM67.5608 48.1304L57.314 49.5741C56.7623 49.6563 56.3046 50.2079 56.3046 50.8183L56.2928 56.8044C56.2928 57.0978 56.3985 57.356 56.5863 57.5204C56.7623 57.6729 56.9853 57.7316 57.2201 57.6964L67.4669 56.2527C68.0186 56.1705 68.4763 55.6189 68.4763 55.0085L68.4881 49.0224C68.4881 48.729 68.3824 48.4708 68.1946 48.3064C68.0303 48.1656 67.8073 48.1069 67.5608 48.1304Z" fill="black"/>
<path d="M66.1292 44.0696C66.6926 43.9874 67.1504 44.4217 67.1504 45.032C67.1504 45.6424 66.6926 46.2058 66.1175 46.2879L58.6877 47.3326C58.1243 47.4147 57.6665 46.9804 57.6665 46.3701C57.6665 45.7597 58.1243 45.1963 58.6994 45.1142L66.1292 44.0696Z" fill="white"/>
<path d="M58.5585 47.6024C58.2885 47.6024 58.0303 47.5085 57.819 47.3324C57.5491 47.0977 57.4082 46.7455 57.4082 46.3699C57.4082 45.6187 57.9599 44.9497 58.6641 44.8558L66.0939 43.8112C66.4343 43.7642 66.7512 43.8581 67.0095 44.0694C67.2794 44.3041 67.4203 44.6563 67.4203 45.0319C67.4203 45.7831 66.8686 46.4521 66.1644 46.546L58.7345 47.5906C58.6758 47.6024 58.6172 47.6024 58.5585 47.6024ZM66.1644 44.3276L58.7345 45.3722C58.3002 45.4309 57.9364 45.8887 57.9364 46.3699C57.9364 46.6047 58.0186 46.8042 58.1711 46.9333C58.3003 47.0507 58.4763 47.0977 58.6641 47.0742L66.0939 46.0295C66.5399 45.9709 66.8921 45.5248 66.8921 45.0319C66.8921 44.7971 66.8099 44.5976 66.6573 44.4685C66.5282 44.3511 66.3522 44.3041 66.1644 44.3276Z" fill="black"/>
<path d="M14.5546 87.4866C14.4842 87.4866 14.4255 87.4631 14.3785 87.4161C14.3199 87.3692 14.2964 87.2988 14.2964 87.2166V81.9582C14.2964 81.8291 14.402 81.7117 14.5311 81.7L39.2502 79.0708C39.3207 79.0591 39.4028 79.0825 39.4498 79.1412C39.5085 79.1882 39.5319 79.2586 39.5319 79.3408V84.5991C39.5319 84.7283 39.4263 84.8456 39.2972 84.8574L14.5781 87.4866C14.5781 87.4866 14.5663 87.4866 14.5546 87.4866ZM14.8246 82.193V86.9232L39.0155 84.3527V79.6225L14.8246 82.193Z" fill="black"/>
<path d="M56.1643 200.636L56.939 208.84C56.9624 209.075 56.8099 209.286 56.6103 209.298L52.5374 209.544C52.3614 209.556 52.2088 209.415 52.1853 209.216L51.4224 201.751L56.1643 200.636Z" fill="#FFDBC5"/>
<path d="M52.514 209.814C52.2088 209.814 51.9623 209.58 51.9271 209.251L51.1642 201.786C51.1525 201.657 51.2346 201.539 51.3637 201.504L56.1057 200.377C56.1761 200.354 56.2583 200.377 56.3169 200.424C56.3756 200.471 56.4226 200.542 56.4226 200.612L57.1973 208.828C57.2207 209.016 57.162 209.204 57.0447 209.357C56.939 209.486 56.7864 209.568 56.6221 209.58L52.5492 209.826C52.5375 209.814 52.5257 209.814 52.514 209.814ZM51.7041 201.962L52.4436 209.192C52.4553 209.251 52.4905 209.286 52.514 209.286L56.5869 209.04C56.6104 209.04 56.6339 209.016 56.6339 209.004C56.6573 208.969 56.6808 208.922 56.6691 208.875L55.9179 200.964L51.7041 201.962Z" fill="black"/>
<path d="M57.5844 206.716C57.8543 207.69 58.4295 210.413 58.6642 212.068C58.8168 213.101 58.1595 214.075 57.1618 214.345C54.3448 215.108 47.5958 215.073 41.9853 215.319C41.5979 215.331 40.8937 215.143 40.5768 214.216C39.5087 211.059 45.4126 210.073 51.2461 206.868C51.3635 206.81 51.5044 206.81 51.61 206.892C51.6804 206.939 51.7626 206.997 51.8682 207.068C52.8776 207.713 54.5678 207.713 55.6007 207.091L56.7627 206.387C57.0679 206.188 57.4787 206.352 57.5844 206.716Z" fill="#C67C4E"/>
<path d="M41.9386 215.589C41.3869 215.589 40.6475 215.261 40.3306 214.31C39.5089 211.88 42.232 210.695 46.0115 209.063C47.5843 208.383 49.3567 207.608 51.1173 206.645C51.3286 206.528 51.5633 206.551 51.7628 206.681C51.8215 206.728 51.9037 206.786 52.0093 206.845C52.9249 207.432 54.5094 207.444 55.4601 206.868L56.6222 206.164C56.8452 206.035 57.1151 206.012 57.3499 206.105C57.5964 206.199 57.7724 206.399 57.8429 206.657C58.1246 207.667 58.688 210.401 58.9344 212.033C59.0988 213.195 58.371 214.298 57.2442 214.603C55.1198 215.179 50.906 215.308 46.4575 215.437C44.9786 215.484 43.441 215.531 42.009 215.589C41.9738 215.578 41.9621 215.589 41.9386 215.589ZM51.4107 207.091C51.399 207.091 51.3872 207.091 51.3755 207.103C49.5914 208.089 47.8073 208.864 46.2228 209.545C42.7015 211.07 40.1662 212.162 40.8353 214.146C41.1404 215.061 41.8447 215.073 41.9855 215.073C43.4292 215.014 44.9551 214.967 46.4458 214.92C50.8708 214.791 55.0376 214.662 57.1151 214.11C57.9954 213.876 58.5588 213.019 58.418 212.127C58.1832 210.554 57.6198 207.796 57.3499 206.81C57.3264 206.716 57.256 206.645 57.1738 206.61C57.0917 206.575 56.986 206.587 56.9039 206.634L55.7418 207.338C54.6151 208.019 52.8192 207.995 51.7394 207.303C51.6337 207.232 51.5398 207.174 51.4694 207.127C51.4342 207.091 51.4225 207.091 51.4107 207.091Z" fill="black"/>
<path d="M58.8405 212.808C58.8405 212.831 58.8523 212.855 58.8523 212.866C59.0049 213.899 58.0189 214.533 57.0917 214.967C54.3099 216.27 43.0889 215.519 42.6546 215.496C42.6428 215.496 42.6428 215.496 42.6311 215.496C42.4903 215.496 41.07 215.496 40.6592 214.615C40.6123 214.51 40.5771 214.345 40.5536 214.205C40.5184 213.97 40.5418 213.723 40.5888 213.489C40.6357 213.301 40.8235 213.183 41.0113 213.23C43.0889 213.758 47.9599 213.935 52.8192 213.406C56.047 213.054 57.4555 212.35 58.2067 211.892C58.4063 211.775 58.6762 211.892 58.7232 212.127C58.7349 212.327 58.7819 212.561 58.8405 212.808Z" fill="#040404"/>
<path d="M49.6734 216C46.1991 216 42.8774 215.777 42.6192 215.766C42.4431 215.766 40.882 215.766 40.4008 214.733C40.3421 214.615 40.3069 214.451 40.2717 214.251C40.2365 213.993 40.2482 213.723 40.3186 213.453C40.3538 213.289 40.4477 213.148 40.6003 213.066C40.7412 212.984 40.9055 212.96 41.0581 212.996C42.9948 213.488 47.7484 213.711 52.7721 213.16C55.8708 212.819 57.2675 212.15 58.0539 211.693C58.2183 211.587 58.4295 211.575 58.6056 211.657C58.7816 211.74 58.9225 211.904 58.9577 212.092L59.0868 212.772C59.0986 212.808 59.0986 212.831 59.0986 212.843C59.2746 214.087 58.0891 214.791 57.1854 215.226C55.8708 215.836 52.7134 216 49.6734 216ZM42.6192 215.237C42.6309 215.237 42.6544 215.237 42.6661 215.237C46.6686 215.507 54.8026 215.754 56.9741 214.733C58.1948 214.158 58.6878 213.594 58.5939 212.902L58.5821 212.855L58.453 212.174C58.4413 212.139 58.4178 212.115 58.4061 212.115C58.3943 212.103 58.3591 212.103 58.3356 212.115C57.514 212.608 56.0351 213.312 52.8425 213.665C47.7602 214.228 42.9126 213.993 40.9407 213.488C40.9172 213.477 40.8938 213.488 40.882 213.5C40.8703 213.512 40.8468 213.524 40.8468 213.559C40.7999 213.77 40.7881 213.981 40.8116 214.181C40.8351 214.381 40.8703 214.474 40.8938 214.51C41.2224 215.249 42.5605 215.237 42.6192 215.237Z" fill="black"/>
<path d="M50.8471 209.685C50.7884 209.685 50.7415 209.674 50.6828 209.627L48.9809 208.335C48.8635 208.242 48.84 208.077 48.9339 207.972C49.0161 207.854 49.1921 207.831 49.2978 207.925L50.9997 209.216C51.1171 209.31 51.1406 209.474 51.0467 209.58C50.9997 209.65 50.9176 209.685 50.8471 209.685Z" fill="black"/>
<path d="M48.5821 210.612C48.5234 210.612 48.4765 210.6 48.4295 210.565L46.9389 209.45C46.8215 209.368 46.798 209.204 46.8919 209.086C46.9741 208.969 47.1384 208.945 47.2558 209.039L48.7464 210.154C48.8638 210.237 48.8873 210.401 48.7934 210.518C48.7347 210.577 48.6643 210.612 48.5821 210.612Z" fill="black"/>
<path d="M66.4816 134.929C66.4816 134.929 69.2634 140.493 70.2024 146.361C71.071 151.819 74.2753 174.32 82.0925 192.349C82.9728 194.391 81.9516 196.527 79.7802 196.997C78.9116 197.185 78.5478 196.88 77.7848 196.504C77.3975 196.316 76.7519 195.753 76.7519 195.753C76.7519 195.753 62.9252 184.203 57.2912 153.885C53.6643 134.389 54.2629 135.927 54.2629 135.927L66.4816 134.929Z" fill="#2F4B4E"/>
<path d="M62.5966 137.476C62.5966 137.476 64.2164 148.063 61.1529 155.892C58.2068 163.416 56.3171 192.936 57.4204 201.469C57.4908 202.009 57.1152 202.49 56.5871 202.572C55.249 202.76 52.8193 203.018 51.1644 202.713C50.8592 202.654 50.6127 202.431 50.5423 202.126C49.4507 197.795 40.3776 158.686 46.7745 138.65L62.5966 137.476Z" fill="#2F4B4E"/>
<path d="M59.4978 164.989H59.4861C59.3452 164.977 59.2278 164.86 59.2396 164.707C59.2396 164.672 59.4861 160.834 61.3054 156.573C61.6575 155.752 61.9509 154.813 62.1739 153.791C62.2092 153.651 62.3383 153.557 62.4909 153.592C62.6317 153.627 62.7256 153.768 62.6904 153.909C62.4674 154.965 62.1622 155.939 61.7983 156.796C60.0143 160.975 59.7678 164.719 59.7678 164.754C59.7443 164.883 59.6269 164.989 59.4978 164.989Z" fill="black"/>
<path d="M55.0026 154.977C54.6035 154.977 54.2044 154.894 53.8289 154.73L50.9297 153.427C49.9555 152.993 49.3451 152.019 49.3804 150.951L49.5681 145.234C49.5799 144.976 49.6973 144.718 49.8968 144.554C50.0963 144.378 50.3663 144.295 50.6245 144.331C54.0753 144.695 57.3031 144.354 58.9229 144.119C59.2046 144.072 59.4863 144.166 59.6976 144.354C59.9089 144.542 60.0145 144.824 60.0028 145.105L59.6858 151.091C59.6389 151.89 59.2516 152.617 58.606 153.075L56.728 154.437C56.1881 154.789 55.6012 154.977 55.0026 154.977ZM50.4954 144.835C50.3898 144.835 50.2959 144.871 50.2137 144.941C50.1198 145.023 50.0729 145.129 50.0729 145.246L49.8851 150.962C49.8616 151.819 50.3428 152.594 51.1292 152.946L54.0284 154.249C54.8031 154.589 55.6951 154.495 56.3759 154.002L58.2539 152.641C58.7703 152.265 59.0872 151.69 59.1224 151.056L59.4394 145.07C59.4511 144.941 59.3924 144.824 59.2985 144.73C59.2046 144.648 59.0755 144.601 58.9464 144.624C57.3031 144.859 54.0166 145.211 50.5189 144.835C50.5189 144.835 50.5071 144.835 50.4954 144.835Z" fill="black"/>
<path d="M69.2635 154.12C69.1109 154.12 68.9583 154.085 68.8292 154.014L65.6366 152.394C65.3432 152.242 65.1436 151.96 65.1084 151.631L64.3924 144.976C64.3338 144.46 64.6976 143.99 65.2023 143.92L68.2189 143.439C68.3597 143.415 68.5006 143.509 68.524 143.662C68.5475 143.802 68.4536 143.943 68.301 143.967L65.2845 144.448C65.0497 144.483 64.8854 144.695 64.9089 144.929L65.6249 151.584C65.6366 151.737 65.7305 151.866 65.8596 151.925L69.0522 153.545C69.1931 153.615 69.3691 153.603 69.51 153.509L70.2729 152.993C70.3903 152.911 70.5546 152.946 70.6368 153.063C70.7189 153.181 70.6837 153.345 70.5664 153.427L69.8152 153.944C69.6508 154.061 69.463 154.12 69.2635 154.12Z" fill="black"/>
<path d="M53.0187 203.112C52.3379 203.112 51.6806 203.077 51.1055 202.96C50.6947 202.889 50.3778 202.584 50.2722 202.185C50.1665 201.762 39.7202 159.86 46.5044 138.568C46.5396 138.462 46.6335 138.392 46.7392 138.38L54.169 137.828C53.8521 135.739 53.9108 135.727 54.1573 135.657C54.2159 135.645 54.2746 135.645 54.3333 135.669L66.4464 134.659C66.552 134.647 66.6577 134.706 66.7046 134.8C66.7281 134.859 69.5216 140.469 70.4489 146.315C70.4958 146.631 70.5545 147.007 70.6249 147.43C71.7048 154.319 74.9678 175.283 82.3154 192.243C82.7849 193.311 82.7615 194.473 82.2802 195.424C81.799 196.363 80.9304 197.009 79.8153 197.255C78.9937 197.431 78.5477 197.208 77.9843 196.915C77.8787 196.856 77.773 196.809 77.6557 196.75C77.2448 196.551 76.5875 195.987 76.5641 195.964C76.4584 195.882 65.8712 186.82 59.4861 164.519C57.7724 176.045 56.8099 194.872 57.655 201.422C57.7372 202.103 57.2677 202.725 56.5869 202.819C55.7301 202.948 54.3451 203.112 53.0187 203.112ZM46.9622 138.896C40.3188 160.106 50.683 201.645 50.7886 202.056C50.8356 202.255 50.9999 202.408 51.2111 202.443C52.8427 202.748 55.2488 202.49 56.5517 202.302C56.939 202.244 57.2207 201.88 57.162 201.492C56.27 194.544 57.3029 174.883 59.1809 163.24C59.2044 163.123 59.2983 163.029 59.4274 163.017C59.5447 163.005 59.6621 163.087 59.6973 163.205C65.9886 186.187 76.8223 195.459 76.9279 195.553C77.104 195.706 77.6087 196.128 77.9021 196.269C78.0195 196.328 78.1369 196.387 78.2425 196.445C78.7825 196.727 79.0876 196.879 79.7215 196.739C80.6722 196.527 81.4234 195.976 81.8225 195.189C82.2333 194.379 82.245 193.382 81.8459 192.454C74.4748 175.423 71.1883 154.413 70.1202 147.512C70.0498 147.089 69.9911 146.714 69.9441 146.397C69.1108 141.185 66.7868 136.15 66.329 135.199L54.4976 136.185C54.5211 136.432 54.5798 136.948 54.7441 138.028C54.7559 138.098 54.7324 138.169 54.6854 138.227C54.6385 138.286 54.5681 138.321 54.4976 138.321L46.9622 138.896Z" fill="black"/>
<path d="M80.3551 201.422C79.8504 199.121 79.6391 198.652 78.5006 196.903C77.6555 195.6 79.6157 193.569 80.6368 193.393C82.327 193.018 82.0688 193.558 84.0524 196.011L85.6018 197.854C85.6018 197.854 80.7894 203.429 80.3551 201.422Z" fill="#FFDBC5"/>
<path d="M80.8129 202.114C80.7542 202.114 80.6955 202.103 80.6368 202.091C80.449 202.044 80.1908 201.891 80.1086 201.469C79.6039 199.168 79.3926 198.722 78.2893 197.032C77.9724 196.539 77.9607 195.929 78.2541 195.26C78.6884 194.274 79.8034 193.264 80.6016 193.124C82.0218 192.807 82.28 193.159 83.1369 194.356C83.4186 194.743 83.7707 195.236 84.2637 195.835L85.813 197.678C85.8952 197.772 85.8952 197.924 85.813 198.018C85.2027 198.722 82.1979 202.114 80.8129 202.114ZM80.6133 201.363C80.6603 201.563 80.7307 201.575 80.7659 201.586C81.4702 201.762 83.759 199.556 85.2614 197.842L83.8529 196.175C83.3482 195.553 82.996 195.06 82.7026 194.661C81.8575 193.487 81.7871 193.393 80.6838 193.64C80.1086 193.734 79.1109 194.579 78.7119 195.471C78.4888 195.976 78.4888 196.41 78.7119 196.75C79.8973 198.57 80.1086 199.086 80.6133 201.363Z" fill="black"/>
<path d="M80.8129 202.114C80.7543 202.114 80.6956 202.102 80.6369 202.091C80.4491 202.044 80.1909 201.891 80.1087 201.469C79.6744 199.473 79.158 198.405 78.2894 197.032C78.2072 196.915 78.2542 196.75 78.3716 196.668C78.5007 196.586 78.6533 196.633 78.7354 196.75C79.6275 198.182 80.1674 199.297 80.6251 201.363C80.6721 201.563 80.7425 201.574 80.7777 201.586C81.4702 201.762 83.7708 199.555 85.2732 197.842L83.9469 196.281C83.3482 195.541 82.7144 194.579 82.4327 194.133C82.3506 194.015 82.3975 193.851 82.5149 193.769C82.644 193.687 82.7966 193.734 82.8787 193.851C83.137 194.262 83.7825 195.236 84.3577 195.94L85.8248 197.666C85.907 197.76 85.907 197.912 85.8248 198.006C85.2028 198.722 82.198 202.114 80.8129 202.114Z" fill="black"/>
<path d="M80.0734 200.565L81.9866 197.56C82.8787 196.164 84.8271 195.917 86.0361 197.056L88.3249 198.898C88.3249 198.898 88.7826 200.189 88.6535 201.035C88.5009 202.126 88.1723 203.687 87.5267 205.248C86.529 207.643 83.7238 212.455 82.7261 214.145C82.5148 214.497 81.9866 214.861 81.5993 214.697C81.1533 214.509 80.6838 214.157 80.226 213.746C79.5218 213.112 79.6978 210.072 79.9091 207.96C80.0382 206.61 79.8622 203.159 79.78 201.727C79.7448 201.316 79.8504 200.905 80.0734 200.565Z" fill="#C67C4E"/>
<path d="M81.7873 214.99C81.6816 214.99 81.576 214.967 81.4821 214.932C81.0478 214.744 80.5783 214.415 80.0384 213.934C79.8154 213.734 79.1229 213.101 79.6393 207.924C79.7684 206.586 79.5924 203.147 79.5102 201.739C79.4867 201.269 79.6041 200.812 79.8506 200.424L81.7638 197.419C82.2333 196.68 82.9962 196.199 83.8531 196.093C84.7216 195.987 85.5785 196.269 86.2123 196.868L88.4776 198.699C88.5128 198.734 88.548 198.769 88.5598 198.816C88.5833 198.875 89.0293 200.178 88.9002 201.07C88.7476 202.138 88.4189 203.746 87.7499 205.342C86.7522 207.713 84.0526 212.373 82.9258 214.274C82.738 214.615 82.2568 214.99 81.7873 214.99ZM80.2966 200.706C80.1088 201.011 80.0149 201.351 80.0384 201.715C80.1205 203.147 80.3083 206.61 80.1675 207.983C79.7332 212.42 80.1792 213.347 80.4022 213.547C80.8952 213.993 81.3295 214.298 81.7051 214.45C81.9281 214.544 82.3389 214.274 82.4915 214.004C83.6066 212.115 86.2944 207.478 87.2804 205.143C87.9259 203.593 88.2429 202.032 88.3954 200.999C88.4893 200.342 88.1842 199.333 88.102 199.063L85.8719 197.267C85.3437 196.762 84.6395 196.527 83.9235 196.621C83.2192 196.703 82.5854 197.102 82.2098 197.701L80.2966 200.706Z" fill="black"/>
<path d="M79.8971 204.215C79.7797 204.215 79.674 204.145 79.6506 204.027C79.6154 203.887 79.6858 203.746 79.8266 203.699L81.9276 203.077C82.0685 203.03 82.2093 203.112 82.2563 203.253C82.2915 203.394 82.2211 203.534 82.0802 203.581L79.9792 204.204C79.944 204.204 79.9205 204.215 79.8971 204.215Z" fill="black"/>
<path d="M80.085 206.093C79.9677 206.093 79.862 206.023 79.8386 205.905C79.8034 205.765 79.8738 205.624 80.0146 205.577L82.1156 204.955C82.2565 204.908 82.3973 204.99 82.4443 205.131C82.4795 205.272 82.4091 205.412 82.2682 205.459L80.1672 206.081C80.1437 206.093 80.1085 206.093 80.085 206.093Z" fill="black"/>
<path d="M82.4091 214.826C82.1978 214.826 81.9865 214.802 81.7987 214.744C81.1649 214.532 79.5686 214.098 79.7094 211.821C79.8503 209.474 81.6109 208.241 82.8903 206.68C83.8645 205.483 83.6767 200.577 83.9701 199.602C84.4983 197.865 87.0219 197.56 88.313 198.91C89.1346 199.755 89.2637 201.633 89.205 203.018C89.1111 205.6 87.6792 210.776 85.8012 213.288C84.8974 214.509 83.4537 214.814 82.4091 214.826Z" fill="#040404"/>
<path d="M82.3742 215.096C82.1512 215.096 81.9282 215.061 81.7169 214.99L81.6582 214.967C81.0127 214.755 79.299 214.204 79.4398 211.798C79.5572 209.896 80.6723 208.699 81.7521 207.537C82.069 207.197 82.3859 206.856 82.6794 206.504C83.2662 205.776 83.4071 203.382 83.501 201.633C83.5597 200.647 83.5949 199.872 83.7123 199.508C83.9588 198.687 84.6278 198.088 85.5433 197.877C86.6114 197.619 87.7617 197.947 88.5012 198.71C89.4519 199.696 89.5106 201.821 89.4636 203.006C89.3697 205.495 87.973 210.788 86.0128 213.429C84.9682 214.838 83.3015 215.072 82.4094 215.084C82.3977 215.096 82.3859 215.096 82.3742 215.096ZM86.2828 198.335C86.0832 198.335 85.872 198.358 85.6724 198.405C84.9447 198.581 84.4165 199.039 84.2287 199.685C84.1348 199.99 84.0879 200.811 84.0409 201.68C83.9353 203.605 83.7944 205.999 83.1019 206.856C82.7967 207.22 82.4681 207.572 82.1512 207.912C81.0831 209.051 80.0737 210.131 79.9798 211.845C79.8624 213.84 81.1418 214.251 81.8343 214.474L81.893 214.497C82.0573 214.556 82.2334 214.579 82.4212 214.568C83.2193 214.556 84.6982 214.345 85.6137 213.124C87.5152 210.565 88.865 205.424 88.9589 203.006C89.0293 201.14 88.7359 199.708 88.1373 199.098C87.6561 198.605 86.9753 198.335 86.2828 198.335Z" fill="black"/>
<path d="M82.3738 215.096C81.8104 215.096 81.294 214.885 80.9536 214.509C80.6484 214.169 80.5076 213.711 80.5663 213.23C80.8597 210.777 82.1626 209.474 83.5476 208.101C84.604 207.044 84.827 203.371 84.9326 201.598C84.9678 200.941 84.9913 200.612 85.0265 200.46C85.2143 199.72 86.1416 199.028 87.0923 198.91C87.9844 198.793 88.7356 199.18 89.1816 199.978C89.252 200.107 89.2051 200.26 89.0759 200.331C88.9468 200.401 88.7942 200.354 88.7238 200.225C88.3013 199.45 87.644 199.368 87.1627 199.427C86.3528 199.532 85.6603 200.119 85.543 200.589C85.5195 200.706 85.4843 201.129 85.4608 201.633C85.3434 203.605 85.1204 207.291 83.9232 208.476C82.5499 209.838 81.3644 211.023 81.0945 213.3C81.0593 213.629 81.1414 213.934 81.3527 214.157C81.5992 214.427 81.9865 214.58 82.4208 214.568C82.6556 214.568 82.8903 214.545 83.1133 214.509C83.2542 214.486 83.395 214.592 83.4067 214.732C83.4302 214.873 83.3246 215.014 83.1837 215.026C82.9372 215.061 82.679 215.084 82.4208 215.084C82.3973 215.096 82.3856 215.096 82.3738 215.096Z" fill="black"/>
<path d="M60.9762 98.2028L59.7203 91.3364L54.1333 92.7801L54.908 97.5573L60.9762 98.2028Z" fill="#FFDBC5"/>
<path d="M60.9762 98.4727C60.9645 98.4727 60.9528 98.4727 60.9528 98.4727L54.8845 97.8272C54.7671 97.8154 54.6732 97.7215 54.6497 97.6042L53.8751 92.827C53.8516 92.6979 53.9338 92.5688 54.0746 92.5336L59.6616 91.0899C59.7321 91.0664 59.8025 91.0781 59.8729 91.1251C59.9316 91.1603 59.9786 91.2307 59.9903 91.3011L61.2462 98.1676C61.2579 98.2497 61.2345 98.3319 61.1758 98.3906C61.1171 98.4375 61.0467 98.4727 60.9762 98.4727ZM55.131 97.3225L60.6476 97.9093L59.5091 91.665L54.4267 92.9679L55.131 97.3225Z" fill="black"/>
<path d="M55.1195 82.0988C57.1148 82.3687 57.3848 84.6223 59.7792 84.8923C60.8708 85.0097 61.4225 84.6106 62.3967 85.0684C63.0422 85.3735 63.9695 86.1247 64.0634 87.0989C64.1808 88.3549 62.8075 88.6248 61.4107 91.031C60.4248 92.7212 60.3661 93.8597 59.5797 93.9771C58.7933 94.1062 58.4294 93.0029 57.5608 93.0733C56.434 93.1672 56.2815 95.0569 55.0842 95.6203C54.333 95.9725 52.7485 95.902 50.5301 94.2353C50.1662 93.9654 50.0489 93.4724 50.2484 93.0733C50.5066 92.5569 50.8353 91.8996 51.1991 91.3127C52.948 88.4722 54.1805 87.991 53.934 87.1224C53.5584 85.7843 51.1052 86.0308 50.9174 84.9627C50.7296 83.8477 53.0654 81.8171 55.1195 82.0988Z" fill="black"/>
<path d="M58.3595 87.9089L57.8313 87.6272C57.8313 87.6272 56.1059 91.2306 55.4369 92.1461C54.7678 93.0733 51.7513 91.1954 51.7513 91.1954L51.6809 90.5263L51.317 90.2916C51.1997 90.2211 51.1292 90.1038 51.1175 89.9629C51.1058 89.8338 51.1527 89.693 51.2466 89.5991C51.9743 88.8831 53.5119 87.2398 54.2631 85.6553C54.2631 85.667 56.7984 85.5144 58.3595 87.9089Z" fill="#FFDBC5"/>
<path d="M58.5589 88.0848C58.4415 88.0731 58.3007 88.0614 58.1481 88.0379C57.9955 88.0027 57.8312 87.944 57.7138 87.8736L58.0776 87.7562C57.749 88.4487 57.4203 89.1295 57.0682 89.8103C56.7161 90.491 56.364 91.1718 55.9766 91.8408C55.871 92.0052 55.7771 92.1695 55.648 92.3455C55.5541 92.4629 55.4367 92.5451 55.3076 92.6038C55.1785 92.6507 55.0611 92.6742 54.9437 92.6859C54.4742 92.7094 54.0869 92.592 53.7113 92.4629C52.9601 92.193 52.2793 91.8291 51.6103 91.43C51.5399 91.3831 51.4929 91.3126 51.4812 91.2305C51.4577 91.0075 51.4342 90.7845 51.4108 90.5615L51.5281 90.7493C51.4225 90.6671 51.3286 90.5849 51.223 90.5028C51.1995 90.4793 51.1643 90.4558 51.1291 90.4206C51.0939 90.3854 51.0704 90.3502 51.0352 90.315C50.9882 90.2328 50.953 90.1506 50.9295 90.0567C50.8943 89.8807 50.9413 89.6811 51.0469 89.5403C51.1173 89.4581 51.1408 89.4347 51.1995 89.3877L51.3286 89.2469C51.6925 88.883 52.0329 88.4957 52.3498 88.0966C52.6784 87.6975 52.9836 87.2867 53.2653 86.8641C53.547 86.4416 53.8052 86.0073 54.0165 85.5496C54.0517 85.4557 54.1456 85.4087 54.2395 85.4087C54.6973 85.397 55.1081 85.4557 55.5306 85.5613C55.9414 85.6669 56.3522 85.8195 56.7278 86.0308C57.1034 86.2303 57.4556 86.4885 57.7725 86.782C57.9251 86.9346 58.0776 87.0872 58.2068 87.2515C58.2772 87.3336 58.3359 87.4158 58.4063 87.5097L58.4298 87.5449C58.4415 87.5567 58.4532 87.5801 58.4767 87.6036C58.5002 87.6506 58.5354 87.7092 58.5471 87.7679C58.5706 87.8853 58.5589 88.0027 58.5589 88.0848ZM58.1715 87.7327C58.1129 87.721 58.0424 87.7562 58.019 87.8031C58.0072 87.8266 58.0072 87.8384 58.0072 87.8501L57.9837 87.8266C57.9251 87.7562 57.8664 87.674 57.8077 87.6036C57.6903 87.451 57.5495 87.3219 57.4086 87.1928C57.1269 86.9346 56.8217 86.6998 56.4814 86.5238C56.141 86.336 55.7888 86.1951 55.4132 86.1012C55.0494 86.0073 54.6386 85.9486 54.2864 85.9604L54.5095 85.8078C54.0282 86.7702 53.3827 87.6036 52.6901 88.39C52.338 88.7774 51.9859 89.1647 51.622 89.5286L51.3638 89.7868C51.3169 89.8455 51.2934 89.9276 51.3169 89.9981C51.3286 90.0333 51.3403 90.0685 51.3756 90.092C51.3873 90.1037 51.399 90.1154 51.4225 90.1272L51.4929 90.1624C51.6103 90.2211 51.7277 90.2798 51.8451 90.3384C51.9037 90.3737 51.9507 90.4323 51.9624 90.5028V90.5262C51.9976 90.7493 52.0211 90.9723 52.0446 91.1953L51.9155 90.9957C52.5493 91.3713 53.2301 91.7235 53.9226 91.9582C54.263 92.0756 54.6268 92.1695 54.932 92.146C55.0846 92.1343 55.1902 92.0873 55.2372 92.0169C55.3311 91.8878 55.4367 91.7235 55.5306 91.5709C55.9062 90.9253 56.2583 90.2563 56.6105 89.5755C56.9508 88.8947 57.303 88.2257 57.6316 87.5332C57.702 87.4041 57.8546 87.3454 57.9955 87.4041H58.0072C58.0542 87.4276 58.0776 87.4628 58.1011 87.5215C58.0659 87.5684 58.1011 87.6506 58.1715 87.7327Z" fill="black"/>
<path d="M57.2324 90.5382C57.2324 90.5382 58.6174 88.8362 59.263 89.6344C59.8968 90.4325 58.324 92.2518 57.2324 90.5382Z" fill="#FFDBC5"/>
<path d="M80.6366 142.359C80.6366 142.359 80.2023 146.632 80.9535 148.169C81.693 149.707 86.5405 152.665 86.5405 152.665C86.5405 152.665 88.0077 151.726 86.5405 150.528C85.0734 149.331 84.4865 148.334 84.4865 148.334C84.4865 148.334 84.7917 143.791 84.1344 142.852C83.4536 141.901 80.6366 142.359 80.6366 142.359Z" fill="#FFDBC5"/>
<path d="M86.5287 152.923C86.4817 152.923 86.4348 152.911 86.3878 152.888C86.1883 152.77 81.4698 149.883 80.7069 148.287C79.9439 146.69 80.3548 142.512 80.3665 142.336C80.3782 142.218 80.4721 142.124 80.5895 142.101C80.8947 142.054 83.5943 141.655 84.322 142.7C84.9793 143.639 84.7798 147.5 84.7328 148.263C84.8854 148.498 85.4958 149.343 86.693 150.317C87.2212 150.74 87.4677 151.197 87.4442 151.679C87.3972 152.406 86.7047 152.864 86.6695 152.876C86.6226 152.911 86.5756 152.923 86.5287 152.923ZM80.8712 142.582C80.8008 143.439 80.566 146.772 81.1764 148.052C81.7398 149.214 85.0732 151.456 86.5052 152.336C86.6578 152.207 86.8925 151.949 86.9043 151.644C86.916 151.35 86.7282 151.045 86.3526 150.728C84.8619 149.519 84.2633 148.51 84.2399 148.463C84.2164 148.416 84.2047 148.369 84.2047 148.31C84.322 146.585 84.3338 143.627 83.8995 142.993C83.5121 142.441 81.9158 142.441 80.8712 142.582Z" fill="black"/>
<path d="M26.7968 83.6833L27.1372 81.418C27.2311 80.7841 27.1137 80.1268 26.7968 79.5634L23.5572 73.8238C23.4164 73.5773 23.0877 73.5304 22.8999 73.7299C22.5713 74.0703 22.2544 74.6807 22.7239 75.6549L23.4868 77.0986C23.6511 77.4155 23.5572 77.8146 23.2755 78.0258C22.8295 78.3662 22.2544 78.9766 22.137 79.8921C21.8084 82.3687 24.5197 84.141 24.5197 84.141L26.7968 83.6833Z" fill="#FFDBC5"/>
<path d="M24.5081 84.4229C24.4612 84.4229 24.4025 84.4112 24.3673 84.376C24.2499 84.3056 21.5151 82.4745 21.8672 79.8688C21.9963 78.8829 22.6184 78.2138 23.1114 77.8265C23.2992 77.6856 23.3579 77.4274 23.2522 77.2279L22.4893 75.7842C21.9376 74.6222 22.3954 73.8944 22.7123 73.5541C22.8649 73.4015 23.0644 73.331 23.2757 73.3545C23.487 73.378 23.6865 73.5071 23.7922 73.6949L27.0317 79.4345C27.3721 80.0449 27.5129 80.7609 27.4073 81.4534L27.0669 83.7187C27.0552 83.8243 26.973 83.9182 26.8556 83.9417L24.5668 84.4229C24.5434 84.4229 24.5316 84.4229 24.5081 84.4229ZM23.1935 73.871C23.1701 73.871 23.1231 73.8827 23.0879 73.9179C22.6888 74.3405 22.6419 74.8921 22.9588 75.5494L23.71 76.9931C23.933 77.4274 23.8156 77.9556 23.4283 78.2608C23.0175 78.5777 22.4893 79.1411 22.3837 79.951C22.1137 81.9816 24.1208 83.5661 24.5668 83.883L26.5622 83.4605L26.8791 81.3829C26.9613 80.8078 26.8556 80.2092 26.5739 79.7045L23.3344 73.9649C23.2992 73.9062 23.2405 73.8827 23.217 73.8827C23.2053 73.871 23.2053 73.871 23.1935 73.871Z" fill="black"/>
<path d="M85.0855 143.087H79.4867C79.4867 143.087 78.2778 123.204 67.5967 116.76L68.4066 100.762C68.4183 100.773 90.7899 113.215 85.0855 143.087Z" fill="#FFF597"/>
<path d="M67.4556 121.103L71.6459 140.986C71.6459 140.986 54.6031 143.908 48.6639 142.84C42.7247 141.772 42.0322 140.211 42.0322 140.211L44.544 118.344L67.4556 121.103Z" fill="#FBBE21"/>
<path d="M52.1381 143.345C50.7648 143.345 49.5676 143.275 48.6169 143.11C42.7129 142.054 41.8678 140.493 41.7857 140.328C41.7622 140.281 41.7622 140.235 41.7622 140.188L44.274 118.321C44.2858 118.25 44.321 118.192 44.3679 118.145C44.4266 118.098 44.497 118.086 44.5675 118.086L67.4907 120.844C67.6081 120.856 67.6903 120.938 67.7137 121.056L71.904 140.939C71.9158 141.009 71.904 141.08 71.8688 141.138C71.8336 141.197 71.7632 141.232 71.6927 141.244C71.1059 141.35 59.3684 143.345 52.1381 143.345ZM42.3021 140.152C42.4899 140.411 43.6637 141.678 48.7108 142.582C54.1335 143.556 69.134 141.138 71.3289 140.774L67.2442 121.349L44.7787 118.638L42.3021 140.152Z" fill="black"/>
<path d="M59.8143 98.0738L68.4061 100.773L72.1269 129.237C72.303 130.598 71.5166 131.901 70.2372 132.371C66.1173 133.885 56.387 136.573 42.9593 134.495C41.5508 134.284 40.5062 133.087 40.471 131.666C40.3536 126.889 40.2597 116.185 41.6095 110.034C41.6095 110.034 22.6535 110.023 23.7568 84.4114L27.7241 83.3315C27.7241 83.3315 34.391 98.379 45.8819 97.8038C45.8937 97.7921 53.5934 96.1136 59.8143 98.0738Z" fill="#FFF597"/>
<path d="M52.478 97.4634C52.478 97.4634 59.9196 96.7592 65.847 97.9212C69.3565 98.6137 76.0116 101.208 70.9293 106.431C65.847 111.654 62.3492 111.161 60.6708 108.238C59.0041 105.316 56.011 98.555 52.478 97.4634Z" fill="#FBBE21"/>
<path d="M64.1099 110.668C63.9339 110.668 63.7578 110.656 63.5935 110.633C62.3024 110.469 61.2108 109.682 60.4478 108.356C60.1661 107.851 59.8375 107.241 59.4854 106.583C57.7952 103.391 55.2364 98.5785 52.3959 97.7099C52.2786 97.6747 52.1964 97.5574 52.2081 97.4282C52.2199 97.2991 52.3255 97.2052 52.4429 97.1935C52.5133 97.1818 59.9901 96.4892 65.894 97.663C66.9035 97.8625 71.974 99.0011 72.9013 101.971C73.3473 103.391 72.7487 104.952 71.1172 106.619C68.5232 109.283 66.117 110.668 64.1099 110.668ZM53.5227 97.6395C56.1519 99.1889 58.4055 103.426 59.9431 106.337C60.2953 106.994 60.6239 107.605 60.9056 108.098C61.5746 109.271 62.5254 109.964 63.6522 110.105C65.5889 110.351 68.042 109.013 70.7416 106.231C72.2205 104.717 72.7722 103.32 72.3966 102.111C71.751 100.034 68.4293 98.6841 65.7884 98.1677C61.2577 97.2874 55.7646 97.4987 53.5227 97.6395Z" fill="black"/>
<path d="M67.9721 104.107C66.0472 104.107 63.8288 103.168 61.2465 101.29C59.1103 99.7284 58.5 99.6698 58.4295 99.6698C58.3122 99.705 58.1831 99.6463 58.1244 99.5289C58.0539 99.3998 58.1126 99.2355 58.2417 99.1768C58.6291 98.9772 59.8028 99.5759 61.5634 100.867C65.6598 103.86 68.6646 104.376 71.0356 102.498C71.153 102.405 71.3173 102.428 71.3994 102.545C71.4933 102.663 71.4699 102.827 71.3525 102.909C70.3548 103.707 69.228 104.107 67.9721 104.107Z" fill="black"/>
<path d="M118.481 202.839C118.098 202.839 117.702 202.765 117.331 202.617C116.527 202.307 115.883 201.689 115.537 200.872C114.819 199.227 115.562 197.285 117.182 196.555C117.962 196.208 118.828 196.184 119.632 196.493C120.436 196.802 121.079 197.421 121.426 198.237C122.143 199.883 121.401 201.825 119.78 202.555C119.36 202.753 118.927 202.839 118.481 202.839ZM117.405 197.074C116.057 197.681 115.45 199.289 116.044 200.662C116.329 201.33 116.861 201.85 117.529 202.11C118.185 202.369 118.902 202.345 119.545 202.06C120.894 201.454 121.5 199.846 120.906 198.472C120.622 197.804 120.09 197.285 119.422 197.025C118.766 196.765 118.048 196.79 117.405 197.074Z" fill="black"/>
<path d="M82.6293 1.81574C82.5922 1.81574 82.5675 1.81574 82.5304 1.80336C82.3819 1.75388 82.3077 1.59305 82.3695 1.44459L82.8273 0.182705C82.8768 0.0342482 83.0376 -0.0399805 83.186 0.0218767C83.3345 0.0713625 83.4087 0.232191 83.3469 0.380649L82.8891 1.64254C82.852 1.74151 82.7407 1.81574 82.6293 1.81574Z" fill="black"/>
<path d="M81.0336 6.23224C80.9965 6.23224 80.9718 6.23224 80.9347 6.21987C80.7862 6.17038 80.712 6.00955 80.7738 5.8611L81.2316 4.59921C81.2811 4.45075 81.4419 4.37652 81.5903 4.43838C81.7388 4.48787 81.813 4.64869 81.7512 4.79715L81.2934 6.05904C81.2563 6.17038 81.145 6.23224 81.0336 6.23224Z" fill="black"/>
<path d="M80.5137 2.80549C80.4766 2.80549 80.4519 2.80549 80.4147 2.79311L79.1776 2.323C79.0291 2.27351 78.9673 2.11268 79.0168 1.96423C79.0663 1.81577 79.2271 1.75391 79.3755 1.8034L80.6127 2.27351C80.7611 2.323 80.823 2.48383 80.7735 2.63228C80.724 2.74363 80.6251 2.80549 80.5137 2.80549Z" fill="black"/>
<path d="M84.8433 4.4383C84.8062 4.4383 84.7815 4.4383 84.7443 4.42593L83.5072 3.95581C83.3587 3.90633 83.2969 3.7455 83.3464 3.59704C83.3959 3.44858 83.5567 3.38673 83.7051 3.43621L84.9423 3.90633C85.0907 3.95581 85.1526 4.11664 85.1031 4.2651C85.066 4.37644 84.9547 4.4383 84.8433 4.4383Z" fill="black"/>
<path d="M105.752 14.0884H105.739C105.653 14.0884 105.566 14.0389 105.516 13.9523L101.805 7.9645C101.743 7.8779 101.756 7.75419 101.805 7.66759C101.867 7.58099 101.966 7.5315 102.065 7.54387L109.661 8.3975C109.76 8.40987 109.847 8.47173 109.884 8.55833C109.921 8.64493 109.908 8.75628 109.847 8.8305L105.962 13.9647C105.912 14.0513 105.838 14.0884 105.752 14.0884ZM102.584 8.16245L105.776 13.3213L109.129 8.89236L102.584 8.16245Z" fill="black"/>
<path d="M105.009 204.163C104.997 204.163 104.984 204.163 104.972 204.163C104.823 204.138 104.712 204.002 104.737 203.854L104.984 202.159C105.009 202.01 105.145 201.899 105.294 201.924C105.442 201.949 105.553 202.085 105.529 202.233L105.281 203.928C105.256 204.064 105.145 204.163 105.009 204.163Z" fill="black"/>
<path d="M104.143 210.077C104.131 210.077 104.119 210.077 104.106 210.077C103.958 210.052 103.846 209.916 103.871 209.767L104.119 208.072C104.143 207.924 104.279 207.813 104.428 207.837C104.576 207.862 104.688 207.998 104.663 208.147L104.415 209.842C104.403 209.978 104.279 210.077 104.143 210.077Z" fill="black"/>
<path d="M102.584 205.957C102.572 205.957 102.56 205.957 102.547 205.957L100.852 205.709C100.704 205.685 100.592 205.549 100.617 205.4C100.642 205.252 100.778 205.14 100.927 205.165L102.621 205.413C102.77 205.437 102.881 205.573 102.856 205.722C102.844 205.858 102.72 205.957 102.584 205.957Z" fill="black"/>
<path d="M108.498 206.823C108.485 206.823 108.473 206.823 108.461 206.823L106.766 206.576C106.617 206.551 106.506 206.415 106.531 206.266C106.556 206.118 106.692 206.007 106.84 206.031L108.535 206.279C108.683 206.303 108.795 206.44 108.77 206.588C108.745 206.724 108.634 206.823 108.498 206.823Z" fill="black"/>
</svg>
