<svg width="238" height="200" viewBox="0 0 238 200" fill="none" xmlns="http://www.w3.org/2000/svg">
<path d="M150.25 121.25L137.333 118.395L131.308 145.686L144.225 148.541L150.25 121.25Z" fill="#696969"/>
<path d="M144.218 148.844C144.192 148.844 144.179 148.844 144.153 148.831L131.235 145.979C131.158 145.966 131.093 145.914 131.054 145.85C131.015 145.785 131.002 145.707 131.015 145.629L137.04 118.34C137.053 118.262 137.105 118.197 137.17 118.158C137.234 118.12 137.312 118.107 137.39 118.12L150.308 120.972C150.463 121.011 150.554 121.153 150.528 121.309L144.503 148.598C144.464 148.753 144.348 148.844 144.218 148.844ZM131.637 145.487L143.998 148.222L149.906 121.49L137.545 118.755L131.637 145.487Z" fill="black"/>
<path d="M124.509 141.805C127.71 138.421 128.876 135.958 132.517 134.312L132.841 134.169C134.007 133.638 135.302 134.623 135.095 135.88L134.771 138.007C134.46 140.068 136.391 140.833 136.404 140.846C137.505 141.416 138.231 140.988 141.12 140.794L142.286 138.512L145.176 137.695L147.508 138.888L147.909 142.375L154.09 151.748L163.639 155.988L165.349 159.384L161.32 162.107H145.512L136.52 154.782L124.509 141.805Z" fill="white"/>
<path d="M161.424 162.392H145.422L136.326 154.976L124.121 141.805L124.302 141.61C125.209 140.651 125.973 139.744 126.647 138.94C128.37 136.879 129.744 135.258 132.4 134.052L132.724 133.91C133.372 133.612 134.097 133.702 134.655 134.13C135.225 134.558 135.497 135.232 135.38 135.932L135.056 138.058C134.823 139.614 135.989 140.34 136.507 140.586C136.52 140.586 136.533 140.599 136.546 140.612C137.207 140.949 137.725 140.884 138.866 140.742C139.41 140.677 140.071 140.599 140.952 140.534L142.105 138.292L145.227 137.41L147.793 138.732L148.207 142.298L154.297 151.541L163.859 155.793L165.738 159.514L161.424 162.392ZM145.629 161.821H161.242L165 159.28L163.445 156.195L153.921 151.969L153.87 151.904L147.663 142.479L147.275 139.082L145.176 138.006L142.506 138.758L141.314 141.079L141.159 141.092C140.226 141.157 139.513 141.234 138.943 141.312C137.764 141.455 137.103 141.533 136.287 141.118H136.274C135.756 140.872 134.188 139.964 134.499 137.981L134.823 135.854C134.901 135.362 134.706 134.895 134.318 134.597C133.929 134.299 133.424 134.234 132.97 134.441L132.646 134.584C130.107 135.738 128.772 137.319 127.101 139.316C126.466 140.068 125.753 140.91 124.911 141.818L136.741 154.574L145.629 161.821Z" fill="black"/>
<path d="M121.244 142.686L124.509 141.805L137.751 154.146L148.661 160.551L157.614 160.797L165.375 159.371L165.363 161.847L164.456 163.571L158.871 166.345C158.871 166.345 155.606 166.397 149.192 166.345C149.192 166.345 139.228 161.653 136.741 160.369L136.08 158.386L134.033 157.336L132.05 157.958C126.621 155.145 122.32 152.954 122.32 152.954L117.707 147.275L121.244 142.686Z" fill="#696969"/>
<path d="M129.46 136.723L129.408 136.101C129.369 135.582 129.007 130.941 129.408 129.826C129.862 128.582 131.235 127.933 132.479 128.387C133.723 128.841 134.371 130.215 133.917 131.46C133.516 132.587 130.263 135.906 129.888 136.282L129.46 136.723ZM131.676 128.815C130.924 128.815 130.224 129.282 129.952 130.021C129.68 130.759 129.823 133.754 129.939 135.427C131.106 134.221 133.127 132.017 133.386 131.265C133.736 130.319 133.243 129.269 132.298 128.919C132.09 128.841 131.883 128.815 131.676 128.815Z" fill="black"/>
<path d="M146.018 145.357C145.875 145.357 145.759 145.253 145.733 145.11C145.707 144.955 145.823 144.812 145.979 144.786L149.283 144.359C149.438 144.333 149.581 144.449 149.607 144.605C149.633 144.76 149.516 144.903 149.361 144.929L146.057 145.357C146.044 145.357 146.031 145.357 146.018 145.357Z" fill="black"/>
<path d="M147.404 147.859C147.261 147.859 147.145 147.755 147.119 147.612C147.093 147.457 147.21 147.314 147.365 147.288L150.669 146.861C150.825 146.835 150.967 146.951 150.993 147.107C151.019 147.262 150.902 147.405 150.747 147.431L147.443 147.859C147.43 147.859 147.417 147.859 147.404 147.859Z" fill="black"/>
<path d="M148.777 150.348C148.635 150.348 148.518 150.244 148.492 150.102C148.466 149.946 148.583 149.804 148.739 149.778L152.043 149.35C152.198 149.324 152.341 149.441 152.367 149.596C152.392 149.752 152.276 149.894 152.12 149.92L148.816 150.348C148.803 150.348 148.79 150.348 148.777 150.348Z" fill="black"/>
<path d="M160.094 94.7784L140.01 90.3008L132.373 124.593L152.457 129.071L160.094 94.7784Z" fill="#2F4B4E"/>
<path d="M152.446 129.346C152.42 129.346 152.407 129.346 152.381 129.333L132.298 124.861C132.142 124.822 132.052 124.679 132.078 124.524L139.709 90.234C139.722 90.1563 139.774 90.0914 139.839 90.0525C139.904 90.0137 139.981 90.0007 140.059 90.0136L160.142 94.4862C160.298 94.5251 160.388 94.6677 160.363 94.8233L152.731 129.113C152.718 129.191 152.666 129.256 152.601 129.294C152.55 129.333 152.498 129.346 152.446 129.346ZM132.7 124.368L152.226 128.724L159.741 94.9918L140.215 90.6359L132.7 124.368Z" fill="black"/>
<path d="M180.962 63.9173C180.924 63.9173 180.872 63.9044 180.833 63.8914C180.768 63.8525 180.716 63.8006 180.69 63.7229L176.259 50.6292C175.08 47.129 171.802 44.7825 168.109 44.7825H165.427C165.272 44.7825 165.142 44.6529 165.142 44.4973V41.5674C165.142 41.4119 165.272 41.2822 165.427 41.2822H168.122C173.305 41.2822 177.918 44.588 179.576 49.5014L184.007 62.608C184.059 62.7635 183.981 62.9191 183.826 62.9709L181.04 63.9173C181.027 63.9173 181.001 63.9173 180.962 63.9173ZM165.725 44.2121H168.122C172.061 44.2121 175.546 46.7141 176.816 50.4478L181.157 63.2691L183.398 62.5172L179.058 49.6829C177.477 45.0029 173.085 41.8526 168.148 41.8526H165.738V44.2121H165.725Z" fill="black"/>
<path d="M158.676 33.5557C163.82 33.5557 167.979 37.7301 167.979 42.8638C167.979 48.0105 163.807 52.1719 158.676 52.1719V33.5557Z" fill="#FFF597"/>
<path d="M164.053 43.1489C163.897 43.1489 163.768 43.0193 163.768 42.8637C163.768 40.958 162.705 39.2338 160.995 38.3782C160.853 38.3134 160.801 38.1319 160.865 37.9893C160.93 37.8467 161.112 37.7948 161.254 37.8596C163.159 38.819 164.338 40.7247 164.338 42.8637C164.338 43.0193 164.208 43.1489 164.053 43.1489Z" fill="white"/>
<path d="M70.5181 144.203H68.8078C66.929 144.203 65.4131 142.686 65.4131 140.806V139.225C65.4131 137.345 66.929 135.828 68.8078 135.828H70.5181V144.203Z" fill="#FF7171"/>
<path d="M70.518 144.488H68.8077C66.7735 144.488 65.1279 142.842 65.1279 140.806V139.225C65.1279 137.189 66.7735 135.543 68.8077 135.543H70.518C70.6735 135.543 70.8031 135.673 70.8031 135.828V144.19C70.8031 144.358 70.6735 144.488 70.518 144.488ZM68.8077 136.126C67.0974 136.126 65.698 137.526 65.698 139.238V140.819C65.698 142.531 67.0974 143.931 68.8077 143.931H70.2329V136.139H68.8077V136.126Z" fill="black"/>
<path d="M74.8583 120.751H29.5351C29.3796 120.751 29.25 120.621 29.25 120.466V112.454C29.25 112.299 29.3796 112.169 29.5351 112.169H74.8713C75.0267 112.169 75.1563 112.299 75.1563 112.454V120.466C75.1563 120.621 75.0267 120.751 74.8583 120.751ZM29.8201 120.181H74.5862V112.752H29.8201V120.181Z" fill="black"/>
<path d="M84.5103 130.15H79.0036C78.9258 130.15 78.861 130.124 78.8092 130.072L69.0267 120.686C68.936 120.609 68.9101 120.479 68.962 120.375C69.0008 120.272 69.1045 120.194 69.2211 120.194H74.7278C74.8055 120.194 74.8703 120.22 74.9221 120.272L84.7046 129.658C84.7953 129.735 84.8212 129.865 84.7694 129.969C84.7305 130.072 84.6269 130.15 84.5103 130.15ZM79.1202 129.58H83.7976L74.6112 120.764H69.9337L79.1202 129.58Z" fill="black"/>
<path d="M75.9212 135.711H70.4015C70.3238 135.711 70.259 135.686 70.2072 135.634L54.62 120.673C54.5293 120.596 54.5034 120.466 54.5552 120.362C54.5941 120.258 54.6977 120.181 54.8144 120.181H60.334C60.4117 120.181 60.4765 120.207 60.5284 120.258L76.1155 135.219C76.2062 135.297 76.2321 135.426 76.1803 135.53C76.1414 135.647 76.0378 135.711 75.9212 135.711ZM70.5181 135.141H75.2085L60.2174 120.764H55.527L70.5181 135.141Z" fill="black"/>
<path d="M61.4098 104.689H8.22168V112.454H61.4098V104.689Z" fill="#C67C4E"/>
<path d="M61.4221 112.739H8.22109C8.0656 112.739 7.93604 112.61 7.93604 112.454V104.689C7.93604 104.533 8.0656 104.403 8.22109 104.403H61.4092C61.5647 104.403 61.6942 104.533 61.6942 104.689V112.454C61.7072 112.61 61.5776 112.739 61.4221 112.739ZM8.50614 112.169H61.1241V104.974H8.50614V112.169Z" fill="black"/>
<path d="M61.4098 89.1582H8.22168V96.9236H61.4098V89.1582Z" fill="#2F4B4E"/>
<path d="M61.4221 97.2084H8.22109C8.0656 97.2084 7.93604 97.0788 7.93604 96.9232V89.1578C7.93604 89.0022 8.0656 88.8726 8.22109 88.8726H61.4092C61.5647 88.8726 61.6942 89.0022 61.6942 89.1578V96.9232C61.7072 97.0788 61.5776 97.2084 61.4221 97.2084ZM8.50614 96.625H61.1241V89.43H8.50614V96.625Z" fill="black"/>
<path d="M68.6402 96.9233H15.4521V104.689H68.6402V96.9233Z" fill="#FBBE21"/>
<path d="M68.6526 104.974H15.4516C15.2961 104.974 15.1665 104.844 15.1665 104.689V96.9234C15.1665 96.7678 15.2961 96.6382 15.4516 96.6382H68.6396C68.7951 96.6382 68.9247 96.7678 68.9247 96.9234V104.689C68.9377 104.844 68.8081 104.974 68.6526 104.974ZM15.7366 104.404H68.3546V97.2086H15.7366V104.404Z" fill="black"/>
<path d="M68.6402 81.3794H15.4521V89.1448H68.6402V81.3794Z" fill="#FBBE21"/>
<path d="M68.6526 89.4301H15.4516C15.2961 89.4301 15.1665 89.3004 15.1665 89.1449V81.3794C15.1665 81.2239 15.2961 81.0942 15.4516 81.0942H68.6396C68.7951 81.0942 68.9247 81.2239 68.9247 81.3794V89.1449C68.9377 89.3004 68.8081 89.4301 68.6526 89.4301ZM15.7366 88.8597H68.3546V81.6647H15.7366V88.8597Z" fill="black"/>
<path d="M93.101 200C107.191 200 118.613 188.571 118.613 174.474C118.613 160.376 107.191 148.948 93.101 148.948C79.011 148.948 67.5889 160.376 67.5889 174.474C67.5889 188.571 79.011 200 93.101 200Z" fill="#040404"/>
<path d="M93.1013 185.739C99.3198 185.739 104.361 180.696 104.361 174.474C104.361 168.252 99.3198 163.208 93.1013 163.208C86.8829 163.208 81.8418 168.252 81.8418 174.474C81.8418 180.696 86.8829 185.739 93.1013 185.739Z" fill="#F2F2F1"/>
<path d="M212.188 200C226.278 200 237.7 188.571 237.7 174.474C237.7 160.376 226.278 148.948 212.188 148.948C198.098 148.948 186.676 160.376 186.676 174.474C186.676 188.571 198.098 200 212.188 200Z" fill="#040404"/>
<path d="M212.188 185.739C218.407 185.739 223.448 180.696 223.448 174.474C223.448 168.252 218.407 163.208 212.188 163.208C205.97 163.208 200.929 168.252 200.929 174.474C200.929 180.696 205.97 185.739 212.188 185.739Z" fill="#F2F2F1"/>
<path d="M139.993 166.345C131.972 166.345 125.468 159.837 125.468 151.813V147.522V129.865H76.8278C73.3554 129.865 70.5308 132.691 70.5308 136.165V147.522H109.078V154.328C109.078 165.892 118.445 175.278 130.016 175.278H191.937C196.861 175.278 200.851 171.285 200.851 166.358L139.993 166.345Z" fill="#FFF597"/>
<path d="M191.924 175.563H130.003C118.303 175.563 108.779 166.034 108.779 154.328V147.807H70.5307C70.3752 147.807 70.2456 147.677 70.2456 147.522V136.165C70.2456 132.535 73.1998 129.58 76.8277 129.58H125.455C125.61 129.58 125.74 129.709 125.74 129.865V151.826C125.74 159.682 132.128 166.073 139.98 166.073H200.838C200.994 166.073 201.123 166.203 201.123 166.358C201.123 171.427 197.003 175.563 191.924 175.563ZM70.8157 147.237H109.064C109.22 147.237 109.35 147.366 109.35 147.522V154.328C109.35 165.723 118.614 174.992 130.003 174.992H191.924C196.588 174.992 200.398 171.272 200.553 166.644H139.993C131.83 166.644 125.183 159.993 125.183 151.826V130.163H76.8277C73.5107 130.163 70.8157 132.859 70.8157 136.178V147.237Z" fill="black"/>
<path d="M204.065 152.953H190.939C190.797 152.953 190.68 152.863 190.654 152.72L176.609 83.2331C176.596 83.1553 176.609 83.0645 176.674 82.9997C176.726 82.9349 176.803 82.896 176.894 82.896H186.366C192.248 82.896 197.56 86.3703 199.918 91.7633L217.605 132.237C219.613 136.826 219.172 142.077 216.426 146.264C213.692 150.438 209.066 152.953 204.065 152.953ZM191.173 152.37H204.065C208.885 152.37 213.329 149.959 215.959 145.927C218.589 141.895 219.017 136.852 217.086 132.444L199.4 91.9708C197.133 86.7982 192.028 83.4405 186.379 83.4405H177.257L191.173 152.37Z" fill="black"/>
<path d="M186.366 83.1689H176.895L190.94 152.656H204.065C214.521 152.656 221.544 141.922 217.346 132.328L199.66 91.8548C197.353 86.5914 192.132 83.1689 186.366 83.1689Z" fill="#FFF597"/>
<path d="M213.279 134.402C213.162 134.402 213.058 134.337 213.02 134.234L195.333 93.7602C193.779 90.1951 190.254 87.9005 186.367 87.9005H182.325C182.169 87.9005 182.04 87.7708 182.04 87.6153C182.04 87.4597 182.169 87.3301 182.325 87.3301H186.367C190.474 87.3301 194.206 89.7673 195.852 93.5398L213.538 134.013C213.603 134.156 213.538 134.324 213.395 134.389C213.356 134.389 213.318 134.402 213.279 134.402Z" fill="black"/>
<path d="M204.065 152.954H190.94C190.797 152.954 190.681 152.863 190.655 152.72L176.609 83.2335C176.597 83.1558 176.609 83.065 176.674 83.0002C176.726 82.9354 176.804 82.8965 176.895 82.8965H186.366C192.248 82.8965 197.561 86.3708 199.919 91.7638L217.605 132.237C219.613 136.827 219.173 142.077 216.426 146.264C213.692 150.439 209.067 152.954 204.065 152.954ZM191.173 152.37H204.065C208.885 152.37 213.329 149.959 215.96 145.927C218.59 141.896 219.017 136.853 217.087 132.445L199.401 91.9713C197.133 86.7986 192.028 83.441 186.379 83.441H177.257L191.173 152.37Z" fill="black"/>
<path d="M192.701 83.0778C180.897 83.0778 171.335 76.2976 171.335 67.9359C171.335 59.5741 180.897 52.7939 192.701 52.7939V83.0778Z" fill="#FFF597"/>
<path d="M192.7 83.363C180.754 83.363 171.049 76.4403 171.049 67.9359C171.049 59.4315 180.767 52.5088 192.7 52.5088C192.856 52.5088 192.985 52.6384 192.985 52.794V83.0908C192.985 83.2334 192.856 83.363 192.7 83.363ZM192.415 53.0662C180.922 53.1699 171.619 59.7945 171.619 67.923C171.619 76.0514 180.922 82.6759 192.415 82.7797V53.0662Z" fill="black"/>
<path d="M192.713 57.7593C198.324 57.7593 202.885 62.3096 202.885 67.936C202.885 73.5494 198.337 78.1127 192.713 78.1127V57.7593Z" fill="white"/>
<path d="M192.713 78.385C192.558 78.385 192.428 78.2554 192.428 78.0998V57.7593C192.428 57.6038 192.558 57.4741 192.713 57.4741C198.479 57.4741 203.17 62.1671 203.17 67.936C203.157 73.692 198.479 78.385 192.713 78.385ZM192.998 58.0445V77.8146C198.311 77.659 202.599 73.2902 202.599 67.936C202.586 62.569 198.311 58.2001 192.998 58.0445Z" fill="black"/>
<path d="M199.542 68.2079C199.386 68.2079 199.256 68.0783 199.256 67.9227C199.256 64.8373 197.067 62.1408 194.048 61.5315C193.892 61.5056 193.789 61.35 193.828 61.1944C193.853 61.0388 194.009 60.9351 194.164 60.974C197.443 61.6481 199.827 64.578 199.827 67.9357C199.827 68.0912 199.71 68.2079 199.542 68.2079Z" fill="black"/>
<path d="M127.204 129.865H87.0761C85.301 129.865 83.8628 128.426 83.8628 126.65V123.759C83.8628 121.983 85.301 120.544 87.0761 120.544H127.204C128.979 120.544 130.417 121.983 130.417 123.759V126.65C130.417 128.426 128.979 129.865 127.204 129.865Z" fill="black"/>
<path d="M235.277 155.404C227.283 143.879 211.773 139.873 199.05 146.575C186.326 153.278 180.871 168.355 185.846 181.461L235.277 155.404Z" fill="#FFD600"/>
<path d="M185.859 181.76C185.82 181.76 185.794 181.76 185.755 181.747C185.677 181.721 185.613 181.656 185.587 181.578C180.495 168.173 186.234 153.031 198.919 146.342C211.604 139.653 227.334 143.49 235.51 155.261C235.561 155.326 235.574 155.417 235.548 155.495C235.522 155.572 235.471 155.637 235.406 155.676L185.988 181.721C185.949 181.747 185.911 181.76 185.859 181.76ZM212.148 143.62C207.756 143.62 203.312 144.657 199.191 146.835C186.856 153.343 181.233 168.005 186.014 181.06L234.862 155.3C229.485 147.755 220.92 143.62 212.148 143.62Z" fill="black"/>
<path d="M224.069 157.076C224.004 157.076 223.926 157.05 223.874 156.999C219.184 152.707 212.485 151.139 206.395 152.902C206.24 152.941 206.084 152.863 206.046 152.707C206.007 152.552 206.084 152.396 206.24 152.357C212.524 150.542 219.43 152.15 224.263 156.584C224.38 156.687 224.393 156.869 224.276 156.986C224.224 157.037 224.146 157.076 224.069 157.076Z" fill="black"/>
<path d="M121.036 157.699C119.325 143.775 107.483 132.989 93.1006 132.989C78.7314 132.989 66.8758 143.775 65.1655 157.699H121.036Z" fill="#FFD600"/>
<path d="M121.037 157.984H65.1795C65.1017 157.984 65.024 157.945 64.9592 157.893C64.9074 157.828 64.8815 157.75 64.8944 157.672C66.6436 143.438 78.7713 132.717 93.1146 132.717C107.458 132.717 119.586 143.451 121.335 157.672C121.348 157.75 121.322 157.841 121.27 157.893C121.192 157.958 121.114 157.984 121.037 157.984ZM65.5034 157.413H120.713C118.86 143.632 107.056 133.274 93.1016 133.274C79.16 133.274 67.3433 143.632 65.5034 157.413Z" fill="#FFD600"/>
<path d="M110.62 153.706C110.503 153.706 110.399 153.641 110.348 153.524C107.678 146.355 100.747 141.546 93.1019 141.546C92.9465 141.546 92.8169 141.416 92.8169 141.26C92.8169 141.105 92.9465 140.975 93.1019 140.975C100.98 140.975 108.132 145.94 110.892 153.33C110.944 153.472 110.866 153.641 110.723 153.693C110.684 153.693 110.659 153.706 110.62 153.706Z" fill="black"/>
<path d="M45.0836 174.785H9.23183C9.07635 174.785 8.94678 174.655 8.94678 174.5C8.94678 174.344 9.07635 174.214 9.23183 174.214H45.0965C45.252 174.214 45.3816 174.344 45.3816 174.5C45.3686 174.655 45.252 174.785 45.0836 174.785Z" fill="black"/>
<path d="M63.417 180.373H31.1024C30.947 180.373 30.8174 180.243 30.8174 180.087C30.8174 179.932 30.947 179.802 31.1024 179.802H63.417C63.5724 179.802 63.702 179.932 63.702 180.087C63.702 180.256 63.5724 180.373 63.417 180.373Z" fill="black"/>
<path d="M63.417 169.301H31.1024C30.947 169.301 30.8174 169.171 30.8174 169.016C30.8174 168.86 30.947 168.73 31.1024 168.73H63.417C63.5724 168.73 63.702 168.86 63.702 169.016C63.702 169.171 63.5724 169.301 63.417 169.301Z" fill="black"/>
<path d="M25.1947 120.764H0.770892C0.615409 120.764 0.48584 120.634 0.48584 120.479C0.48584 120.323 0.615409 120.193 0.770892 120.193H25.1947C25.3501 120.193 25.4797 120.323 25.4797 120.479C25.4797 120.634 25.3501 120.764 25.1947 120.764Z" fill="black"/>
<path d="M175.396 76.4013C177.3 75.6121 178.204 73.428 177.416 71.5229C176.627 69.6178 174.444 68.7132 172.54 69.5023C170.636 70.2914 169.732 72.4755 170.52 74.3806C171.309 76.2857 173.492 77.1904 175.396 76.4013Z" fill="black"/>
<path d="M98.4248 23.015L95.4683 37.0322L106.6 39.3827L109.556 25.3655L98.4248 23.015Z" fill="#FFDBC5"/>
<path d="M106.588 39.6748C106.562 39.6748 106.549 39.6748 106.524 39.6748L95.3936 37.3283C95.3158 37.3153 95.2511 37.2635 95.2122 37.1986C95.1733 37.1338 95.1604 37.056 95.1733 36.9783L98.1404 22.9512C98.1793 22.7957 98.3218 22.692 98.4773 22.7309L109.607 25.0773C109.685 25.0903 109.75 25.1422 109.789 25.207C109.828 25.2718 109.841 25.3496 109.828 25.4274L106.873 39.4544C106.835 39.584 106.718 39.6748 106.588 39.6748ZM95.7953 36.8227L106.355 39.0525L109.193 25.5959L98.6328 23.3661L95.7953 36.8227Z" fill="black"/>
<path d="M97.5317 27.2424L98.4258 23.0161L109.556 25.3626L107.586 34.6837C106.537 34.6707 104.49 34.5022 102.352 33.2577C98.9959 31.3131 97.8168 28.1239 97.5317 27.2424Z" fill="black" fill-opacity="0.5"/>
<path d="M103.817 30.8464C108.87 30.8464 112.965 26.3191 112.965 20.7345C112.965 15.1498 108.87 10.6226 103.817 10.6226C98.7654 10.6226 94.6699 15.1498 94.6699 20.7345C94.6699 26.3191 98.7654 30.8464 103.817 30.8464Z" fill="#FFDBC5"/>
<path d="M103.817 31.1316C98.6212 31.1316 94.3843 26.4646 94.3843 20.7345C94.3843 15.0044 98.6212 10.3374 103.817 10.3374C109.013 10.3374 113.25 15.0044 113.25 20.7345C113.25 26.4646 109.026 31.1316 103.817 31.1316ZM103.817 10.9078C98.9321 10.9078 94.9544 15.3156 94.9544 20.7345C94.9544 26.1534 98.9321 30.5612 103.817 30.5612C108.702 30.5612 112.679 26.1534 112.679 20.7345C112.679 15.3156 108.715 10.9078 103.817 10.9078Z" fill="black"/>
<path d="M103.362 31.1576C96.5729 31.1576 91.0532 25.0905 91.0532 17.6233C91.0532 10.156 96.5729 4.08887 103.362 4.08887C110.152 4.08887 115.671 10.156 115.671 17.6233C115.684 25.0905 110.152 31.1576 103.362 31.1576ZM103.362 4.65929C96.8838 4.65929 91.6233 10.4801 91.6233 17.6233C91.6233 24.7664 96.8968 30.5872 103.362 30.5872C109.828 30.5872 115.101 24.7664 115.101 17.6233C115.114 10.4801 109.841 4.65929 103.362 4.65929Z" fill="black"/>
<path d="M112.925 19.814C112.498 14.6544 108.585 10.6226 103.817 10.6226C98.8931 10.6226 94.8894 14.9136 94.6821 20.2937C99.3596 20.7345 107.25 20.6696 112.925 19.814Z" fill="black" fill-opacity="0.5"/>
<path d="M99.9028 25.1293C100.784 25.946 101.924 26.4905 103.207 26.6201C106.07 26.9053 108.649 25.0515 109.361 22.355L99.9028 25.1293Z" fill="white"/>
<path d="M90.7164 20.877C87.3217 13.1375 90.1204 4.42573 96.9746 1.39216C103.829 -1.64141 111.72 2.14407 115.14 9.85763L90.7164 20.877Z" fill="#2F4B4E"/>
<path d="M90.6777 20.8125C98.1927 19.8531 113.08 16.2232 118.794 12.71C124.016 9.50787 121.321 8.39297 115.024 9.68937L90.6777 20.8125Z" fill="#2F4B4E"/>
<path d="M90.6773 21.0975C90.5348 21.0975 90.4182 20.9938 90.3923 20.8512C90.3664 20.6957 90.483 20.5531 90.6385 20.5271C98.283 19.5548 112.989 15.9249 118.638 12.4635C121.398 10.7653 121.295 10.0652 121.243 9.94853C121.087 9.54665 119.597 9.04106 115.062 9.97446C114.907 10.0004 114.751 9.90964 114.725 9.75407C114.699 9.59851 114.79 9.44294 114.946 9.41701C116.811 9.02809 121.204 8.28914 121.774 9.74111C122.085 10.5449 121.165 11.595 118.936 12.9562C113.222 16.4564 98.3997 20.1123 90.7032 21.0975C90.7032 21.0975 90.6903 21.0975 90.6773 21.0975Z" fill="black"/>
<path d="M115.023 9.97436C114.919 9.97436 114.802 9.90954 114.764 9.80582C112.094 3.79054 106.147 0.0309918 100.304 0.640298C100.148 0.653262 100.006 0.536587 99.9927 0.381019C99.9797 0.225451 100.096 0.0828445 100.252 0.0698805C106.342 -0.578318 112.522 3.3368 115.295 9.57247C115.36 9.71508 115.295 9.88361 115.152 9.94843C115.1 9.97436 115.062 9.97436 115.023 9.97436Z" fill="black"/>
<path d="M105.305 14.2655C105.202 14.2655 105.085 14.2007 105.046 14.097C104.981 13.9544 105.046 13.7859 105.189 13.721L114.906 9.42997C115.049 9.36515 115.217 9.42997 115.282 9.57257C115.347 9.71518 115.282 9.88371 115.14 9.94853L105.422 14.2396C105.383 14.2655 105.344 14.2655 105.305 14.2655Z" fill="black"/>
<path d="M174.86 128.593L161.186 131.377L165.054 150.394L178.728 147.61L174.86 128.593Z" fill="#696969"/>
<path d="M165.051 150.685C164.922 150.685 164.805 150.595 164.766 150.452L160.905 131.434C160.879 131.278 160.97 131.123 161.126 131.097L174.795 128.31C174.951 128.284 175.106 128.374 175.132 128.53L178.993 147.548C179.006 147.626 178.993 147.704 178.954 147.768C178.915 147.833 178.851 147.872 178.773 147.885L165.103 150.672C165.09 150.685 165.064 150.685 165.051 150.685ZM161.514 131.602L165.272 150.05L178.384 147.38L174.627 128.932L161.514 131.602Z" fill="black"/>
<path d="M162.007 143.672L161.774 143.957C159.156 147.263 159.247 150.128 157.874 154.847L175.404 161.212L201.616 161.536L206.099 158.905L204.583 155.184L190.084 150.387L180.121 144.074L178.06 141.001H175.301L172.981 143.166V145.876C170.364 147.445 169.885 148.196 168.576 148.196C168.55 148.184 166.373 148.404 165.674 146.317L164.961 144.165C164.52 142.907 162.849 142.609 162.007 143.672Z" fill="white"/>
<path d="M201.693 161.835H201.615L175.352 161.51L175.3 161.498L157.523 155.028L157.601 154.769C157.989 153.421 158.274 152.202 158.508 151.139C159.13 148.378 159.635 146.2 161.54 143.789L161.773 143.504C162.239 142.92 162.939 142.648 163.677 142.778C164.403 142.907 164.986 143.4 165.219 144.113L165.932 146.265C166.463 147.846 167.914 147.976 168.523 147.95C168.536 147.95 168.549 147.95 168.575 147.95C169.366 147.95 169.819 147.639 170.83 146.952C171.309 146.628 171.892 146.226 172.683 145.746V143.076L175.17 140.742H178.202L180.314 143.892L190.2 150.154L204.79 154.977L206.448 159.047L201.693 161.835ZM175.455 160.94L201.538 161.264L205.736 158.801L204.362 155.43L189.954 150.673L189.928 150.66L179.912 144.32L177.904 141.326H175.403L173.253 143.335V146.083L173.11 146.161C172.268 146.667 171.646 147.095 171.141 147.432C170.104 148.132 169.534 148.521 168.562 148.521H168.549C167.953 148.534 166.049 148.443 165.388 146.446L164.675 144.294C164.507 143.789 164.092 143.439 163.574 143.348C163.056 143.257 162.55 143.452 162.213 143.867L161.98 144.152C160.153 146.459 159.661 148.585 159.052 151.282C158.819 152.293 158.559 153.434 158.21 154.691L175.455 160.94Z" fill="black"/>
<path d="M206.099 158.918L204.492 159.229C200.125 160.058 195.681 160.408 191.25 160.24L189.475 160.175C180.599 159.851 171.789 158.529 163.211 156.26L157.899 154.86L155.256 157.258L154.154 163.286L161.216 166.359C161.216 166.359 166.295 166.385 172.747 166.411L174.302 164.855H176.725L178.306 166.437C188.386 166.463 199.205 166.476 199.309 166.372C199.491 166.19 205.179 163.39 205.179 163.39L206.124 161.562V158.918H206.099Z" fill="#696969"/>
<path d="M179.627 147.834C179.536 147.834 179.445 147.795 179.394 147.704C179.303 147.575 179.342 147.393 179.471 147.302L182.361 145.306C182.49 145.215 182.672 145.254 182.762 145.384C182.853 145.513 182.814 145.695 182.685 145.785L179.795 147.782C179.744 147.808 179.679 147.834 179.627 147.834Z" fill="black"/>
<path d="M182.127 149.506C182.037 149.506 181.946 149.467 181.894 149.377C181.803 149.247 181.842 149.065 181.972 148.975L184.861 146.978C184.991 146.887 185.172 146.926 185.263 147.056C185.354 147.186 185.315 147.367 185.185 147.458L182.296 149.454C182.231 149.493 182.179 149.506 182.127 149.506Z" fill="black"/>
<path d="M184.615 151.192C184.524 151.192 184.433 151.153 184.381 151.062C184.291 150.932 184.33 150.751 184.459 150.66L187.349 148.664C187.478 148.573 187.66 148.612 187.75 148.741C187.841 148.871 187.802 149.053 187.673 149.143L184.783 151.14C184.731 151.166 184.679 151.192 184.615 151.192Z" fill="black"/>
<path d="M151.019 78.554L107.445 96.4702V91.1809H79.5874V105.869C79.5874 113.972 86.1566 120.544 94.2546 120.544H99.0875C105.838 120.544 112.524 119.222 118.769 116.642L150.488 103.626L157.316 134.701L179.913 130.669L171.698 89.6382C169.819 80.2523 159.855 74.9241 151.019 78.554Z" fill="#2F4B4E"/>
<path d="M157.303 134.986C157.173 134.986 157.057 134.895 157.018 134.766L150.254 104.028L118.86 116.901C112.55 119.507 105.89 120.816 99.0616 120.816H94.2286C85.988 120.816 79.2764 114.101 79.2764 105.856V91.1809C79.2764 91.0253 79.4059 90.8957 79.5614 90.8957H107.419C107.574 90.8957 107.704 91.0253 107.704 91.1809V96.0423L150.889 78.2947C155.178 76.5316 159.985 76.7779 164.079 78.9688C168.174 81.1597 171.037 85.023 171.944 89.5863L180.159 130.617C180.172 130.695 180.159 130.773 180.12 130.838C180.081 130.902 180.003 130.941 179.939 130.954L157.342 134.986C157.342 134.973 157.329 134.986 157.303 134.986ZM150.475 103.341C150.526 103.341 150.565 103.354 150.604 103.38C150.682 103.419 150.734 103.484 150.747 103.574L157.523 134.377L179.563 130.449L171.413 89.677C170.532 85.2952 167.772 81.5616 163.833 79.4614C159.894 77.3483 155.269 77.1149 151.135 78.8132L107.561 96.7294C107.471 96.7683 107.367 96.7554 107.289 96.7035C107.211 96.6516 107.16 96.5609 107.16 96.4702V91.4661H79.8594V105.869C79.8594 113.803 86.312 120.259 94.2416 120.259H99.0745C105.825 120.259 112.407 118.95 118.652 116.383L150.371 103.367C150.397 103.341 150.436 103.341 150.475 103.341Z" fill="black"/>
<path d="M81.1034 50.2017L71.1914 96.9887H107.756L115.932 58.4079L116.126 57.4745C118.419 46.6755 110.179 36.5117 99.1524 36.5117H98.0122C89.8364 36.4988 82.7878 42.2159 81.1034 50.2017Z" fill="#FBBE21"/>
<path d="M156.668 59.5225V72.6679H165.518H169.975H178.423C179.149 72.6679 179.848 72.9791 180.328 73.5236L181.351 74.6644C182.271 75.6885 183.891 75.5978 184.707 74.4829C185.238 73.7439 185.238 72.7457 184.733 72.0068L185.303 71.216C185.951 70.3085 185.873 69.0769 185.122 68.2472L184.552 67.625C185.122 66.7304 185.031 65.5507 184.306 64.7599L183.347 63.7228L183.36 63.7098C183.761 62.8542 183.619 61.8301 182.958 61.117L182.116 60.1966C180.496 58.4465 178.216 57.4482 175.819 57.4482H167.773C164.43 57.4482 163.574 59.4965 162.097 59.4965H156.668V59.5225Z" fill="#DFE3E8"/>
<path d="M184.552 67.9363C184.5 67.9363 184.449 67.9233 184.397 67.8844C184.267 67.7937 184.228 67.6252 184.306 67.4955C184.811 66.7047 184.721 65.6676 184.086 64.9805L182.583 63.36C181.43 62.1155 179.797 61.4024 178.113 61.4024H173.979C173.824 61.4024 173.694 61.2728 173.694 61.1172C173.694 60.9617 173.824 60.832 173.979 60.832H178.113C179.965 60.832 181.754 61.6099 183.01 62.9711L184.513 64.5916C185.33 65.4731 185.446 66.7955 184.798 67.8066C184.734 67.8844 184.643 67.9363 184.552 67.9363Z" fill="black"/>
<path d="M184.72 72.3049C184.668 72.3049 184.603 72.292 184.552 72.2531C184.422 72.1623 184.396 71.9808 184.487 71.8512L185.057 71.0604C185.627 70.2696 185.562 69.1806 184.901 68.4546L183.1 66.51C182.142 65.4729 180.781 64.8766 179.369 64.8766H173.94C173.784 64.8766 173.655 64.7469 173.655 64.5914C173.655 64.4358 173.784 64.3062 173.94 64.3062H179.369C180.937 64.3062 182.453 64.9673 183.528 66.1211L185.329 68.0657C186.171 68.9861 186.262 70.3733 185.536 71.3845L184.966 72.1753C184.901 72.266 184.811 72.3049 184.72 72.3049Z" fill="black"/>
<path d="M169.976 72.9661H156.384V59.2373H162.072C162.577 59.2373 163.018 58.9391 163.588 58.5631C164.508 57.9538 165.661 57.189 167.747 57.189H175.793C178.255 57.189 180.626 58.2261 182.298 60.0281L183.14 60.9485C183.865 61.7393 184.047 62.8801 183.593 63.8524C183.529 63.995 183.36 64.0599 183.218 63.995C183.075 63.9302 183.01 63.7617 183.075 63.6191C183.438 62.8542 183.295 61.9597 182.725 61.3504L181.883 60.43C180.315 58.7446 178.1 57.7723 175.793 57.7723H167.747C165.829 57.7723 164.754 58.4854 163.899 59.0428C163.277 59.4577 162.746 59.8077 162.072 59.8077H156.954V72.3827H169.976C170.131 72.3827 170.261 72.5124 170.261 72.6679C170.261 72.8235 170.131 72.9661 169.976 72.9661Z" fill="black"/>
<path d="M182.957 75.6757C182.27 75.6757 181.61 75.3905 181.143 74.859L180.12 73.7181C179.692 73.2385 179.07 72.9662 178.422 72.9662H167.772C165.426 72.9662 163.25 71.8124 161.941 69.8678C161.85 69.7382 161.889 69.5567 162.019 69.466C162.148 69.3752 162.33 69.4141 162.42 69.5437C163.625 71.3328 165.634 72.3958 167.785 72.3958H178.435C179.238 72.3958 180.016 72.7458 180.56 73.3422L181.584 74.483C181.959 74.9108 182.504 75.1312 183.074 75.1053C183.644 75.0794 184.162 74.7941 184.486 74.3274C185.004 73.6144 184.94 72.6162 184.344 71.968L182.465 69.9456C181.48 68.8826 180.094 68.2862 178.655 68.2862H174.133C173.978 68.2862 173.848 68.1566 173.848 68.001C173.848 67.8455 173.978 67.7158 174.133 67.7158H178.655C180.249 67.7158 181.791 68.39 182.879 69.5697L184.758 71.5921C185.549 72.4347 185.626 73.7311 184.952 74.6775C184.525 75.2738 183.851 75.6498 183.1 75.6887C183.048 75.6627 182.996 75.6757 182.957 75.6757Z" fill="black"/>
<path d="M131.713 57.1243L111.682 41.6972C108.132 38.9618 103.104 39.3766 100.047 42.6436L92.687 50.4868L115.115 68.2863C120.35 72.4348 126.828 74.7035 133.501 74.7035H158.715V57.1243H131.713Z" fill="#FBBE21"/>
<path d="M107.743 97.2737H71.1914C71.1007 97.2737 71.023 97.2348 70.9712 97.17C70.9193 97.1052 70.8934 97.0144 70.9193 96.9366L80.8184 50.1367C82.5287 42.0601 89.7587 36.2134 97.9993 36.2134H99.1395C103.338 36.2134 107.095 37.7172 111.306 41.0878L111.345 41.1138C111.63 41.2953 111.63 41.2953 115.452 44.2381C118.277 46.416 123.175 50.1885 131.804 56.8391H158.728C158.884 56.8391 159.013 56.9687 159.013 57.1243V74.7034C159.013 74.859 158.884 74.9886 158.728 74.9886H133.514C126.802 74.9886 120.207 72.694 114.947 68.5196L114.195 67.9233L108.028 97.0403C108.002 97.17 107.885 97.2737 107.743 97.2737ZM71.5413 96.7033H107.51L113.729 67.3528C113.755 67.2621 113.82 67.1713 113.91 67.1454C114.001 67.1065 114.105 67.1325 114.182 67.1843L115.284 68.0659C120.441 72.1625 126.906 74.4182 133.488 74.4182H158.417V57.4095H131.687C131.622 57.4095 131.558 57.3835 131.519 57.3447C122.838 50.6552 117.914 46.8698 115.089 44.6789C111.28 41.749 111.28 41.749 111.021 41.5805L110.956 41.5416C106.836 38.2487 103.195 36.7838 99.1265 36.7838H97.9863C90.0049 36.7838 83.0211 42.4491 81.3626 50.2534L71.5413 96.7033Z" fill="black"/>
<path d="M115.116 68.5715C115.051 68.5715 114.986 68.5456 114.934 68.5067L101.044 57.4873C100.915 57.3836 100.902 57.2151 100.993 57.0855C101.096 56.9558 101.265 56.9429 101.394 57.0336L115.284 68.053C115.414 68.1567 115.427 68.3252 115.336 68.4549C115.284 68.5326 115.206 68.5715 115.116 68.5715Z" fill="white"/>
</svg>
