<svg width="189" height="200" viewBox="0 0 189 200" fill="none" xmlns="http://www.w3.org/2000/svg">
<g clip-path="url(#clip0_171_8048)">
<path d="M144.164 0.240234H41.3332C38.7431 0.240234 36.6338 2.34952 36.6338 4.93969V126.666C36.6338 129.257 38.7431 131.366 41.3332 131.366H144.164C146.754 131.366 148.863 129.257 148.863 126.666V4.93969C148.863 2.34952 146.754 0.240234 144.164 0.240234Z" fill="#C9C9C9"/>
<path d="M144.164 131.607H41.3334C38.6121 131.607 36.3936 129.388 36.3936 126.667V4.93989C36.3936 2.21858 38.6121 0 41.3334 0H144.164C146.885 0 149.104 2.21858 149.104 4.93989V126.667C149.104 129.388 146.885 131.607 144.164 131.607ZM41.3334 0.480874C38.8744 0.480874 36.8744 2.48087 36.8744 4.93989V126.667C36.8744 129.126 38.8744 131.126 41.3334 131.126H144.164C146.623 131.126 148.623 129.126 148.623 126.667V4.93989C148.623 2.48087 146.623 0.480874 144.164 0.480874H41.3334Z" fill="black"/>
<path d="M148.863 47.235C148.732 47.235 148.623 47.1258 148.623 46.9946V32.2077C148.623 32.0766 148.732 31.9673 148.863 31.9673C148.995 31.9673 149.104 32.0766 149.104 32.2077V46.9946C149.104 47.1258 148.995 47.235 148.863 47.235Z" fill="black"/>
<path d="M100.47 6.73193H42.874V124.863H100.47V6.73193Z" fill="#E7FBFF"/>
<path d="M100.47 125.115H42.8742C42.7431 125.115 42.6338 125.005 42.6338 124.874V6.73214C42.6338 6.60099 42.7431 6.4917 42.8742 6.4917H100.47C100.601 6.4917 100.71 6.60099 100.71 6.73214V124.863C100.71 125.005 100.601 125.115 100.47 125.115ZM43.1147 124.634H100.218V6.97257H43.1147V124.634Z" fill="black"/>
<path d="M142.623 6.73193H106.404V124.863H142.623V6.73193Z" fill="#E7FBFF"/>
<path d="M142.623 125.115H106.404C106.273 125.115 106.164 125.005 106.164 124.874V6.73214C106.164 6.60099 106.273 6.4917 106.404 6.4917H142.623C142.754 6.4917 142.864 6.60099 142.864 6.73214V124.863C142.864 125.005 142.754 125.115 142.623 125.115ZM106.645 124.634H142.383V6.97257H106.645V124.634Z" fill="black"/>
<path d="M156.437 132.819H26.0981V137.967H156.437V132.819Z" fill="#C67C4E"/>
<path d="M156.426 138.208H26.0983C25.9672 138.208 25.8579 138.098 25.8579 137.967V132.82C25.8579 132.688 25.9672 132.579 26.0983 132.579H156.437C156.568 132.579 156.678 132.688 156.678 132.82V137.967C156.667 138.098 156.568 138.208 156.426 138.208ZM26.3388 137.727H156.186V133.06H26.3388V137.727Z" fill="black"/>
<path d="M141.759 119.77C141.399 119.65 141.016 119.584 140.601 119.584H139.65V116.907H123.213V126.491C123.213 130.284 126.284 133.355 130.065 133.355H132.787C136.393 133.355 139.344 130.568 139.617 127.038H140.59C142.623 127.038 144.131 125.289 144.131 123.246V123.213C144.153 121.595 143.191 120.251 141.759 119.77ZM140.47 124.907H139.661V121.715H140.47C141.344 121.715 142.043 122.437 142.043 123.311C142.043 124.185 141.344 124.907 140.47 124.907Z" fill="#C67C4E"/>
<path d="M132.798 133.595H130.076C126.164 133.595 122.973 130.415 122.973 126.492V116.907C122.973 116.776 123.082 116.667 123.213 116.667H139.65C139.781 116.667 139.891 116.776 139.891 116.907V119.333H140.59C141.016 119.333 141.432 119.399 141.825 119.53C143.377 120.054 144.372 121.497 144.372 123.213V123.246C144.372 125.464 142.678 127.279 140.59 127.279H139.836C139.464 130.841 136.404 133.595 132.798 133.595ZM123.464 117.158V126.503C123.464 130.153 126.437 133.115 130.076 133.115H132.798C136.229 133.115 139.126 130.437 139.388 127.016C139.399 126.885 139.508 126.798 139.628 126.798H140.601C142.448 126.798 143.902 125.246 143.902 123.257V123.224C143.902 121.716 143.027 120.448 141.683 120C141.344 119.88 140.973 119.825 140.601 119.825H139.65C139.519 119.825 139.41 119.716 139.41 119.585V117.158H123.464ZM140.47 125.147H139.661C139.53 125.147 139.421 125.038 139.421 124.907V121.716C139.421 121.585 139.53 121.475 139.661 121.475H140.47C141.475 121.475 142.295 122.295 142.295 123.311C142.284 124.328 141.475 125.147 140.47 125.147ZM139.902 124.666H140.47C141.202 124.666 141.803 124.054 141.803 123.311C141.803 122.568 141.202 121.956 140.47 121.956H139.902V124.666Z" fill="black"/>
<path d="M132.798 133.595H130.076C126.164 133.595 122.973 130.415 122.973 126.492V116.907C122.973 116.776 123.082 116.667 123.213 116.667C123.344 116.667 123.454 116.776 123.454 116.907V126.492C123.454 130.142 126.426 133.104 130.066 133.104H132.787C136.219 133.104 139.115 130.426 139.377 127.005C139.388 126.874 139.497 126.787 139.617 126.787H140.59C142.437 126.787 143.891 125.235 143.891 123.246V123.213C143.891 122.514 143.705 121.858 143.344 121.3C143.268 121.191 143.301 121.038 143.421 120.962C143.53 120.885 143.683 120.918 143.76 121.038C144.164 121.672 144.382 122.426 144.382 123.213V123.246C144.382 125.464 142.689 127.279 140.601 127.279H139.847C139.464 130.841 136.404 133.595 132.798 133.595ZM140.404 125.147H139.88C139.628 125.147 139.421 124.94 139.421 124.688V121.934C139.421 121.683 139.628 121.475 139.88 121.475H140.47C140.984 121.475 141.475 121.694 141.814 122.087C142.164 122.481 142.328 123.005 142.273 123.519C142.175 124.448 141.366 125.147 140.404 125.147ZM139.902 124.666H140.404C141.115 124.666 141.727 124.142 141.803 123.464C141.847 123.082 141.727 122.688 141.464 122.404C141.213 122.12 140.852 121.956 140.481 121.956H139.913V124.666H139.902ZM141.76 120.011C141.738 120.011 141.705 120.011 141.683 120C141.344 119.88 140.973 119.825 140.601 119.825H139.88C139.628 119.825 139.421 119.617 139.421 119.366V117.158H126.076C125.945 117.158 125.836 117.049 125.836 116.918C125.836 116.787 125.945 116.677 126.076 116.677H139.443C139.694 116.677 139.902 116.885 139.902 117.136V119.344H140.601C141.027 119.344 141.443 119.41 141.836 119.541C141.967 119.585 142.033 119.716 141.989 119.847C141.956 119.945 141.869 120.011 141.76 120.011Z" fill="black"/>
<path d="M131.451 127.596C133.141 127.591 134.508 126.217 134.503 124.527C134.498 122.837 133.125 121.471 131.435 121.476C129.745 121.48 128.378 122.854 128.383 124.544C128.387 126.234 129.761 127.6 131.451 127.596Z" fill="#FFF597"/>
<path d="M131.443 127.836C129.628 127.836 128.142 126.361 128.142 124.535C128.142 122.71 129.617 121.235 131.443 121.235C133.268 121.235 134.743 122.71 134.743 124.535C134.743 126.361 133.257 127.836 131.443 127.836ZM131.443 121.727C129.891 121.727 128.623 122.994 128.623 124.546C128.623 126.098 129.891 127.366 131.443 127.366C132.995 127.366 134.262 126.098 134.262 124.546C134.262 122.994 132.995 121.727 131.443 121.727Z" fill="black"/>
<path d="M132.044 114.306C132 114.306 131.956 114.295 131.913 114.262C131.88 114.24 130.973 113.65 130.754 112.568C130.601 111.847 130.798 111.082 131.322 110.295C132.754 108.186 132.284 107.246 131.792 106.262L131.749 106.186C131.694 106.065 131.738 105.923 131.858 105.858C131.978 105.803 132.12 105.847 132.186 105.967L132.229 106.044C132.743 107.06 133.322 108.218 131.727 110.568C131.279 111.235 131.104 111.869 131.224 112.459C131.399 113.333 132.164 113.847 132.175 113.847C132.284 113.923 132.317 114.065 132.251 114.186C132.208 114.262 132.131 114.306 132.044 114.306Z" fill="black"/>
<path d="M159.465 34.6337H149.902C148.853 27.9234 143.049 22.7867 136.044 22.7867C134.241 22.7867 132.525 23.1255 130.94 23.7485C127.377 17.3113 120.514 12.9507 112.634 12.9507C101.082 12.9507 91.716 22.3168 91.716 33.8687C91.716 34.1201 91.7269 34.3824 91.7378 34.6337H90.7652C82.6996 34.6337 76.1641 41.1693 76.1641 49.2348C76.1641 57.3004 82.6996 63.8359 90.7652 63.8359H159.465C167.53 63.8359 174.066 57.3004 174.066 49.2348C174.066 41.1693 167.53 34.6337 159.465 34.6337Z" fill="#A0EEFF"/>
<path d="M161.027 62.3061H92.3279C84.1421 62.3061 77.4863 55.6503 77.4863 47.4645C77.4863 39.2787 84.1421 32.623 92.3279 32.623H93.0492C93.0382 32.4481 93.0382 32.2733 93.0382 32.0984C93.0382 20.4372 102.525 10.9399 114.197 10.9399C121.814 10.9399 128.852 15.0492 132.612 21.6831C134.219 21.082 135.891 20.776 137.607 20.776C141.027 20.776 144.339 22.011 146.929 24.2405C149.443 26.4044 151.115 29.3771 151.672 32.623H161.027C169.213 32.623 175.869 39.2787 175.869 47.4645C175.869 55.6503 169.213 62.3061 161.027 62.3061ZM92.3279 33.1148C84.4153 33.1148 77.9672 39.552 77.9672 47.4755C77.9672 55.388 84.4044 61.8361 92.3279 61.8361H161.027C168.94 61.8361 175.388 55.399 175.388 47.4755C175.388 39.5629 168.951 33.1148 161.027 33.1148H151.464C151.344 33.1148 151.246 33.0274 151.224 32.9072C150.164 26.164 144.437 21.2678 137.607 21.2678C135.88 21.2678 134.197 21.5848 132.59 22.2186C132.481 22.2623 132.35 22.2186 132.295 22.1093C128.645 15.5301 121.716 11.4317 114.197 11.4317C102.798 11.4317 93.5191 20.7104 93.5191 32.1093C93.5191 32.3388 93.53 32.5793 93.541 32.8088V32.8634C93.541 32.929 93.5191 32.9946 93.4754 33.0383C93.4317 33.082 93.3661 33.1148 93.3005 33.1148H92.3279Z" fill="black"/>
<path d="M111.585 182.546C111.585 182.546 117.192 193.858 123.487 199.3C124.547 200.219 126.208 199.716 126.601 198.361C126.831 197.585 127.049 196.546 127.235 195.158C127.924 189.989 123.279 176.546 123.279 176.546L121.213 175.88C120.492 175.65 119.716 176.087 119.563 176.831L119.345 177.836L116.853 175.65C116.284 175.147 115.421 175.224 114.951 175.814C114 177.027 112.525 179.279 111.585 182.546Z" fill="#2F4B4E"/>
<path d="M124.733 200C124.219 200 123.727 199.814 123.334 199.475C117.071 194.066 111.432 182.765 111.377 182.645C111.355 182.59 111.345 182.525 111.366 182.47C112.295 179.235 113.738 176.984 114.776 175.661C115.039 175.322 115.421 175.115 115.858 175.082C116.284 175.038 116.711 175.18 117.028 175.465L119.202 177.377L119.334 176.776C119.421 176.35 119.694 175.989 120.066 175.771C120.437 175.552 120.886 175.508 121.301 175.639L123.366 176.306C123.443 176.328 123.498 176.383 123.519 176.459C123.705 177.006 128.175 190.022 127.487 195.18C127.312 196.448 127.104 197.53 126.842 198.415C126.634 199.137 126.077 199.683 125.355 199.902C125.148 199.967 124.94 200 124.733 200ZM111.847 182.525C112.372 183.574 117.749 194.022 123.651 199.115C124.088 199.497 124.656 199.618 125.213 199.454C125.771 199.29 126.208 198.853 126.372 198.295C126.623 197.443 126.831 196.372 127.006 195.137C127.651 190.339 123.552 178.066 123.104 176.743L121.148 176.109C120.864 176.022 120.558 176.055 120.306 176.197C120.055 176.339 119.869 176.59 119.804 176.885L119.585 177.891C119.563 177.978 119.508 178.044 119.421 178.066C119.345 178.087 119.246 178.077 119.181 178.022L116.689 175.836C116.459 175.639 116.175 175.541 115.88 175.574C115.585 175.596 115.323 175.749 115.137 175.978C114.142 177.246 112.754 179.41 111.847 182.525Z" fill="black"/>
<path d="M125.246 198.175C125.181 198.175 125.126 198.153 125.071 198.099C118.667 191.672 113.312 181.607 113.257 181.497C113.191 181.377 113.235 181.235 113.355 181.17C113.476 181.104 113.618 181.148 113.683 181.268C113.738 181.366 119.06 191.366 125.421 197.749C125.519 197.847 125.519 198 125.421 198.088C125.366 198.153 125.301 198.175 125.246 198.175Z" fill="black"/>
<path d="M122.514 189.345C122.416 189.345 122.317 189.279 122.284 189.181C122.241 189.049 122.306 188.918 122.437 188.875L125.782 187.771C125.913 187.727 126.044 187.804 126.088 187.924C126.131 188.055 126.066 188.186 125.935 188.23L122.59 189.334C122.558 189.345 122.536 189.345 122.514 189.345Z" fill="black"/>
<path d="M120.306 185.77C120.208 185.77 120.11 185.705 120.077 185.606C120.033 185.475 120.099 185.344 120.23 185.3L124.438 183.912C124.569 183.869 124.7 183.934 124.744 184.065C124.787 184.197 124.722 184.328 124.591 184.371L120.383 185.759C120.361 185.759 120.339 185.77 120.306 185.77Z" fill="black"/>
<path d="M65.8254 97.5954C66.2516 97.1473 96.962 83.8795 109.508 81.0598C122.055 78.2402 126.732 78.2074 131.006 85.3877C135.279 92.5571 110.437 131.705 110.437 131.705L57.585 117.923L65.8254 97.5954Z" fill="#FFF597"/>
<path d="M95.5631 112.71C95.5303 112.71 95.4975 112.699 95.4647 112.688C95.3445 112.634 95.2898 112.492 95.3445 112.371C101.246 99.1911 110.995 89.7813 111.093 89.6829C111.191 89.5955 111.344 89.5955 111.432 89.6939C111.519 89.7922 111.519 89.9452 111.421 90.0326C111.323 90.131 101.64 99.4753 95.7816 112.568C95.7488 112.656 95.6614 112.71 95.5631 112.71Z" fill="#040404"/>
<path d="M40.6997 115.125C40.6997 115.125 42.0877 129.388 45.1806 132.36C48.2625 135.322 85.2899 132.36 85.2899 132.36C85.2899 132.36 88.2298 137.18 90.1533 150.065C92.0768 162.951 94.2188 180.284 97.3992 184.524L125.115 178.535C125.115 178.535 115.924 123.355 109.53 115.847C103.148 108.339 56.6778 107.158 56.6778 107.158L40.6997 115.125Z" fill="#FFF597"/>
<path d="M112.744 122.852C112.645 122.852 112.547 122.787 112.514 122.688C111.356 119.344 110.285 117.093 109.356 116C107.192 113.453 97.6071 111.147 81.6399 109.3C81.5088 109.289 81.4104 109.169 81.4322 109.027C81.4432 108.896 81.5743 108.798 81.7055 108.819C98.0224 110.699 107.454 113.005 109.727 115.683C110.7 116.83 111.793 119.136 112.973 122.524C113.017 122.656 112.951 122.787 112.82 122.83C112.798 122.852 112.766 122.852 112.744 122.852Z" fill="#040404"/>
<path d="M92.0002 68.4261C91.0166 67.7048 89.6286 67.9562 88.9619 68.9726C85.5084 74.2403 75.9565 88.8196 75.8472 89.1802L80.6341 89.8578L92.5466 71.2895C93.1477 70.3496 92.9182 69.0928 92.0002 68.4261Z" fill="#2F4B4E"/>
<path d="M80.6342 90.0982C80.6233 90.0982 80.6124 90.0982 80.6014 90.0982L75.8145 89.4206C75.749 89.4097 75.6834 89.366 75.6397 89.3113C75.6069 89.2567 75.596 89.1802 75.6178 89.1146C75.7271 88.7649 82.8309 77.9015 88.7654 68.8414C89.126 68.295 89.6834 67.9234 90.3282 67.8141C90.973 67.6939 91.6178 67.8469 92.1533 68.2294C93.1588 68.9725 93.4211 70.3715 92.7544 71.4206L80.8419 89.9889C80.7872 90.0545 80.7107 90.0982 80.6342 90.0982ZM76.2298 88.9944L80.514 89.5955L92.3391 71.1583C92.8746 70.3168 92.667 69.2021 91.8692 68.6119C91.4429 68.3059 90.9293 68.1857 90.4156 68.2731C89.902 68.3715 89.4648 68.6556 89.1807 69.0928C81.8692 80.2403 77.1588 87.4862 76.2298 88.9944Z" fill="black"/>
<path d="M26.9076 112.382C26.9076 112.382 21.9349 105.432 23.9677 89.8578C26.0005 74.284 30.9841 66.2075 36.1972 64.3605C41.4103 62.5135 62.8529 65.8906 64.5251 92.0436L26.9076 112.382Z" fill="#C67C4E"/>
<path d="M26.9074 112.623C26.8309 112.623 26.7544 112.59 26.7107 112.524C26.6561 112.459 21.7053 105.311 23.7271 89.8248C25.585 75.6281 30.0987 66.262 36.1206 64.1308C38.9074 63.1472 46.0003 63.639 52.361 67.8467C57.5304 71.2565 63.8911 78.2292 64.7763 92.0325C64.7872 92.1308 64.7326 92.2183 64.6452 92.262L27.0167 112.601C26.984 112.612 26.9402 112.623 26.9074 112.623ZM39.3227 64.1746C38.0659 64.1746 37.0167 64.3276 36.2845 64.5899C33.6178 65.5297 31.137 68.1199 29.1151 72.0762C26.82 76.5461 25.1807 82.5352 24.2189 89.8904C22.3938 103.847 26.2626 110.885 26.9949 112.065L64.2954 91.9123C63.3774 78.4041 57.1588 71.5844 52.0987 68.2401C47.5632 65.2565 42.6889 64.1746 39.3227 64.1746Z" fill="black"/>
<path d="M41.8911 101.377C41.76 101.377 41.6616 101.279 41.6507 101.147L40.6234 86.5463C40.6125 86.4152 40.7108 86.295 40.8529 86.284C40.984 86.2731 41.1043 86.3715 41.1152 86.5135L42.1425 101.115C42.1534 101.246 42.0551 101.366 41.913 101.377C41.9021 101.377 41.8911 101.377 41.8911 101.377Z" fill="black"/>
<path d="M25.0928 108.382C25.0928 108.382 26.8961 121.464 45.1802 117.082C63.4534 112.71 72.9835 95.7157 72.9835 95.7157C72.9835 95.7157 83.6283 93.4425 83.2676 86.5354C83.2676 86.5354 79.7048 87.4862 76.6775 86.5354C73.6501 85.5845 70.3715 86.5572 69.1037 87.7375C60.4589 95.8359 32.8523 98.2731 25.0928 108.382Z" fill="#C67C4E"/>
<path d="M38.2732 118.218C34.8743 118.218 32.0109 117.443 29.7268 115.88C25.53 113.016 24.8743 108.601 24.8525 108.415C24.8415 108.35 24.8634 108.284 24.8962 108.229C29.1694 102.667 39.2896 99.4425 49.071 96.3168C57.2787 93.6939 65.0382 91.213 68.9399 87.5628C70.3716 86.2294 73.7596 85.366 76.7432 86.3059C79.6721 87.224 83.1585 86.3168 83.2022 86.3059C83.2678 86.2841 83.3443 86.3059 83.4098 86.3387C83.4645 86.3824 83.5082 86.448 83.5082 86.5245C83.8579 93.2567 74.3279 95.6611 73.1475 95.9343C72.765 96.5901 70.3716 100.557 66.1202 104.929C61.8361 109.322 54.7432 115.049 45.2459 117.322C42.7104 117.912 40.3825 118.218 38.2732 118.218ZM25.3443 108.437C25.4645 109.104 26.3169 112.962 30 115.475C33.5847 117.923 38.6667 118.371 45.1147 116.831C63.082 112.524 72.6667 95.7485 72.765 95.5846C72.7978 95.519 72.8525 95.4862 72.929 95.4644C73.0273 95.4425 83.0601 93.224 83.0273 86.8305C82.0984 87.0382 79.1803 87.5737 76.6011 86.754C73.6175 85.8141 70.4262 86.8196 69.2677 87.9015C65.2896 91.6283 57.4863 94.1201 49.224 96.7649C39.5519 99.8578 29.5628 103.049 25.3443 108.437Z" fill="black"/>
<path d="M76.7543 89.7263C76.4592 89.7263 76.1532 89.7153 75.8362 89.7044C75.7051 89.7044 75.5958 89.5842 75.6067 89.453C75.6067 89.3219 75.716 89.2126 75.8581 89.2235C81.1914 89.4421 83.0056 87.6716 83.0275 87.6607C83.1258 87.5623 83.2788 87.5623 83.3663 87.6607C83.4646 87.759 83.4646 87.9011 83.3663 87.9995C83.3007 88.0651 81.6176 89.7263 76.7543 89.7263Z" fill="black"/>
<path d="M76.1973 92.2509C76.0771 92.2509 75.9568 92.2509 75.8366 92.2509C75.7055 92.2509 75.5962 92.1416 75.5962 91.9995C75.5962 91.8684 75.7164 91.7591 75.8476 91.7591C80.4924 91.8465 82.0006 90.1963 82.0115 90.1744C82.0989 90.076 82.2519 90.0651 82.3503 90.1525C82.4486 90.24 82.4596 90.393 82.3721 90.4913C82.3175 90.5788 80.7984 92.2509 76.1973 92.2509Z" fill="black"/>
<path d="M44.514 52.2402C44.372 52.4916 38.525 62.4807 38.525 62.4807L34.4922 65.1911C35.9785 66.3167 38.6015 68.0217 42.2845 68.9943C46.0332 69.9889 49.2135 69.7812 51.0823 69.5299C50.9184 69.0162 50.6452 68.3605 50.1752 67.661C49.4321 66.5681 48.5468 65.9233 47.9785 65.5736C49.1807 63.508 50.3829 61.4424 51.5851 59.3768L44.514 52.2402Z" fill="#FFDBC5"/>
<path d="M47.9897 69.9887C46.0443 69.9887 44.1208 69.7373 42.2192 69.2346C39.3558 68.4805 36.711 67.1799 34.3503 65.3876C34.2847 65.3439 34.252 65.2674 34.252 65.1909C34.252 65.1144 34.2957 65.0379 34.3612 64.9942L38.3503 62.3166C38.7875 61.5625 44.1755 52.3603 44.3066 52.1308C44.3394 52.0652 44.405 52.0215 44.4815 52.0105C44.558 51.9996 44.6345 52.0215 44.6891 52.0761L51.7602 59.2127C51.8367 59.2892 51.8476 59.4095 51.7929 59.5078L48.2957 65.5078C49.1263 66.0543 49.8148 66.7319 50.3722 67.5406C50.7765 68.1308 51.0935 68.7865 51.3121 69.4641C51.3339 69.5297 51.323 69.6062 51.2902 69.6717C51.2574 69.7373 51.1918 69.7701 51.1153 69.781C50.0662 69.9122 49.0279 69.9887 47.9897 69.9887ZM34.9186 65.2018C37.1591 66.8521 39.6618 68.0433 42.3503 68.7646C45.1044 69.4969 47.935 69.6827 50.7547 69.333C50.558 68.7865 50.2957 68.2838 49.9678 67.8029C49.4104 66.9832 48.7 66.3056 47.8476 65.781C47.7383 65.7155 47.6946 65.5625 47.7601 65.4532L51.2793 59.4204L44.558 52.6444C43.6181 54.2619 38.9514 62.2401 38.7328 62.6116C38.711 62.6444 38.6891 62.6663 38.6563 62.6881L34.9186 65.2018Z" fill="black"/>
<path d="M62.2189 45.8577C59.5195 43.6501 56.3501 45.9561 53.2025 43.2457C51.7599 41.9998 51.6288 40.8304 49.902 40.1528C48.7545 39.7047 46.7107 39.3878 45.3555 40.426C43.6288 41.7484 44.8965 43.8031 43.4976 48.4151C42.514 51.6501 41.1479 53.0599 41.9129 54.1965C42.6889 55.3441 44.4922 54.5025 45.432 55.6938C46.6452 57.2348 44.4266 59.6501 45.126 61.825C45.6069 63.3222 47.8801 65.4534 53.596 66.1747C53.9129 65.2566 54.667 63.4424 55.1588 61.6719C56.6998 56.12 55.8583 53.9889 57.2572 53.2785C59.3883 52.1747 61.9566 55.5736 63.5413 54.5463C65.1698 53.4643 64.984 48.131 62.2189 45.8577Z" fill="black"/>
<path d="M51.0386 48.5788L51.5742 50.2073C51.5742 50.2073 49.4758 55.3439 49.1042 57.2783C48.7326 59.2127 54.6452 60.8302 54.6452 60.8302L55.5742 60.1417L57.2244 60.557C57.2244 60.557 57.1698 54.9067 58.6889 51.1362C58.6998 51.1362 55.913 47.7482 51.0386 48.5788Z" fill="#FFDBC5"/>
<path d="M51.2465 48.6992C51.465 49.191 51.6508 49.6391 51.8038 50.1309C51.8257 50.1856 51.8148 50.2511 51.7929 50.2949C51.3448 51.4096 50.9077 52.5353 50.4924 53.661C50.088 54.7867 49.6727 55.9233 49.3885 57.0708L49.3448 57.2894C49.323 57.3659 49.3339 57.4096 49.323 57.4642C49.3339 57.5735 49.3448 57.6938 49.4104 57.8031C49.5088 58.0326 49.6946 58.2402 49.9131 58.426C50.3394 58.7976 50.853 59.0927 51.3776 59.355C52.4377 59.8795 53.5743 60.2839 54.711 60.6118L54.5033 60.6555L55.4323 59.967L55.4432 59.9561C55.4978 59.9123 55.5743 59.9123 55.629 59.9233L57.2683 60.4041L57.0607 60.5681C57.0607 59.7593 57.0825 58.9615 57.1372 58.1637C57.1918 57.3659 57.2574 56.5681 57.3667 55.7703C57.476 54.9724 57.6071 54.1856 57.782 53.3877C57.9678 52.6009 58.1864 51.8249 58.4814 51.0599L58.5142 51.3003C58.0771 50.8085 57.5306 50.3714 56.9623 49.9998C56.394 49.6282 55.7711 49.3331 55.1263 49.1145C54.4814 48.9069 53.8038 48.7539 53.1263 48.7211C52.7875 48.6774 52.4487 48.6992 52.0989 48.7102C51.9131 48.7102 51.8038 48.7429 51.6727 48.732C51.5416 48.732 51.4104 48.7102 51.2465 48.6992ZM50.8312 48.4479C51.0279 48.3932 51.2355 48.3386 51.4541 48.2949C51.6727 48.2511 51.9131 48.2184 52.0771 48.2184C52.4377 48.2074 52.7984 48.1856 53.159 48.2293C53.8803 48.2621 54.5907 48.426 55.2793 48.6446C55.9678 48.8632 56.6235 49.191 57.2246 49.5735C57.8366 49.967 58.394 50.4151 58.8858 50.9724C58.9405 51.038 58.9623 51.1255 58.9295 51.202L58.9186 51.2129C58.6235 51.9451 58.4049 52.6992 58.2082 53.4643C58.0224 54.2293 57.8803 55.0162 57.7711 55.7921C57.6618 56.579 57.5743 57.3659 57.5088 58.1637C57.4432 58.9506 57.4104 59.7484 57.3995 60.5462C57.3995 60.6446 57.323 60.7211 57.2246 60.7211C57.2137 60.7211 57.2028 60.7211 57.1918 60.7211L55.5197 60.3823L55.7273 60.3386L54.7984 61.0271C54.7328 61.0708 54.6563 61.0817 54.5907 61.0599C53.4213 60.7211 52.2738 60.3167 51.17 59.7703C50.6235 59.497 50.0771 59.191 49.5962 58.7648C49.3558 58.5571 49.1263 58.3058 48.9732 57.9779C48.8967 57.814 48.853 57.6282 48.853 57.4424C48.864 57.355 48.864 57.2457 48.8858 57.1692L48.9405 56.9397C49.2355 55.7484 49.6508 54.6118 50.0552 53.4752C50.4705 52.3386 50.9077 51.2129 51.3558 50.0981L51.3448 50.2621C51.1481 49.6828 50.9842 49.0489 50.8312 48.4479Z" fill="black"/>
<path d="M49.0495 53.1034C49.0495 53.1034 49.5632 49.3548 47.8146 49.475C46.0441 49.6061 45.585 53.7482 49.0495 53.1034Z" fill="#FFDBC5"/>
<path d="M48.3502 53.4205C47.4431 53.4205 46.9294 53.0489 46.6453 52.6883C46.0879 51.9888 46.1316 50.9943 46.4267 50.3276C46.7108 49.6937 47.2136 49.2894 47.7819 49.2457C48.1644 49.2129 48.4923 49.344 48.7436 49.6172C49.6179 50.5571 49.2901 53.0489 49.2791 53.1473C49.2682 53.2457 49.1808 53.3331 49.0824 53.355C48.8201 53.3987 48.5688 53.4205 48.3502 53.4205ZM47.8912 49.7156C47.8693 49.7156 47.8475 49.7156 47.8256 49.7156C47.4322 49.7484 47.0824 50.0325 46.8748 50.5134C46.6343 51.0489 46.5906 51.8358 47.0278 52.3823C47.3884 52.8413 48.0114 53.0162 48.8311 52.8959C48.9076 52.1309 48.9513 50.5244 48.4048 49.9342C48.2628 49.7921 48.0988 49.7156 47.8912 49.7156Z" fill="black"/>
<path d="M62.1641 159.158C60.9947 156.743 60.8745 154.306 62.1641 151.847L61.2461 150.743L35.9893 151.574L36.8636 159.596L61.3117 159.88L62.1641 159.158Z" fill="white"/>
<path d="M61.3117 160.109C61.3008 160.109 61.3008 160.109 61.3117 160.109L36.8636 159.825C36.7434 159.825 36.6341 159.727 36.6232 159.607L35.7489 151.585C35.7379 151.519 35.7598 151.454 35.8035 151.399C35.8472 151.344 35.9128 151.322 35.9784 151.312L61.2352 150.481C61.3117 150.481 61.3773 150.514 61.4319 150.568L62.35 151.672C62.4155 151.749 62.4265 151.858 62.3828 151.935C61.1806 154.23 61.1806 156.557 62.3828 159.027C62.4265 159.126 62.4046 159.246 62.3172 159.322L61.4538 160.033C61.421 160.088 61.3664 160.109 61.3117 160.109ZM37.0822 159.344L61.2243 159.618L61.8691 159.082C60.7216 156.601 60.7216 154.175 61.88 151.869L61.1369 150.973L36.2625 151.792L37.0822 159.344Z" fill="black"/>
<path d="M15.7702 149.847H49.0489H62.6336C63.18 149.847 63.6281 150.295 63.6281 150.841C63.6281 151.388 63.18 151.836 62.6336 151.836H41.0926C39.5188 151.836 38.2401 153.114 38.2401 154.688V156.295C38.2401 157.869 39.5188 159.147 41.0926 159.147H62.6445C63.191 159.147 63.639 159.595 63.639 160.142C63.639 160.688 63.191 161.136 62.6445 161.136H15.7702C12.8631 161.136 10.5024 158.776 10.5024 155.869V155.114C10.5024 152.207 12.8631 149.847 15.7702 149.847Z" fill="#FBBE21"/>
<path d="M62.6338 161.377H15.7704C12.7322 161.377 10.2622 158.907 10.2622 155.869V155.115C10.2622 152.076 12.7322 149.606 15.7704 149.606H62.6447C63.3223 149.606 63.8797 150.164 63.8797 150.841C63.8797 151.519 63.3223 152.076 62.6447 152.076H41.0928C39.6502 152.076 38.4808 153.246 38.4808 154.688V156.295C38.4808 157.738 39.6502 158.907 41.0928 158.907H62.6447C63.3223 158.907 63.8797 159.464 63.8797 160.142C63.8688 160.83 63.3223 161.377 62.6338 161.377ZM15.7704 150.098C12.9944 150.098 10.7431 152.35 10.7431 155.126V155.88C10.7431 158.656 12.9944 160.907 15.7704 160.907H62.6447C63.06 160.907 63.3988 160.568 63.3988 160.153C63.3988 159.738 63.06 159.399 62.6447 159.399H41.0928C39.3879 159.399 37.989 158.011 37.989 156.295V154.688C37.989 152.983 39.377 151.585 41.0928 151.585H62.6447C63.06 151.585 63.3988 151.246 63.3988 150.83C63.3988 150.415 63.06 150.076 62.6447 150.076H15.7704V150.098Z" fill="black"/>
<path d="M61.2458 155.399H47.0163C46.8852 155.399 46.7759 155.29 46.7759 155.158C46.7759 155.027 46.8852 154.918 47.0163 154.918H61.2349C61.366 154.918 61.4753 155.027 61.4753 155.158C61.4863 155.29 61.377 155.399 61.2458 155.399Z" fill="black"/>
<path d="M61.3331 157.541H49.7702C49.6391 157.541 49.5298 157.432 49.5298 157.301C49.5298 157.169 49.6391 157.06 49.7702 157.06H61.3331C61.4642 157.06 61.5735 157.169 61.5735 157.301C61.5735 157.432 61.4642 157.541 61.3331 157.541Z" fill="black"/>
<path d="M63.9892 172.798H21.6504V162.426H63.9892C62.7324 165.934 62.6996 169.388 63.9892 172.798Z" fill="white"/>
<path d="M63.9894 173.049H21.6506C21.5194 173.049 21.4102 172.94 21.4102 172.809V162.437C21.4102 162.306 21.5194 162.197 21.6506 162.197H63.9894C64.0659 162.197 64.1424 162.23 64.1861 162.295C64.2298 162.361 64.2408 162.437 64.2189 162.514C62.973 165.989 62.973 169.421 64.2189 172.721C64.2517 172.798 64.2408 172.874 64.1861 172.94C64.1424 173.006 64.0659 173.049 63.9894 173.049ZM21.891 172.557H63.6397C62.514 169.355 62.514 166.033 63.6506 162.667H21.902V172.557H21.891Z" fill="black"/>
<path d="M26.7431 162.94H64.2731C64.7212 162.94 65.0928 162.579 65.0928 162.12C65.0928 161.672 64.7321 161.3 64.2731 161.3H15.5737C13.5955 161.3 11.978 162.907 11.978 164.896V170.546C11.978 172.524 13.5846 174.142 15.5737 174.142H64.2731C64.7212 174.142 65.0928 173.781 65.0928 173.322C65.0928 172.874 64.7321 172.502 64.2731 172.502H26.7431C25.3441 172.502 24.2075 171.366 24.2075 169.967V165.486C24.2075 164.076 25.3441 162.94 26.7431 162.94Z" fill="#C67C4E"/>
<path d="M64.2733 174.382H15.5739C13.4646 174.382 11.7378 172.667 11.7378 170.546V164.896C11.7378 162.787 13.4536 161.06 15.5739 161.06H64.2733C64.8525 161.06 65.3334 161.53 65.3334 162.12C65.3334 162.699 64.8635 163.18 64.2733 163.18H26.7433C25.4755 163.18 24.4482 164.208 24.4482 165.475V169.956C24.4482 171.224 25.4755 172.251 26.7433 172.251H64.2733C64.8525 172.251 65.3334 172.721 65.3334 173.311C65.3334 173.902 64.8635 174.382 64.2733 174.382ZM15.5739 161.552C13.7269 161.552 12.2296 163.049 12.2296 164.896V170.546C12.2296 172.393 13.7269 173.891 15.5739 173.891H64.2733C64.5902 173.891 64.8526 173.628 64.8526 173.311C64.8526 172.994 64.5902 172.732 64.2733 172.732H26.7433C25.2132 172.732 23.9673 171.486 23.9673 169.956V165.475C23.9673 163.945 25.2132 162.699 26.7433 162.699H64.2733C64.5902 162.699 64.8526 162.437 64.8526 162.12C64.8526 161.803 64.5902 161.541 64.2733 161.541H15.5739V161.552Z" fill="black"/>
<path d="M63.235 165.137H56.9836C56.8525 165.137 56.7432 165.027 56.7432 164.896C56.7432 164.765 56.8525 164.656 56.9836 164.656H63.235C63.3661 164.656 63.4754 164.765 63.4754 164.896C63.4754 165.027 63.3661 165.137 63.235 165.137Z" fill="black"/>
<path d="M63.1037 166.524H43.8469C43.7157 166.524 43.6064 166.415 43.6064 166.284C43.6064 166.153 43.7157 166.043 43.8469 166.043H63.1037C63.2349 166.043 63.3441 166.153 63.3441 166.284C63.3441 166.415 63.2349 166.524 63.1037 166.524Z" fill="black"/>
<path d="M63.1037 169.41H46.5354C46.4042 169.41 46.2949 169.3 46.2949 169.169C46.2949 169.038 46.4042 168.929 46.5354 168.929H63.1037C63.2348 168.929 63.3441 169.038 63.3441 169.169C63.3441 169.3 63.2348 169.41 63.1037 169.41Z" fill="black"/>
<path d="M12.1528 184.721C13.4752 181.989 13.6064 179.235 12.1528 176.459L13.1911 175.213L41.7266 176.153L40.743 185.213L13.1255 185.53L12.1528 184.721Z" fill="white"/>
<path d="M13.1257 185.77C13.071 185.77 13.0164 185.749 12.9727 185.716L12 184.907C11.9126 184.831 11.8907 184.71 11.9344 184.612C13.3006 181.803 13.3006 179.169 11.9344 176.568C11.8907 176.481 11.9016 176.372 11.9672 176.306L13.0055 175.06C13.0492 175.005 13.1257 174.973 13.2022 174.973L41.7377 175.913C41.8033 175.913 41.8689 175.945 41.9126 176C41.9563 176.055 41.9781 176.12 41.9672 176.186L40.9836 185.246C40.9727 185.366 40.8634 185.464 40.7432 185.464L13.1257 185.77ZM12.4481 184.656L13.2131 185.29L40.5355 184.973L41.4645 176.382L13.3115 175.454L12.4481 176.492C13.7596 179.104 13.7596 181.847 12.4481 184.656Z" fill="black"/>
<path d="M64.5791 174.208H26.9726H11.6174C10.9944 174.208 10.4917 174.71 10.4917 175.333C10.4917 175.956 10.9944 176.459 11.6174 176.459H35.9671C37.7485 176.459 39.1912 177.902 39.1912 179.683V181.497C39.1912 183.279 37.7485 184.721 35.9671 184.721H11.6174C10.9944 184.721 10.4917 185.224 10.4917 185.847C10.4917 186.47 10.9944 186.973 11.6174 186.973H64.5791C67.8688 186.973 70.5354 184.306 70.5354 181.016V180.164C70.5354 176.874 67.8688 174.208 64.5791 174.208Z" fill="#FFF597"/>
<path d="M64.5793 187.202H11.6176C10.8635 187.202 10.2515 186.59 10.2515 185.836C10.2515 185.082 10.8635 184.47 11.6176 184.47H35.9673C37.6176 184.47 38.9509 183.125 38.9509 181.486V179.672C38.9509 178.022 37.6067 176.688 35.9673 176.688H11.6176C10.8635 176.688 10.2515 176.076 10.2515 175.322C10.2515 174.568 10.8635 173.956 11.6176 173.956H64.5793C68.0001 173.956 70.7761 176.732 70.7761 180.153V181.005C70.7761 184.426 68.0001 187.202 64.5793 187.202ZM11.6176 184.962C11.1367 184.962 10.7433 185.355 10.7433 185.836C10.7433 186.317 11.1367 186.71 11.6176 186.71H64.5793C67.7269 186.71 70.2952 184.153 70.2952 180.994V180.142C70.2952 176.994 67.7378 174.426 64.5793 174.426H11.6176C11.1367 174.426 10.7433 174.819 10.7433 175.3C10.7433 175.781 11.1367 176.175 11.6176 176.175H35.9673C37.8799 176.175 39.4427 177.727 39.4427 179.65V181.464C39.4427 183.377 37.8908 184.94 35.9673 184.94H11.6176V184.962Z" fill="black"/>
<path d="M26.2622 180.448H13.1911C13.06 180.448 12.9507 180.338 12.9507 180.207C12.9507 180.076 13.06 179.967 13.1911 179.967H26.2512C26.3824 179.967 26.4917 180.076 26.4917 180.207C26.5026 180.338 26.3933 180.448 26.2622 180.448Z" fill="black"/>
<path d="M29.0602 182.863H13.093C12.9618 182.863 12.8525 182.754 12.8525 182.623C12.8525 182.492 12.9618 182.382 13.093 182.382H29.0602C29.1913 182.382 29.3006 182.492 29.3006 182.623C29.3006 182.754 29.1913 182.863 29.0602 182.863Z" fill="black"/>
<path d="M145.902 136.699C148.383 138.295 164.721 147.902 184.295 138.612C184.361 138.579 184.426 138.524 184.459 138.448C185.213 136.885 193.541 118.557 181.563 92.3715C181.465 92.1638 181.213 92.0982 181.038 92.2403C178.842 93.9562 166.448 103.3 156.612 103.06C156.383 103.049 156.208 103.268 156.273 103.486C156.984 106.076 159.716 119.552 145.825 136.186C145.694 136.35 145.727 136.59 145.902 136.699Z" fill="#FFF597"/>
<path d="M167.006 142.852C164.241 142.852 161.443 142.557 158.645 141.967C151.782 140.525 147.06 137.727 145.771 136.896C145.629 136.809 145.53 136.656 145.508 136.492C145.487 136.328 145.53 136.153 145.64 136.022C159.465 119.464 156.722 106.055 156.033 103.541C155.989 103.366 156.022 103.169 156.131 103.027C156.252 102.874 156.426 102.798 156.612 102.798C166.328 103.038 178.536 93.8688 180.885 92.0328C181.028 91.9235 181.202 91.8798 181.377 91.9235C181.552 91.9672 181.705 92.0874 181.782 92.2514C186.809 103.246 188.918 114.142 188.033 124.645C187.355 132.678 185.126 137.628 184.678 138.536C184.623 138.656 184.525 138.754 184.405 138.809C178.754 141.508 172.929 142.852 167.006 142.852ZM156.601 103.29C156.558 103.29 156.525 103.311 156.514 103.333C156.503 103.355 156.492 103.377 156.503 103.421C157.202 105.978 159.989 119.607 146.011 136.339C145.989 136.372 145.989 136.404 145.989 136.426C145.989 136.448 146 136.47 146.033 136.492C147.301 137.301 151.967 140.066 158.743 141.497C167.432 143.322 176 142.284 184.197 138.383C184.219 138.372 184.23 138.361 184.241 138.339C184.678 137.443 186.875 132.557 187.541 124.623C188.415 114.208 186.328 103.388 181.334 92.4699C181.312 92.4262 181.279 92.4153 181.257 92.4044C181.235 92.4044 181.202 92.3934 181.17 92.4262C178.831 94.2623 166.776 103.301 156.973 103.301C156.864 103.301 156.732 103.301 156.601 103.29Z" fill="black"/>
<path d="M160.252 107.574C160.142 107.574 160.044 107.497 160.011 107.377C159.979 107.246 160.066 107.115 160.197 107.093C160.306 107.071 170.798 104.819 178.448 99.1473C178.558 99.0708 178.711 99.0927 178.787 99.202C178.864 99.3113 178.842 99.4643 178.733 99.5408C170.995 105.278 160.405 107.552 160.295 107.574C160.285 107.574 160.274 107.574 160.252 107.574Z" fill="black"/>
<path d="M167.804 110.306C167.694 110.306 167.596 110.229 167.563 110.12C167.53 109.989 167.618 109.858 167.749 109.836C172.743 108.699 177.137 106.852 180.809 104.328C180.918 104.251 181.071 104.284 181.148 104.393C181.224 104.503 181.191 104.656 181.082 104.732C177.366 107.279 172.918 109.158 167.858 110.306C167.836 110.306 167.825 110.306 167.804 110.306Z" fill="black"/>
<path d="M160.164 111.355C160.033 111.355 159.924 111.246 159.924 111.115C159.924 110.984 160.033 110.874 160.164 110.874C160.175 110.874 161.782 110.852 164.241 110.492C164.372 110.47 164.492 110.568 164.514 110.699C164.536 110.831 164.437 110.951 164.306 110.973C161.815 111.333 160.175 111.355 160.164 111.355Z" fill="black"/>
<path d="M162.481 115.552C160.863 115.552 159.923 115.442 159.902 115.442C159.77 115.432 159.672 115.311 159.694 115.169C159.705 115.038 159.825 114.94 159.967 114.962C160.066 114.972 170.306 116.12 181.781 110.601C181.902 110.546 182.044 110.59 182.109 110.71C182.164 110.83 182.12 110.972 182 111.038C173.825 114.962 166.284 115.552 162.481 115.552Z" fill="black"/>
<path d="M165.618 119.945C161.476 119.945 158.875 119.388 158.82 119.366C158.689 119.333 158.612 119.202 158.634 119.082C158.667 118.951 158.787 118.874 158.918 118.896C159.028 118.918 169.738 121.235 182.569 116.306C182.689 116.262 182.831 116.317 182.885 116.448C182.929 116.568 182.875 116.71 182.743 116.765C176.088 119.322 169.989 119.945 165.618 119.945Z" fill="black"/>
<path d="M175.115 124.994C174.995 124.994 174.896 124.907 174.875 124.787C174.853 124.656 174.951 124.535 175.082 124.513C177.662 124.153 180.121 123.519 182.383 122.623C182.503 122.579 182.645 122.634 182.7 122.765C182.743 122.885 182.689 123.027 182.558 123.082C180.252 123.989 177.76 124.634 175.148 125.005C175.137 124.994 175.126 124.994 175.115 124.994Z" fill="black"/>
<path d="M169.694 125.366C162.831 125.366 157.574 123.672 157.52 123.661C157.388 123.617 157.323 123.486 157.367 123.355C157.41 123.224 157.541 123.158 157.673 123.202C157.727 123.224 163.498 125.071 170.842 124.874C170.984 124.874 171.082 124.972 171.093 125.115C171.093 125.246 170.995 125.355 170.853 125.366C170.459 125.366 170.077 125.366 169.694 125.366Z" fill="black"/>
<path d="M177.956 142.776L162.197 133.65C161.552 133.279 160.689 133.476 160.273 134.098L140.492 163.552C140.077 164.175 140.262 164.973 140.907 165.344L156.667 174.47C157.312 174.842 158.175 174.645 158.59 174.022L178.372 144.568C178.787 143.956 178.601 143.148 177.956 142.776Z" fill="white"/>
<path d="M157.377 174.907C157.093 174.907 156.809 174.842 156.546 174.689L140.787 165.563C140.415 165.344 140.164 165.006 140.066 164.601C139.967 164.197 140.055 163.771 140.295 163.421L160.076 133.967C160.557 133.246 161.563 133.017 162.317 133.443L178.076 142.568C178.448 142.787 178.699 143.126 178.798 143.53C178.896 143.935 178.809 144.361 178.568 144.711L158.787 174.164C158.47 174.645 157.923 174.907 157.377 174.907ZM161.497 133.705C161.104 133.705 160.721 133.891 160.492 134.23L140.71 163.683C140.546 163.924 140.492 164.208 140.557 164.481C140.623 164.754 140.798 164.984 141.049 165.126L156.809 174.252C157.344 174.558 158.055 174.394 158.404 173.88L178.186 144.426C178.35 144.186 178.404 143.902 178.339 143.629C178.273 143.355 178.098 143.126 177.847 142.984L162.087 133.858C161.902 133.76 161.705 133.705 161.497 133.705Z" fill="black"/>
<path d="M165.519 135.563L165.093 136.197C164.645 136.864 164.842 137.738 165.541 138.131L172.164 141.967C172.863 142.372 173.781 142.153 174.23 141.486L174.656 140.853L165.519 135.563Z" fill="black"/>
<path d="M169.235 139.487C168.984 139.345 168.907 139.028 169.071 138.787C169.235 138.547 169.574 138.47 169.825 138.612C170.076 138.754 170.153 139.071 169.989 139.312C169.825 139.552 169.486 139.629 169.235 139.487Z" fill="white"/>
<path d="M174.339 147.257L159.465 138.645L160.339 137.355L175.203 145.957L174.339 147.257Z" fill="black"/>
<path d="M167.913 157.06C167.869 157.06 167.825 157.05 167.793 157.028L152.929 148.416C152.875 148.383 152.831 148.328 152.82 148.263C152.809 148.197 152.82 148.131 152.853 148.077L158.645 139.454C158.711 139.345 158.853 139.312 158.962 139.377L173.825 147.989C173.88 148.022 173.924 148.077 173.935 148.142C173.946 148.208 173.935 148.274 173.902 148.328L168.11 156.951C168.066 157.028 167.989 157.06 167.913 157.06ZM153.388 148.131L167.836 156.492L173.356 148.274L158.907 139.913L153.388 148.131Z" fill="black"/>
<path d="M174.154 146.251C174.033 146.426 173.804 146.481 173.618 146.372C173.443 146.273 173.388 146.044 173.498 145.869C173.618 145.694 173.848 145.639 174.033 145.749C174.219 145.858 174.263 146.077 174.154 146.251Z" fill="white"/>
<path d="M163.902 163.027C163.858 163.027 163.814 163.017 163.781 162.995L148.918 154.383C148.863 154.35 148.82 154.295 148.809 154.23C148.798 154.164 148.809 154.098 148.842 154.044L152.448 148.667C152.514 148.558 152.656 148.525 152.765 148.59L167.628 157.202C167.683 157.235 167.727 157.29 167.738 157.355C167.749 157.421 167.738 157.486 167.705 157.541L164.098 162.918C164.055 162.995 163.978 163.027 163.902 163.027ZM149.388 154.098L163.836 162.459L167.169 157.486L152.721 149.126L149.388 154.098Z" fill="black"/>
<path d="M159.77 169.192C159.727 169.192 159.683 169.181 159.65 169.159L144.787 160.547C144.732 160.514 144.688 160.459 144.677 160.394C144.667 160.328 144.677 160.263 144.71 160.208L148.317 154.831C148.382 154.722 148.524 154.689 148.634 154.754L163.497 163.366C163.552 163.399 163.595 163.454 163.606 163.519C163.617 163.585 163.606 163.651 163.574 163.705L159.967 169.082C159.923 169.148 159.847 169.192 159.77 169.192ZM145.246 160.252L159.694 168.612L163.027 163.64L148.579 155.279L145.246 160.252Z" fill="black"/>
<path d="M156.852 173.53C156.809 173.53 156.765 173.52 156.732 173.498L141.869 164.886C141.814 164.853 141.77 164.798 141.759 164.733C141.749 164.667 141.759 164.601 141.792 164.547L144.175 160.995C144.24 160.886 144.382 160.853 144.492 160.918L159.355 169.53C159.41 169.563 159.453 169.618 159.464 169.683C159.475 169.749 159.464 169.815 159.432 169.869L157.049 173.421C157.005 173.487 156.929 173.53 156.852 173.53ZM142.339 164.601L156.787 172.962L158.907 169.815L144.459 161.454L142.339 164.601Z" fill="black"/>
<path d="M150.765 65.1805C150.733 65.1805 150.7 65.1695 150.678 65.1586C149.749 64.787 148.743 64.1859 148.7 64.1531C148.59 64.0876 148.547 63.9346 148.612 63.8253C148.678 63.716 148.831 63.6723 148.94 63.7378C148.951 63.7488 149.957 64.3499 150.853 64.7105C150.973 64.7652 151.039 64.8963 150.984 65.0275C150.962 65.1258 150.864 65.1805 150.765 65.1805Z" fill="black"/>
<path d="M160.011 79.2678L163.694 81.3771C164 81.5519 164.383 81.4427 164.558 81.1367L175.924 61.1039C176.121 60.7651 176 60.3279 175.662 60.1312L166.328 54.7979L160.011 79.2678Z" fill="white"/>
<path d="M160.011 79.2677L163.694 81.3769C163.869 81.4753 164.076 81.4862 164.251 81.4097C164.251 81.4097 164.546 81.2786 164.874 80.6993C165.158 80.2075 175.847 61.2458 175.847 61.2458C176.087 60.8305 175.967 60.3933 175.628 60.1966L166.295 54.8633L160.011 79.2677Z" fill="#FFF597"/>
<path d="M164.011 81.7051C163.858 81.7051 163.716 81.6613 163.574 81.5848L159.891 79.4755C159.77 79.41 159.738 79.257 159.803 79.1477C159.869 79.0275 160.022 78.9947 160.131 79.0603L163.814 81.1695C163.923 81.2351 164.044 81.2351 164.164 81.1914C164.164 81.1914 164.404 81.0603 164.667 80.5903C164.94 80.0985 175.53 61.3225 175.639 61.1368C175.803 60.8526 175.749 60.5575 175.508 60.4264L166.175 55.093C166.055 55.0275 166.022 54.8745 166.087 54.7652C166.153 54.6449 166.306 54.6122 166.415 54.6777L175.749 60.0111C176.219 60.2843 176.35 60.8745 176.066 61.3881C175.956 61.5739 165.377 80.3608 165.093 80.8417C164.732 81.4646 164.393 81.6286 164.361 81.6504C164.24 81.6723 164.131 81.7051 164.011 81.7051Z" fill="#FFF597"/>
<path d="M170.262 67.5085L159.355 80.1534C159.202 80.3282 158.951 80.3719 158.743 80.2626L137.235 67.9566C136.962 67.8036 136.907 67.443 137.104 67.2025L153.65 48.0331C153.803 47.8583 154.055 47.8146 154.262 47.9238L175.771 60.2298C176.044 60.3829 176.098 60.7435 175.902 60.984L171.366 66.2408L170.262 67.5085Z" fill="#FFF597"/>
<path d="M158.984 80.5685C158.864 80.5685 158.732 80.5357 158.623 80.4701L137.115 68.1641C136.929 68.0549 136.798 67.8691 136.754 67.6505C136.722 67.4319 136.776 67.2133 136.918 67.0494L153.465 47.88C153.694 47.6177 154.077 47.5521 154.383 47.727L175.891 60.033C176.077 60.1423 176.208 60.3281 176.252 60.5467C176.284 60.7652 176.23 60.9838 176.088 61.1478L171.552 66.4046C171.465 66.5029 171.312 66.5139 171.213 66.4264C171.115 66.339 171.104 66.186 171.191 66.0876L175.727 60.8308C175.771 60.7762 175.793 60.6997 175.782 60.6232C175.771 60.5794 175.749 60.5029 175.661 60.4483L154.153 48.1423C154.055 48.0876 153.924 48.1095 153.847 48.1969L137.301 67.3663C137.257 67.421 137.235 67.4975 137.246 67.574C137.257 67.6177 137.279 67.6942 137.366 67.7488L158.875 80.0549C158.973 80.1095 159.104 80.0876 159.181 80.0002L170.088 67.3554C170.175 67.257 170.328 67.2461 170.426 67.3335C170.525 67.421 170.536 67.574 170.448 67.6723L159.541 80.3172C159.399 80.4811 159.191 80.5685 158.984 80.5685Z" fill="black"/>
<path d="M155.322 78.7212C155.301 78.7212 155.279 78.7321 155.257 78.7321L155.322 78.7212Z" fill="black"/>
<path d="M150.153 54.8853L154.252 57.224L151.29 60.6557L147.191 58.3169L150.153 54.8853Z" fill="#FBBE21"/>
<path d="M151.29 60.896C151.246 60.896 151.202 60.8851 151.17 60.8632L147.071 58.5135C147.006 58.4807 146.962 58.4151 146.951 58.3496C146.94 58.2731 146.962 58.2075 147.006 58.1528L149.967 54.7212C150.044 54.6337 150.175 54.6119 150.273 54.6665L154.372 57.0162C154.437 57.049 154.481 57.1146 154.492 57.1802C154.503 57.2567 154.481 57.3222 154.437 57.3769L151.476 60.8086C151.432 60.8742 151.355 60.896 151.29 60.896ZM147.563 58.2512L151.235 60.3496L153.869 57.2895L150.197 55.1911L147.563 58.2512Z" fill="black"/>
<path d="M146.536 59.0601L150.645 61.3989L147.683 64.8305L143.585 62.4808L146.536 59.0601Z" fill="#FBBE21"/>
<path d="M147.683 65.0708C147.64 65.0708 147.596 65.0599 147.563 65.038L143.465 62.6883C143.399 62.6555 143.356 62.5899 143.345 62.5244C143.334 62.4479 143.356 62.3823 143.399 62.3276L146.361 58.896C146.437 58.8085 146.569 58.7867 146.667 58.8413L150.765 61.191C150.831 61.2238 150.875 61.2894 150.886 61.355C150.896 61.4315 150.875 61.4971 150.831 61.5517L147.869 64.9834C147.815 65.038 147.749 65.0708 147.683 65.0708ZM143.957 62.4151L147.629 64.5134L150.263 61.4533L146.59 59.355L143.957 62.4151Z" fill="black"/>
<path d="M155.082 57.7051L159.18 60.0548L156.218 63.4756L152.12 61.1368L155.082 57.7051Z" fill="#FBBE21"/>
<path d="M156.219 63.7158C156.175 63.7158 156.131 63.7049 156.098 63.6831L152 61.3333C151.934 61.3005 151.891 61.235 151.88 61.1694C151.869 61.0929 151.891 61.0273 151.934 60.9727L154.896 57.541C154.973 57.4535 155.104 57.4317 155.202 57.4863L159.301 59.8361C159.366 59.8688 159.41 59.9344 159.421 60C159.432 60.0765 159.41 60.1421 159.366 60.1967L156.404 63.6284C156.361 63.694 156.295 63.7158 156.219 63.7158ZM152.503 61.071L156.175 63.1694L158.809 60.1093L155.137 58.0109L152.503 61.071Z" fill="black"/>
<path d="M151.475 61.8799L155.574 64.2187L152.612 67.6504L148.514 65.3006L151.475 61.8799Z" fill="#FBBE21"/>
<path d="M152.612 67.8906C152.568 67.8906 152.525 67.8797 152.492 67.8579L148.394 65.5081C148.328 65.4753 148.284 65.4098 148.273 65.3442C148.262 65.2677 148.284 65.2021 148.328 65.1475L151.29 61.7158C151.366 61.6284 151.497 61.6065 151.596 61.6611L155.694 64.0109C155.76 64.0437 155.803 64.1092 155.814 64.1748C155.825 64.2513 155.803 64.3169 155.76 64.3715L152.798 67.8032C152.743 67.8579 152.678 67.8906 152.612 67.8906ZM148.885 65.2349L152.557 67.3333L155.191 64.2732L151.519 62.1748L148.885 65.2349Z" fill="black"/>
<path d="M160.011 60.5244L164.109 62.8741L161.159 66.2949L157.049 63.9561L160.011 60.5244Z" fill="#FBBE21"/>
<path d="M161.158 66.5352C161.115 66.5352 161.071 66.5243 161.038 66.5024L156.94 64.1527C156.874 64.1199 156.831 64.0543 156.82 63.9887C156.809 63.9122 156.831 63.8467 156.874 63.792L159.836 60.3603C159.913 60.2729 160.044 60.251 160.142 60.3057L164.24 62.6554C164.306 62.6882 164.35 62.7538 164.361 62.8193C164.372 62.8958 164.35 62.9614 164.306 63.0161L161.344 66.4477C161.29 66.5133 161.224 66.5352 161.158 66.5352ZM157.432 63.8904L161.104 65.9887L163.738 62.9286L160.066 60.8303L157.432 63.8904Z" fill="black"/>
<path d="M156.405 64.6992L160.503 67.038L157.541 70.4697L153.443 68.12L156.405 64.6992Z" fill="#FBBE21"/>
<path d="M157.541 70.71C157.498 70.71 157.454 70.6991 157.421 70.6772L153.323 68.3275C153.257 68.2947 153.213 68.2291 153.202 68.1635C153.192 68.087 153.213 68.0215 153.257 67.9668L156.219 64.5351C156.295 64.4477 156.427 64.4258 156.525 64.4805L160.623 66.8302C160.689 66.863 160.733 66.9286 160.743 66.9941C160.754 67.0706 160.733 67.1362 160.689 67.1909L157.727 70.6226C157.683 70.6772 157.607 70.71 157.541 70.71ZM153.815 68.0652L157.487 70.1635L160.121 67.1034L156.448 65.0051L153.815 68.0652Z" fill="black"/>
<path d="M164.94 63.3438L169.049 65.6935L166.088 69.1142L161.989 66.7754L164.94 63.3438Z" fill="#FBBE21"/>
<path d="M166.088 69.3657C166.044 69.3657 166 69.3548 165.967 69.333L161.869 66.9832C161.804 66.9504 161.76 66.8849 161.749 66.8193C161.738 66.7428 161.76 66.6772 161.804 66.6226L164.765 63.1909C164.842 63.1035 164.973 63.0816 165.071 63.1362L169.17 65.486C169.235 65.5188 169.279 65.5843 169.29 65.6499C169.301 65.7264 169.279 65.792 169.235 65.8466L166.273 69.2783C166.219 69.333 166.153 69.3657 166.088 69.3657ZM162.361 66.71L166.033 68.8084L168.667 65.7483L164.995 63.6499L162.361 66.71Z" fill="black"/>
<path d="M161.333 67.519L165.432 69.8578L162.47 73.2895L158.372 70.9398L161.333 67.519Z" fill="#FBBE21"/>
<path d="M162.47 73.5298C162.426 73.5298 162.383 73.5189 162.35 73.497L158.251 71.1473C158.186 71.1145 158.142 71.0489 158.131 70.9834C158.12 70.9069 158.142 70.8413 158.186 70.7866L161.148 67.3549C161.224 67.2675 161.355 67.2457 161.454 67.3003L165.552 69.65C165.618 69.6828 165.661 69.7484 165.672 69.814C165.683 69.8905 165.661 69.956 165.618 70.0107L162.656 73.4424C162.612 73.497 162.546 73.5298 162.47 73.5298ZM158.754 70.885L162.426 72.9834L165.06 69.9233L161.388 67.8249L158.754 70.885Z" fill="black"/>
<path d="M156.033 51.5083C155.989 51.5083 155.945 51.4973 155.913 51.4755C154.787 50.8307 154.404 49.399 155.038 48.2624C155.344 47.7159 155.858 47.3225 156.459 47.1585C157.06 46.9946 157.694 47.0711 158.23 47.388C158.273 47.4099 158.317 47.4318 158.35 47.4645C158.459 47.541 158.492 47.6831 158.415 47.8033C158.339 47.9126 158.197 47.9454 158.077 47.8689C158.044 47.8471 158.011 47.8252 157.978 47.8143C157.552 47.5738 157.049 47.5083 156.568 47.6394C156.087 47.7706 155.683 48.0875 155.443 48.5247C154.929 49.4208 155.246 50.5684 156.131 51.0711C156.251 51.1367 156.284 51.2897 156.219 51.399C156.197 51.4645 156.109 51.5083 156.033 51.5083Z" fill="black"/>
<path d="M158.787 53.082C158.743 53.082 158.699 53.0711 158.666 53.0492C157.541 52.4044 157.158 50.9727 157.792 49.8361C158.098 49.2896 158.612 48.8962 159.213 48.7323C159.814 48.5683 160.448 48.6448 160.983 48.9618C161.027 48.9836 161.071 49.0055 161.104 49.0383C161.213 49.1148 161.246 49.2569 161.169 49.3771C161.093 49.4864 160.951 49.5192 160.83 49.4427C160.798 49.4208 160.765 49.3989 160.732 49.388C160.306 49.1476 159.803 49.082 159.322 49.2131C158.841 49.3443 158.437 49.6612 158.197 50.0984C157.683 50.9946 158 52.1421 158.885 52.6448C159.005 52.7104 159.038 52.8634 158.972 52.9727C158.951 53.0383 158.874 53.082 158.787 53.082Z" fill="black"/>
<path d="M161.552 54.667C161.508 54.667 161.464 54.656 161.432 54.6342C160.306 53.9894 159.923 52.5577 160.557 51.4211C160.863 50.8746 161.377 50.4812 161.978 50.3172C162.579 50.1533 163.213 50.2298 163.749 50.5467C163.792 50.5686 163.836 50.5905 163.869 50.6232C163.978 50.6997 164.011 50.8418 163.934 50.962C163.858 51.0713 163.716 51.1041 163.596 51.0276C163.563 51.0058 163.53 50.9839 163.497 50.973C163.071 50.7325 162.568 50.667 162.087 50.7981C161.606 50.9292 161.202 51.2462 160.962 51.6833C160.448 52.5795 160.765 53.7271 161.65 54.2298C161.77 54.2954 161.803 54.4484 161.738 54.5577C161.716 54.6232 161.639 54.667 161.552 54.667Z" fill="black"/>
<path d="M164.317 56.2407C164.273 56.2407 164.23 56.2298 164.197 56.2079C163.071 55.5631 162.689 54.1314 163.322 52.9948C163.628 52.4483 164.142 52.0549 164.743 51.891C165.344 51.727 165.978 51.8035 166.514 52.1205C166.557 52.1423 166.601 52.1642 166.634 52.197C166.743 52.2735 166.776 52.4156 166.699 52.5358C166.623 52.6451 166.481 52.6778 166.361 52.6013C166.328 52.5795 166.295 52.5576 166.262 52.5467C165.836 52.3063 165.333 52.2407 164.852 52.3718C164.372 52.503 163.967 52.8199 163.727 53.2571C163.213 54.1533 163.53 55.3008 164.415 55.8035C164.536 55.8691 164.568 56.0221 164.503 56.1314C164.481 56.197 164.393 56.2407 164.317 56.2407Z" fill="black"/>
<path d="M167.071 57.8252C167.027 57.8252 166.983 57.8142 166.951 57.7924C165.825 57.1476 165.442 55.7159 166.076 54.5793C166.382 54.0328 166.896 53.6394 167.497 53.4754C168.098 53.3115 168.732 53.388 169.268 53.7049C169.311 53.7268 169.355 53.7487 169.388 53.7814C169.497 53.8579 169.53 54 169.453 54.1202C169.377 54.2295 169.235 54.2623 169.115 54.1858C169.082 54.164 169.049 54.1421 169.016 54.1312C168.59 53.8907 168.087 53.8252 167.606 53.9563C167.126 54.0875 166.721 54.4044 166.481 54.8416C165.967 55.7377 166.284 56.8853 167.169 57.388C167.289 57.4536 167.322 57.6066 167.257 57.7159C167.235 57.7814 167.158 57.8252 167.071 57.8252Z" fill="black"/>
<path d="M169.836 59.3989C169.792 59.3989 169.749 59.388 169.716 59.3661C168.59 58.7213 168.208 57.2896 168.841 56.153C169.147 55.6065 169.661 55.2131 170.262 55.0492C170.863 54.8852 171.497 54.9617 172.033 55.2787C172.076 55.3005 172.12 55.3224 172.153 55.3552C172.262 55.4317 172.295 55.5738 172.219 55.694C172.142 55.8033 172 55.836 171.88 55.7595C171.847 55.7377 171.814 55.7158 171.781 55.7049C171.355 55.4645 170.852 55.3989 170.372 55.53C169.891 55.6612 169.486 55.9781 169.246 56.4153C168.732 57.3115 169.049 58.459 169.934 58.9617C170.055 59.0273 170.087 59.1803 170.022 59.2896C170 59.3552 169.923 59.3989 169.836 59.3989Z" fill="black"/>
<path d="M172.437 60.8852C172.393 60.8852 172.35 60.8743 172.317 60.8524C171.191 60.2076 170.809 58.7759 171.443 57.6393C171.749 57.0929 172.262 56.6994 172.863 56.5355C173.464 56.3716 174.098 56.4481 174.634 56.765C175.344 57.1694 175.781 57.9016 175.814 58.7213C175.814 58.8524 175.716 58.9617 175.585 58.9726C175.443 58.9836 175.344 58.8743 175.333 58.7431C175.311 58.0874 174.962 57.5082 174.393 57.1912C173.967 56.9508 173.464 56.8852 172.984 57.0164C172.503 57.1475 172.098 57.4645 171.858 57.9016C171.344 58.7978 171.661 59.9453 172.546 60.4481C172.667 60.5136 172.699 60.6666 172.634 60.7759C172.601 60.8415 172.525 60.8852 172.437 60.8852Z" fill="black"/>
<path d="M63.9014 181.027C63.9014 181.027 55.5299 162.677 60.3277 138.896C60.3277 138.896 73.3003 149.77 68.6228 181.027H63.9014Z" fill="#2F4B4E"/>
<path d="M68.6229 181.279H63.8906C63.7923 181.279 63.7048 181.224 63.672 181.137C63.5846 180.951 55.3223 162.448 60.0873 138.863C60.1092 138.776 60.1638 138.71 60.2403 138.678C60.3168 138.645 60.4152 138.667 60.4808 138.721C60.6119 138.831 63.8032 141.552 66.448 148.164C68.8852 154.24 71.2786 164.874 68.8524 181.082C68.8524 181.191 68.7431 181.279 68.6229 181.279ZM64.0545 180.787H68.4152C70.7649 164.831 68.4152 154.361 66.0218 148.371C63.8906 143.038 61.3551 140.229 60.4808 139.377C56.1529 161.519 63.3114 179.049 64.0545 180.787Z" fill="black"/>
<path d="M65.9453 179.366H65.9344C65.8033 179.355 65.694 179.246 65.7049 179.115C66.3497 167.388 61.0601 142.35 61.0054 142.098C60.9727 141.967 61.0601 141.836 61.1912 141.814C61.3224 141.781 61.4535 141.869 61.4754 142C61.53 142.251 66.8306 167.355 66.1858 179.147C66.1858 179.257 66.0765 179.366 65.9453 179.366Z" fill="black"/>
<path d="M73.596 151.29C73.596 151.29 62.8091 170.776 69.3009 179.202H72.7654C72.7654 179.202 79.7053 163.978 73.596 151.29Z" fill="#C67C4E"/>
<path d="M72.7654 179.442H69.3009C69.2244 179.442 69.1588 179.41 69.1042 179.344C66.361 175.781 66.2517 169.945 68.7763 162C70.6452 156.12 73.3446 151.213 73.3774 151.158C73.4211 151.082 73.5085 151.027 73.596 151.038C73.6834 151.038 73.7708 151.093 73.8036 151.18C79.8911 163.825 73.0495 179.147 72.984 179.3C72.9512 179.388 72.8637 179.442 72.7654 179.442ZM69.4211 178.962H72.6124C73.279 177.41 78.9184 163.53 73.585 151.825C72.0768 154.699 63.7708 171.388 69.4211 178.962Z" fill="black"/>
<path d="M70.9186 179.967C70.7874 179.967 70.6781 179.869 70.6781 179.738C70.3612 171.694 73.0716 154.197 73.0934 154.022C73.1153 153.891 73.2355 153.803 73.3666 153.825C73.4978 153.847 73.5852 153.967 73.5634 154.098C73.5415 154.273 70.8421 171.727 71.1481 179.727C71.1699 179.847 71.0606 179.956 70.9186 179.967Z" fill="black"/>
<path d="M51.7271 158.47C51.7271 158.47 60.9183 161.607 64.2407 180.164H60.6232C60.6342 180.153 53.0932 169.967 51.7271 158.47Z" fill="#FBBE21"/>
<path d="M64.2407 180.404H60.6232C60.5467 180.404 60.4702 180.372 60.4265 180.306C60.35 180.208 52.8309 169.935 51.4757 158.503C51.4648 158.415 51.4976 158.339 51.5631 158.284C51.6287 158.23 51.7161 158.219 51.7926 158.241C51.891 158.273 54.1861 159.082 56.9074 162.197C59.3992 165.049 62.7435 170.481 64.4702 180.12C64.4812 180.186 64.4593 180.262 64.4156 180.317C64.3828 180.372 64.3172 180.404 64.2407 180.404ZM60.7544 179.913H63.9566C61.0385 164.088 53.7599 159.694 52.0222 158.853C53.4101 169.399 60.0003 178.853 60.7544 179.913Z" fill="black"/>
<path d="M62.2735 179.88C62.1533 179.88 62.055 179.793 62.0331 179.672C60.667 171.41 54.7435 163.082 54.6888 163.006C54.6123 162.896 54.6342 162.743 54.7435 162.667C54.8528 162.59 55.0058 162.612 55.0823 162.722C55.1479 162.809 61.126 171.224 62.514 179.596C62.5358 179.727 62.4484 179.847 62.3173 179.869C62.2954 179.88 62.2845 179.88 62.2735 179.88Z" fill="black"/>
<path d="M55.279 178.688H77.9457L78.4594 189.41C78.5796 192.033 76.4812 194.24 73.8583 194.24H60.8965C57.7818 194.24 55.2572 191.716 55.2681 188.601L55.279 178.688Z" fill="#FBBE21"/>
<path d="M106.405 9.54102H100.47V76.3498H106.405V9.54102Z" fill="#C9C9C9"/>
<path d="M100.47 76.5904C100.339 76.5904 100.229 76.4811 100.229 76.35V9.54122C100.229 9.41007 100.339 9.30078 100.47 9.30078C100.601 9.30078 100.71 9.41007 100.71 9.54122V76.35C100.71 76.492 100.601 76.5904 100.47 76.5904Z" fill="black"/>
<path d="M106.404 76.5904C106.273 76.5904 106.164 76.4811 106.164 76.35V9.54122C106.164 9.41007 106.273 9.30078 106.404 9.30078C106.536 9.30078 106.645 9.41007 106.645 9.54122V76.35C106.645 76.492 106.536 76.5904 106.404 76.5904Z" fill="black"/>
<path d="M124.842 28.2187L148.536 35.1039L165.366 16.3936L124.842 28.2187Z" fill="#FFF597"/>
<path d="M148.536 35.3553C148.514 35.3553 148.492 35.3553 148.47 35.3443L124.765 28.4482C124.667 28.4154 124.59 28.328 124.59 28.2187C124.59 28.1094 124.656 28.011 124.765 27.9892L165.29 16.1749C165.388 16.1422 165.508 16.1859 165.563 16.2733C165.618 16.3607 165.607 16.481 165.541 16.5684L148.721 35.2788C148.678 35.3225 148.612 35.3553 148.536 35.3553ZM125.705 28.2187L148.459 34.8416L164.612 16.8744L125.705 28.2187Z" fill="black"/>
<path d="M136.645 39.3336L133.345 30.6888L159.531 19.6396L137.509 31.9019L142.459 33.3446L136.645 39.3336Z" fill="#FFF597"/>
<path d="M136.645 39.5849C136.634 39.5849 136.612 39.5849 136.601 39.5849C136.525 39.563 136.448 39.5084 136.427 39.4319L133.115 30.7761C133.071 30.6559 133.126 30.5138 133.246 30.4701L159.443 19.4319C159.563 19.3772 159.694 19.4319 159.76 19.5521C159.815 19.6723 159.771 19.8035 159.662 19.869L138.142 31.8472L142.536 33.1259C142.612 33.1477 142.678 33.2133 142.7 33.3007C142.722 33.3882 142.7 33.4756 142.634 33.5302L136.82 39.5302C136.776 39.5521 136.711 39.5849 136.645 39.5849ZM133.651 30.8199L136.743 38.8964L142.011 33.4647L137.443 32.1313C137.345 32.1095 137.279 32.022 137.268 31.9237C137.257 31.8253 137.301 31.7379 137.388 31.6832L155.53 21.5958L133.651 30.8199Z" fill="black"/>
<path d="M136.951 36.9727C136.94 36.9727 136.929 36.9727 136.918 36.9727C136.787 36.9618 136.689 36.8416 136.711 36.6995L137.268 31.8689C137.279 31.7378 137.399 31.6394 137.541 31.6613C137.672 31.6722 137.771 31.7924 137.749 31.9345L137.191 36.7651C137.17 36.8744 137.071 36.9727 136.951 36.9727Z" fill="black"/>
<path d="M88.1309 195.301C86.5135 195.301 84.8632 195.257 83.2566 195.17C83.1255 195.159 83.0162 195.049 83.0271 194.918C83.0381 194.787 83.1473 194.678 83.2785 194.689C84.885 194.776 86.5135 194.82 88.1309 194.82C96.4807 194.82 104.732 193.65 112.666 191.334C112.798 191.301 112.929 191.366 112.962 191.497C112.994 191.629 112.929 191.76 112.798 191.793C104.83 194.12 96.5244 195.301 88.1309 195.301Z" fill="black"/>
<path d="M138.492 179.453C138.415 179.453 138.339 179.421 138.295 179.355C138.218 179.246 138.24 179.093 138.349 179.016C140.732 177.355 143.049 175.541 145.257 173.65C145.355 173.563 145.508 173.574 145.595 173.672C145.683 173.77 145.672 173.923 145.573 174.011C143.355 175.912 141.027 177.727 138.634 179.41C138.59 179.432 138.546 179.453 138.492 179.453Z" fill="black"/>
<path d="M60.1092 24.0765C60.0108 24.0765 59.9125 24.011 59.8797 23.9126C59.836 23.7814 59.9016 23.6503 60.0327 23.6066C69.06 20.5683 78.5136 19.0273 88.1311 19.0273C89.7158 19.0273 91.3114 19.0711 92.8852 19.1585C93.0163 19.1694 93.1256 19.2787 93.1147 19.4099C93.1037 19.541 92.9944 19.6503 92.8633 19.6394C91.3005 19.5519 89.7048 19.5191 88.1311 19.5191C78.5682 19.5191 69.1584 21.0492 60.1857 24.0656C60.1639 24.0656 60.1311 24.0765 60.1092 24.0765Z" fill="black"/>
<path d="M52.8306 26.8852C52.7323 26.8852 52.6448 26.8305 52.6121 26.7431C52.5574 26.6229 52.6121 26.4808 52.7323 26.4262C53.7487 25.9781 54.7869 25.5409 55.8252 25.1365C55.9454 25.0928 56.0875 25.1475 56.1421 25.2677C56.1858 25.3879 56.1312 25.53 56.011 25.5846C54.9836 25.989 53.9454 26.4262 52.929 26.8633C52.8962 26.8852 52.8634 26.8852 52.8306 26.8852Z" fill="black"/>
<path d="M18.0436 69.0163C17.9999 69.0163 17.9562 69.0053 17.9234 68.9835C17.8141 68.9179 17.7704 68.7649 17.836 68.6556C20.8524 63.6502 24.4261 58.9616 28.4699 54.7212C28.5573 54.6228 28.7103 54.6228 28.8087 54.7103C28.907 54.7977 28.907 54.9507 28.8196 55.0491C24.7977 59.2567 21.2458 63.9234 18.2513 68.8961C18.2076 68.9726 18.1311 69.0163 18.0436 69.0163Z" fill="black"/>
<path d="M133.64 180.109C133.574 180.109 133.519 180.087 133.476 180.044C133.377 179.956 133.377 179.803 133.465 179.705L134.35 178.776C134.437 178.678 134.59 178.678 134.689 178.765C134.787 178.852 134.787 179.005 134.7 179.104L133.814 180.033C133.771 180.087 133.705 180.109 133.64 180.109Z" fill="black"/>
<path d="M130.525 183.366C130.459 183.366 130.405 183.344 130.361 183.3C130.262 183.213 130.262 183.06 130.35 182.962L131.235 182.033C131.323 181.934 131.487 181.934 131.574 182.022C131.672 182.109 131.672 182.262 131.585 182.361L130.7 183.29C130.656 183.344 130.59 183.366 130.525 183.366Z" fill="black"/>
<path d="M131.399 180.164C131.333 180.164 131.279 180.142 131.224 180.098L130.317 179.213C130.219 179.115 130.219 178.961 130.317 178.874C130.415 178.776 130.568 178.776 130.656 178.874L131.563 179.759C131.661 179.858 131.661 180.011 131.563 180.098C131.519 180.142 131.464 180.164 131.399 180.164Z" fill="black"/>
<path d="M134.568 183.278C134.503 183.278 134.448 183.257 134.393 183.213L133.486 182.328C133.388 182.229 133.388 182.076 133.486 181.989C133.585 181.89 133.738 181.89 133.825 181.989L134.732 182.874C134.831 182.972 134.831 183.125 134.732 183.213C134.689 183.257 134.623 183.278 134.568 183.278Z" fill="black"/>
<path d="M171.181 90.6009C171.115 90.6009 171.06 90.5791 171.017 90.5353C170.918 90.4479 170.918 90.2949 171.006 90.1965L171.891 89.2676C171.978 89.1692 172.131 89.1692 172.23 89.2567C172.328 89.3441 172.328 89.4971 172.241 89.5954L171.355 90.5244C171.312 90.5791 171.246 90.6009 171.181 90.6009Z" fill="black"/>
<path d="M168.066 93.8577C168 93.8577 167.946 93.8359 167.902 93.7922C167.804 93.7047 167.803 93.5517 167.891 93.4534L168.776 92.5244C168.864 92.4261 169.017 92.4261 169.115 92.5135C169.213 92.6009 169.213 92.7539 169.126 92.8523L168.241 93.7812C168.197 93.8359 168.131 93.8577 168.066 93.8577Z" fill="black"/>
<path d="M168.94 90.6554C168.874 90.6554 168.82 90.6335 168.765 90.5898L167.858 89.7046C167.76 89.6062 167.76 89.4532 167.858 89.3658C167.956 89.2674 168.109 89.2674 168.197 89.3658L169.104 90.251C169.202 90.3494 169.202 90.5024 169.104 90.5898C169.06 90.6335 169.005 90.6554 168.94 90.6554Z" fill="black"/>
<path d="M172.109 93.7701C172.044 93.7701 171.989 93.7483 171.934 93.7046L171.027 92.8193C170.929 92.7209 170.929 92.5679 171.027 92.4805C171.126 92.3821 171.279 92.3821 171.366 92.4805L172.273 93.3658C172.372 93.4641 172.372 93.6171 172.273 93.7046C172.23 93.7483 172.164 93.7701 172.109 93.7701Z" fill="black"/>
<path d="M73.5521 80.2185C73.4865 80.2185 73.421 80.1857 73.3663 80.142C72.7106 79.4098 72.2516 78.5136 71.9893 77.4863C71.9565 77.3551 72.033 77.224 72.1641 77.1912C72.2953 77.1584 72.4264 77.2349 72.4592 77.3661C72.6997 78.3169 73.1259 79.1366 73.727 79.8142C73.8144 79.9125 73.8035 80.0655 73.7051 80.153C73.6614 80.1967 73.6068 80.2185 73.5521 80.2185ZM72.0002 74.7868H71.9893C71.8581 74.7759 71.7598 74.6666 71.7598 74.5245C71.8144 73.6174 71.9783 72.6338 72.2406 71.6174C72.2734 71.4863 72.4046 71.4098 72.5357 71.4426C72.6669 71.4754 72.7434 71.6065 72.7106 71.7377C72.4592 72.7322 72.2953 73.6721 72.2406 74.5573C72.2297 74.6885 72.1204 74.7868 72.0002 74.7868ZM73.3882 69.1693C73.3554 69.1693 73.3226 69.1584 73.3008 69.1475C73.1805 69.0928 73.115 68.9617 73.1696 68.8305C73.5193 67.9453 73.9346 67.0491 74.4046 66.1748C74.4701 66.0546 74.6122 66.0109 74.7324 66.0764C74.8527 66.142 74.8964 66.2841 74.8308 66.4043C74.3718 67.2677 73.9674 68.153 73.6177 69.0163C73.574 69.1147 73.4865 69.1693 73.3882 69.1693ZM76.0986 64.0327C76.0548 64.0327 76.0002 64.0218 75.9674 63.989C75.8581 63.9125 75.8253 63.7595 75.9018 63.6502C76.3499 62.9836 76.798 62.3825 77.2242 61.8688C77.3773 61.683 77.5412 61.4972 77.6942 61.3223C77.7816 61.224 77.9346 61.2131 78.033 61.3005C78.1314 61.3879 78.1423 61.5409 78.0549 61.6393C77.9018 61.8142 77.7488 61.989 77.5958 62.1748C77.1805 62.6775 76.7434 63.2568 76.3062 63.9125C76.2516 63.9999 76.1751 64.0327 76.0986 64.0327ZM79.9565 59.7158C79.8909 59.7158 79.8144 59.683 79.7707 59.6284C79.6833 59.53 79.6942 59.377 79.8035 59.2896C80.5467 58.6666 81.3335 58.0764 82.1641 57.5519C82.2734 57.4754 82.4264 57.5081 82.5029 57.6284C82.5794 57.7376 82.5467 57.8907 82.4264 57.9672C81.6177 58.4918 80.8417 59.0601 80.1204 59.6721C80.0658 59.7049 80.0111 59.7158 79.9565 59.7158ZM84.8199 56.5901C84.7324 56.5901 84.645 56.5355 84.6013 56.448C84.5467 56.3278 84.5904 56.1857 84.7106 56.1202C85.563 55.7158 86.4702 55.3333 87.421 55.0054C87.5521 54.9617 87.6833 55.0273 87.727 55.1584C87.7707 55.2896 87.7051 55.4207 87.574 55.4644C86.645 55.7923 85.7598 56.1639 84.9182 56.5573C84.8964 56.5792 84.8636 56.5901 84.8199 56.5901ZM90.2844 54.6448C90.1751 54.6448 90.0767 54.5683 90.0548 54.459C90.0221 54.3278 90.0986 54.1967 90.2297 54.1639C91.1368 53.9344 92.0986 53.7267 93.0822 53.5519C93.2133 53.53 93.3445 53.6174 93.3663 53.7486C93.3882 53.8797 93.3008 54.0109 93.1696 54.0327C92.1969 54.2076 91.2461 54.4043 90.3499 54.6338C90.3171 54.6338 90.3062 54.6448 90.2844 54.6448ZM95.9893 53.6174C95.8691 53.6174 95.7598 53.53 95.7488 53.3989C95.7379 53.2677 95.8253 53.1475 95.9565 53.1256C96.8745 53.0163 97.8472 52.9289 98.8636 52.8633C98.9947 52.8524 99.115 52.9508 99.1259 53.0928C99.1368 53.224 99.0385 53.3442 98.8964 53.3551C97.8909 53.4207 96.9292 53.5191 96.0111 53.6174C96.0111 53.6174 96.0002 53.6174 95.9893 53.6174ZM116.317 53.2896C115.224 53.2786 114.186 53.2568 113.41 53.224C113.279 53.224 113.17 53.1038 113.181 52.9726C113.181 52.8415 113.29 52.7322 113.432 52.7431C114.208 52.765 115.246 52.7978 116.328 52.8087C116.459 52.8087 116.569 52.918 116.569 53.0491C116.558 53.1803 116.448 53.2896 116.317 53.2896ZM119.213 53.2677C119.082 53.2677 118.973 53.1693 118.973 53.0382C118.973 52.907 119.071 52.7978 119.202 52.7868C120.241 52.754 121.181 52.6994 122.088 52.6229C122.219 52.612 122.339 52.7103 122.35 52.8415C122.361 52.9726 122.263 53.0928 122.131 53.1038C121.224 53.1803 120.273 53.2349 119.213 53.2677C119.224 53.2677 119.224 53.2677 119.213 53.2677ZM101.793 53.2021C101.661 53.2021 101.552 53.1038 101.552 52.9726C101.552 52.8415 101.65 52.7322 101.782 52.7213C102.678 52.6885 103.629 52.6666 104.689 52.6557C104.82 52.6557 104.929 52.765 104.929 52.8961C104.929 53.0273 104.82 53.1366 104.689 53.1366C103.64 53.1475 102.7 53.1693 101.793 53.2021ZM110.503 53.1366C109.738 53.1147 109.148 53.1038 108.623 53.1038L108.579 52.8633V53.1038H107.596C107.465 53.1038 107.355 52.9945 107.355 52.8633C107.355 52.7322 107.465 52.6229 107.596 52.6229H108.579H108.623C109.148 52.6229 109.749 52.6338 110.503 52.6557C110.634 52.6557 110.743 52.765 110.743 52.9071C110.743 53.0382 110.634 53.1366 110.503 53.1366ZM125.006 52.7322C124.885 52.7322 124.787 52.6448 124.765 52.5355C124.743 52.4043 124.831 52.2732 124.962 52.2513C125.967 52.0764 126.907 51.8469 127.76 51.5846C127.891 51.5409 128.022 51.6174 128.066 51.7486C128.11 51.8797 128.033 52.0109 127.902 52.0546C127.028 52.3278 126.066 52.5464 125.049 52.7322C125.028 52.7322 125.017 52.7322 125.006 52.7322ZM130.514 50.9617C130.426 50.9617 130.339 50.918 130.295 50.8305C130.23 50.7103 130.273 50.5683 130.394 50.5027C131.279 50.0327 132.055 49.4863 132.7 48.8743C132.798 48.7868 132.951 48.7868 133.038 48.8852C133.126 48.9836 133.126 49.1366 133.028 49.224C132.35 49.8688 131.53 50.448 130.612 50.9289C130.59 50.9508 130.547 50.9617 130.514 50.9617ZM134.623 46.9945C134.59 46.9945 134.547 46.9836 134.514 46.9617C134.394 46.8961 134.35 46.754 134.416 46.6338C134.842 45.836 135.148 44.9398 135.334 43.9672C135.355 43.836 135.487 43.7486 135.618 43.7704C135.749 43.7923 135.836 43.9234 135.814 44.0546C135.618 45.071 135.301 46.0109 134.853 46.8524C134.787 46.9508 134.711 46.9945 134.623 46.9945Z" fill="black"/>
</g>
<defs>
<clipPath id="clip0_171_8048">
<rect width="188.23" height="200" fill="white"/>
</clipPath>
</defs>
</svg>
